<svg width="351" height="81" viewBox="0 0 351 81" fill="none" xmlns="http://www.w3.org/2000/svg">
<g filter="url(#filter0_d_1925_67)">
<path d="M64.0298 30.7399C62.6098 30.8899 61.1998 30.9599 59.7798 30.9599C58.3598 30.9599 57.4698 30.8999 57.0898 30.7699C56.7098 30.6399 56.5198 30.4299 56.5198 30.1299V15.2799H51.7198C51.4698 15.2799 51.2498 14.9599 51.0598 14.3099C50.8798 13.6699 50.7798 12.6999 50.7798 11.4299C50.7798 10.1599 50.9198 8.99994 51.1898 7.97994C51.4698 6.95994 51.8298 6.43994 52.2898 6.43994H70.9698C71.3198 6.43994 71.5498 6.75994 71.6798 7.40994C71.8098 8.04994 71.8698 8.98994 71.8698 10.2099C71.8698 11.4299 71.7398 12.5799 71.4898 13.6599C71.2398 14.7399 70.8898 15.2799 70.4498 15.2799H66.1298V30.1299C66.1298 30.3799 65.4198 30.5899 64.0098 30.7299L64.0298 30.7399Z" fill="#CF3700"/>
<path d="M85.01 30.13V20.53C85.01 18.8 84.94 17.55 84.8 16.77C84.66 15.99 84.33 15.6 83.8 15.6C83.34 15.6 83.11 15.91 83.11 16.53V30.13C83.11 30.38 82.44 30.59 81.11 30.73C79.77 30.88 78.4 30.95 77 30.95C75.6 30.95 74.71 30.89 74.34 30.76C73.97 30.63 73.79 30.42 73.79 30.12V6.20002C73.79 5.72002 74.46 5.23002 75.79 4.75002C77.12 4.27002 78.53 4.02002 80 4.02002C81.47 4.02002 82.52 4.31002 82.93 4.88002C83.07 5.06002 83.14 5.26002 83.14 5.47002V10.55L82.76 12.93H83C83.32 12.45 83.83 12.02 84.52 11.65C85.81 10.96 87.21 10.61 88.73 10.61C90.92 10.61 92.4 11.31 93.17 12.7C93.94 14.09 94.33 16.35 94.33 19.49V30.13C94.33 30.38 93.66 30.59 92.31 30.73C90.96 30.88 89.59 30.95 88.2 30.95C86.81 30.95 85.93 30.89 85.56 30.76C85.19 30.63 85.01 30.42 85.01 30.12V30.13Z" fill="#CF3700"/>
<path d="M105.83 23.1599C105.83 24.6599 106.54 25.3999 107.97 25.3999C108.8 25.3999 109.88 25.1199 111.22 24.5499C112.55 23.9899 113.26 23.6999 113.33 23.6999C113.77 23.6999 114.34 24.3599 115.06 25.6699C115.77 26.9799 116.13 27.9499 116.13 28.5699C116.13 29.4699 115.21 30.1499 113.37 30.6099C111.53 31.0699 109.73 31.2999 107.97 31.2999C106.21 31.2999 104.74 31.1599 103.55 30.8899C102.36 30.6099 101.4 30.2599 100.65 29.8399C99.8997 29.4099 99.2497 28.8899 98.6797 28.2699C98.1197 27.6499 97.6997 27.0599 97.4197 26.4899C97.1397 25.9199 96.9197 25.2999 96.7597 24.6099C96.5297 23.5999 96.4097 22.5499 96.4097 21.4699C96.4097 17.2799 97.4997 14.3899 99.6897 12.7999C100.77 11.9899 101.98 11.4299 103.32 11.1099C104.65 10.7899 106.23 10.6299 108.05 10.6299C113.87 10.6299 116.79 12.6599 116.79 16.7099C116.79 21.0199 113.52 23.1699 106.98 23.1699H105.84L105.83 23.1599ZM105.76 18.1199V20.3999C106.43 20.3999 106.97 20.1399 107.4 19.6099C107.83 19.0799 108.04 18.4399 108.04 17.6799C108.04 16.2999 107.68 15.6099 106.97 15.6099C106.16 15.6099 105.76 16.4499 105.76 18.1299V18.1199Z" fill="#CF3700"/>
<path d="M136.01 31.2698C132.19 31.2698 129.39 30.8998 127.62 30.1698C126.72 29.7798 126.27 29.3998 126.27 29.0298C126.27 28.0898 126.55 26.9798 127.1 25.7198C127.65 24.4498 128.14 23.8198 128.55 23.8198C128.78 23.8198 129.56 24.0698 130.88 24.5798C132.2 25.0898 133.32 25.3398 134.23 25.3398C135.14 25.3398 135.74 25.2798 136.03 25.1698C136.32 25.0598 136.46 24.8298 136.46 24.4998C136.46 24.1698 136.23 23.8998 135.77 23.7098C135.31 23.5098 134.73 23.3798 134.04 23.3098C133.35 23.2398 132.61 23.0998 131.81 22.8998C131.01 22.6998 130.27 22.4298 129.58 22.1098C128.89 21.7898 128.31 21.2498 127.85 20.4998C127.39 19.7498 127.16 18.9498 127.16 18.0798C127.16 17.2098 127.18 16.5698 127.23 16.1498C127.28 15.7198 127.47 15.1298 127.8 14.3498C128.13 13.5698 128.61 12.9498 129.22 12.4698C129.83 11.9898 130.77 11.5498 132.05 11.1598C133.33 10.7698 134.76 10.5698 136.35 10.5698C137.94 10.5698 139.27 10.6198 140.34 10.7298C141.41 10.8398 142.25 10.9698 142.86 11.1298C143.47 11.2898 143.97 11.4798 144.36 11.6798C145.03 12.0298 145.36 12.4098 145.36 12.8198C145.36 13.7198 145.04 14.7498 144.39 15.9298C143.75 17.0998 143.23 17.6898 142.85 17.6898C142.47 17.6898 141.65 17.4898 140.38 17.0898C139.11 16.6898 138.18 16.4898 137.58 16.4898C136.61 16.4898 136.13 16.7698 136.13 17.3198C136.13 17.6698 136.46 17.9198 137.11 18.0998C137.76 18.2798 138.55 18.4498 139.48 18.6398C140.4 18.8198 141.33 19.0798 142.26 19.4198C143.19 19.7498 143.99 20.3598 144.64 21.2298C145.3 22.1098 145.62 23.2098 145.62 24.5498C145.62 29.0598 142.41 31.3198 135.99 31.3198L136.01 31.2698Z" fill="#CF3700"/>
<path d="M173.92 30.1302C173.62 30.6802 172.06 30.9602 169.24 30.9602C166.42 30.9602 164.95 30.6802 164.84 30.1302L163.67 23.8502H163.19L162.09 30.1302C162.02 30.6802 160.01 30.9602 156.05 30.9602C154.95 30.9602 154.21 30.9002 153.86 30.7702C153.5 30.6402 153.26 30.4302 153.12 30.1302C148.84 19.6102 146.7 14.0702 146.7 13.5202C146.7 12.9702 147.53 12.4002 149.2 11.8102C150.87 11.2202 152.47 10.9302 154.02 10.9302C156 10.9302 157.02 11.4602 157.09 12.5202L158.26 21.9802H158.67L159.08 14.3502C159.1 13.7802 159.69 13.2702 160.84 12.8302C161.99 12.3902 163.15 12.1702 164.33 12.1702C165.51 12.1702 166.38 12.3102 166.97 12.6002C167.56 12.8902 167.86 13.2402 167.88 13.6502L168.26 21.9702H168.64L169.78 13.1002C169.85 12.5502 170.63 12.0502 172.11 11.6002C173.59 11.1502 174.9 10.9302 176.03 10.9302C177.16 10.9302 178.04 11.0902 178.69 11.4102C179.75 11.9202 180.28 12.5102 180.28 13.2102C180.28 13.2802 179.24 16.0902 177.16 21.6402C175.08 27.1902 174 30.0202 173.93 30.1302H173.92Z" fill="#CF3700"/>
<path d="M190.74 23.1599C190.74 24.6599 191.45 25.3999 192.88 25.3999C193.71 25.3999 194.79 25.1199 196.13 24.5499C197.46 23.9899 198.17 23.6999 198.24 23.6999C198.68 23.6999 199.25 24.3599 199.97 25.6699C200.68 26.9799 201.04 27.9499 201.04 28.5699C201.04 29.4699 200.12 30.1499 198.28 30.6099C196.44 31.0699 194.64 31.2999 192.88 31.2999C191.12 31.2999 189.65 31.1599 188.46 30.8899C187.27 30.6099 186.31 30.2599 185.56 29.8399C184.81 29.4099 184.16 28.8899 183.59 28.2699C183.03 27.6499 182.61 27.0599 182.33 26.4899C182.05 25.9199 181.83 25.2999 181.67 24.6099C181.44 23.5999 181.32 22.5499 181.32 21.4699C181.32 17.2799 182.41 14.3899 184.6 12.7999C185.68 11.9899 186.89 11.4299 188.23 11.1099C189.56 10.7899 191.14 10.6299 192.96 10.6299C198.78 10.6299 201.7 12.6599 201.7 16.7099C201.7 21.0199 198.43 23.1699 191.89 23.1699H190.75L190.74 23.1599ZM190.67 18.1199V20.3999C191.34 20.3999 191.88 20.1399 192.31 19.6099C192.74 19.0799 192.95 18.4399 192.95 17.6799C192.95 16.2999 192.59 15.6099 191.88 15.6099C191.07 15.6099 190.67 16.4499 190.67 18.1299V18.1199Z" fill="#CF3700"/>
<path d="M212.84 23.1599C212.84 24.6599 213.55 25.3999 214.98 25.3999C215.81 25.3999 216.89 25.1199 218.23 24.5499C219.56 23.9899 220.27 23.6999 220.34 23.6999C220.78 23.6999 221.35 24.3599 222.07 25.6699C222.78 26.9799 223.14 27.9499 223.14 28.5699C223.14 29.4699 222.22 30.1499 220.38 30.6099C218.54 31.0699 216.74 31.2999 214.98 31.2999C213.22 31.2999 211.75 31.1599 210.56 30.8899C209.37 30.6099 208.41 30.2599 207.66 29.8399C206.91 29.4099 206.26 28.8899 205.69 28.2699C205.13 27.6499 204.71 27.0599 204.43 26.4899C204.15 25.9299 203.93 25.2999 203.77 24.6099C203.54 23.5999 203.42 22.5499 203.42 21.4699C203.42 17.2799 204.51 14.3899 206.7 12.7999C207.78 11.9899 208.99 11.4299 210.33 11.1099C211.66 10.7899 213.24 10.6299 215.06 10.6299C220.88 10.6299 223.8 12.6599 223.8 16.7099C223.8 21.0199 220.53 23.1699 213.99 23.1699H212.85L212.84 23.1599ZM212.77 18.1199V20.3999C213.44 20.3999 213.98 20.1399 214.41 19.6099C214.84 19.0799 215.05 18.4399 215.05 17.6799C215.05 16.2999 214.69 15.6099 213.98 15.6099C213.17 15.6099 212.77 16.4499 212.77 18.1299V18.1199Z" fill="#CF3700"/>
<path d="M239.43 30.6498C239.02 31.0398 238.07 31.2398 236.6 31.2398C235.13 31.2398 233.91 31.1398 232.94 30.9498C231.97 30.7498 231.05 30.3698 230.18 29.7898C228.5 28.6598 227.66 26.3098 227.66 22.7498V17.3598H225.93C225.68 17.3598 225.46 17.0998 225.27 16.5698C225.08 16.0398 224.99 15.3198 224.99 14.3898C224.99 13.4598 225.13 12.6598 225.42 11.9598C225.71 11.2598 226.08 10.9098 226.54 10.9098H227.65V6.72984C227.65 6.01984 228.35 5.43984 229.74 4.99984C231.13 4.55984 232.5 4.33984 233.83 4.33984C235.92 4.33984 236.97 4.85984 236.97 5.88984V10.8998H239.53C240.13 10.8998 240.43 11.7598 240.43 13.4898C240.43 14.6198 240.3 15.5398 240.03 16.2698C239.76 16.9998 239.43 17.3598 239.01 17.3598H236.97V23.6798C236.97 24.2998 237.23 24.7498 237.76 25.0098C238.29 25.2698 238.76 25.4098 239.16 25.4098C239.56 25.4098 239.81 25.6098 239.9 25.9998C239.99 26.3898 240.04 26.9798 240.04 27.7598C240.04 29.2998 239.83 30.2698 239.42 30.6598L239.43 30.6498Z" fill="#CF3700"/>
<path d="M251.58 23.1599C251.58 24.6599 252.29 25.3999 253.72 25.3999C254.55 25.3999 255.63 25.1199 256.97 24.5499C258.3 23.9899 259.01 23.6999 259.08 23.6999C259.52 23.6999 260.09 24.3599 260.81 25.6699C261.52 26.9799 261.88 27.9499 261.88 28.5699C261.88 29.4699 260.96 30.1499 259.12 30.6099C257.28 31.0699 255.48 31.2999 253.72 31.2999C251.96 31.2999 250.49 31.1599 249.3 30.8899C248.11 30.6099 247.15 30.2599 246.4 29.8399C245.65 29.4099 245 28.8899 244.43 28.2699C243.87 27.6499 243.45 27.0599 243.17 26.4899C242.89 25.9299 242.67 25.2999 242.51 24.6099C242.28 23.5999 242.16 22.5499 242.16 21.4699C242.16 17.2799 243.25 14.3899 245.44 12.7999C246.52 11.9899 247.73 11.4299 249.07 11.1099C250.4 10.7899 251.98 10.6299 253.8 10.6299C259.62 10.6299 262.54 12.6599 262.54 16.7099C262.54 21.0199 259.27 23.1699 252.73 23.1699H251.59L251.58 23.1599ZM251.51 18.1199V20.3999C252.18 20.3999 252.72 20.1399 253.15 19.6099C253.58 19.0799 253.79 18.4399 253.79 17.6799C253.79 16.2999 253.43 15.6099 252.72 15.6099C251.91 15.6099 251.51 16.4499 251.51 18.1299V18.1199Z" fill="#CF3700"/>
<path d="M273.99 31.2698C270.17 31.2698 267.37 30.8998 265.6 30.1698C264.7 29.7798 264.25 29.3998 264.25 29.0298C264.25 28.0898 264.53 26.9798 265.08 25.7198C265.63 24.4498 266.12 23.8198 266.53 23.8198C266.76 23.8198 267.54 24.0698 268.86 24.5798C270.18 25.0898 271.3 25.3398 272.21 25.3398C273.12 25.3398 273.72 25.2798 274.01 25.1698C274.3 25.0598 274.44 24.8298 274.44 24.4998C274.44 24.1698 274.21 23.8998 273.75 23.7098C273.29 23.5098 272.71 23.3798 272.02 23.3098C271.33 23.2398 270.59 23.0998 269.79 22.8998C268.99 22.6998 268.25 22.4298 267.56 22.1098C266.87 21.7898 266.29 21.2498 265.83 20.4998C265.37 19.7498 265.14 18.9498 265.14 18.0798C265.14 17.2098 265.16 16.5698 265.21 16.1498C265.26 15.7198 265.45 15.1298 265.78 14.3498C266.11 13.5698 266.59 12.9498 267.2 12.4698C267.81 11.9898 268.75 11.5498 270.03 11.1598C271.31 10.7698 272.74 10.5698 274.33 10.5698C275.92 10.5698 277.25 10.6198 278.32 10.7298C279.39 10.8398 280.23 10.9698 280.84 11.1298C281.45 11.2898 281.95 11.4798 282.34 11.6798C283.01 12.0298 283.34 12.4098 283.34 12.8198C283.34 13.7198 283.02 14.7498 282.37 15.9298C281.73 17.0998 281.21 17.6898 280.83 17.6898C280.45 17.6898 279.63 17.4898 278.36 17.0898C277.09 16.6898 276.16 16.4898 275.56 16.4898C274.59 16.4898 274.11 16.7698 274.11 17.3198C274.11 17.6698 274.44 17.9198 275.09 18.0998C275.74 18.2798 276.53 18.4498 277.46 18.6398C278.38 18.8198 279.31 19.0798 280.24 19.4198C281.17 19.7498 281.97 20.3598 282.62 21.2298C283.28 22.1098 283.6 23.2098 283.6 24.5498C283.6 29.0598 280.39 31.3198 273.97 31.3198L273.99 31.2698Z" fill="#CF3700"/>
<path d="M299.27 30.6498C298.86 31.0398 297.91 31.2398 296.44 31.2398C294.97 31.2398 293.75 31.1398 292.78 30.9498C291.81 30.7498 290.89 30.3698 290.02 29.7898C288.34 28.6598 287.5 26.3098 287.5 22.7498V17.3598H285.77C285.52 17.3598 285.3 17.0998 285.11 16.5698C284.93 16.0398 284.83 15.3198 284.83 14.3898C284.83 13.4598 284.97 12.6598 285.26 11.9598C285.55 11.2598 285.92 10.9098 286.38 10.9098H287.48V6.72984C287.48 6.01984 288.18 5.43984 289.57 4.99984C290.96 4.55984 292.33 4.33984 293.66 4.33984C295.75 4.33984 296.8 4.85984 296.8 5.88984V10.8998H299.35C299.95 10.8998 300.25 11.7598 300.25 13.4898C300.25 14.6198 300.12 15.5398 299.85 16.2698C299.59 16.9998 299.25 17.3598 298.83 17.3598H296.79V23.6798C296.79 24.2998 297.05 24.7498 297.58 25.0098C298.11 25.2698 298.58 25.4098 298.98 25.4098C299.38 25.4098 299.63 25.6098 299.72 25.9998C299.81 26.3898 299.86 26.9798 299.86 27.7598C299.86 29.2998 299.65 30.2698 299.24 30.6598L299.27 30.6498Z" fill="#CF3700"/>
<path d="M30.1199 71.5701C29.8199 72.1201 28.2599 72.4001 25.4399 72.4001C22.6199 72.4001 21.1499 72.1201 21.0399 71.5701L19.8699 65.2901H19.3899L18.2899 71.5701C18.2199 72.1201 16.2099 72.4001 12.2499 72.4001C11.1499 72.4001 10.4099 72.3401 10.0599 72.2101C9.6999 72.0801 9.4599 71.8701 9.3199 71.5701C5.0399 61.0501 2.8999 55.5101 2.8999 54.9601C2.8999 54.4101 3.7299 53.8401 5.3999 53.2501C7.0699 52.6601 8.6699 52.3701 10.2199 52.3701C12.1999 52.3701 13.2199 52.9001 13.2899 53.9601L14.4599 63.4201H14.8699L15.2799 55.7901C15.2999 55.2201 15.8899 54.7101 17.0399 54.2701C18.1899 53.8301 19.3499 53.6101 20.5299 53.6101C21.7099 53.6101 22.5799 53.7501 23.1699 54.0401C23.7599 54.3301 24.0599 54.6801 24.0899 55.0901L24.4699 63.4101H24.8499L25.9899 54.5401C26.0599 53.9901 26.8399 53.4901 28.3199 53.0401C29.7999 52.5901 31.1099 52.3701 32.2399 52.3701C33.3699 52.3701 34.2499 52.5301 34.8999 52.8501C35.9599 53.3601 36.4899 53.9501 36.4899 54.6501C36.4899 54.7201 35.4499 57.5301 33.3599 63.0801C31.2799 68.6301 30.1999 71.4601 30.1299 71.5701H30.1199Z" fill="#CF3700"/>
<path d="M46.94 64.5998C46.94 66.0998 47.65 66.8398 49.08 66.8398C49.91 66.8398 50.99 66.5598 52.33 65.9898C53.66 65.4298 54.37 65.1398 54.44 65.1398C54.88 65.1398 55.45 65.7998 56.17 67.1098C56.88 68.4198 57.24 69.3898 57.24 70.0098C57.24 70.9098 56.32 71.5898 54.48 72.0498C52.64 72.5098 50.84 72.7398 49.08 72.7398C47.32 72.7398 45.85 72.5998 44.66 72.3298C43.47 72.0498 42.51 71.6998 41.76 71.2798C41.01 70.8498 40.36 70.3298 39.79 69.7098C39.23 69.0898 38.81 68.4998 38.53 67.9298C38.25 67.3698 38.03 66.7398 37.87 66.0498C37.64 65.0398 37.52 63.9898 37.52 62.9098C37.52 58.7198 38.61 55.8298 40.8 54.2398C41.88 53.4298 43.09 52.8698 44.43 52.5498C45.76 52.2298 47.34 52.0698 49.16 52.0698C54.98 52.0698 57.9 54.0998 57.9 58.1498C57.9 62.4598 54.63 64.6098 48.09 64.6098H46.95L46.94 64.5998ZM46.87 59.5498V61.8298C47.54 61.8298 48.08 61.5698 48.51 61.0398C48.94 60.5098 49.15 59.8698 49.15 59.1098C49.15 57.7298 48.79 57.0398 48.08 57.0398C47.27 57.0398 46.87 57.8798 46.87 59.5598V59.5498Z" fill="#CF3700"/>
<path d="M61.8497 72.05C60.5797 71.73 59.9497 71.24 59.9497 70.6V48.71C59.9497 48.2 60.6297 47.71 61.9897 47.23C63.3497 46.75 64.7797 46.5 66.2697 46.5C68.2997 46.5 69.3097 47.03 69.3097 48.09V51.99L68.9297 54.37H69.2097C69.3497 54.16 69.6097 53.91 69.9897 53.61C70.3697 53.31 70.7697 53.06 71.1797 52.85C72.1897 52.32 73.3097 52.06 74.5297 52.06C75.7497 52.06 76.7097 52.22 77.4097 52.53C78.1097 52.84 78.6797 53.24 79.0997 53.74C79.5197 54.24 79.8597 54.86 80.1197 55.62C80.5597 56.93 80.7797 58.57 80.7797 60.52C80.7797 63.77 80.4097 66.25 79.6797 67.98C78.9397 69.71 77.7497 70.93 76.0897 71.64C74.4297 72.35 72.0997 72.71 69.0797 72.71C66.0597 72.71 63.6597 72.49 61.8597 72.05H61.8497ZM69.2797 67.63H70.3497C71.0897 67.63 71.4497 65.86 71.4497 62.33C71.4497 58.8 71.0697 57.03 70.3097 57.03H69.2697V67.63H69.2797Z" fill="#CF3700"/>
<path d="M92.4099 72.7103C88.5899 72.7103 85.7899 72.3403 84.0199 71.6103C83.1199 71.2203 82.6699 70.8403 82.6699 70.4703C82.6699 69.5303 82.9499 68.4203 83.4999 67.1603C84.0499 65.8903 84.5399 65.2603 84.9499 65.2603C85.1799 65.2603 85.9599 65.5103 87.2799 66.0203C88.5999 66.5303 89.7199 66.7803 90.6299 66.7803C91.5399 66.7803 92.1399 66.7203 92.4299 66.6103C92.7199 66.5003 92.8599 66.2703 92.8599 65.9403C92.8599 65.6103 92.6299 65.3403 92.1699 65.1503C91.7099 64.9503 91.1299 64.8203 90.4399 64.7503C89.7499 64.6803 89.0099 64.5403 88.2099 64.3403C87.4099 64.1403 86.6699 63.8703 85.9799 63.5503C85.2899 63.2303 84.7099 62.6903 84.2499 61.9403C83.7899 61.1903 83.5599 60.3903 83.5599 59.5203C83.5599 58.6503 83.5799 58.0103 83.6299 57.5903C83.6799 57.1603 83.8699 56.5703 84.1999 55.7903C84.5299 55.0103 85.0099 54.3903 85.6199 53.9103C86.2299 53.4303 87.1699 52.9903 88.4499 52.6003C89.7299 52.2103 91.1599 52.0103 92.7499 52.0103C94.3399 52.0103 95.6699 52.0603 96.7399 52.1703C97.8099 52.2703 98.6499 52.4103 99.2599 52.5703C99.8699 52.7303 100.37 52.9203 100.76 53.1203C101.43 53.4703 101.76 53.8503 101.76 54.2603C101.76 55.1603 101.44 56.1903 100.79 57.3703C100.15 58.5403 99.6299 59.1303 99.2499 59.1303C98.8699 59.1303 98.0499 58.9303 96.7799 58.5303C95.5099 58.1303 94.5799 57.9303 93.9799 57.9303C93.0099 57.9303 92.5299 58.2103 92.5299 58.7603C92.5299 59.1103 92.8599 59.3603 93.5099 59.5403C94.1599 59.7203 94.9499 59.8903 95.8799 60.0803C96.7999 60.2603 97.7299 60.5203 98.6599 60.8603C99.5899 61.1903 100.39 61.8003 101.04 62.6703C101.7 63.5503 102.02 64.6503 102.02 65.9903C102.02 70.5003 98.8099 72.7603 92.3899 72.7603L92.4099 72.7103Z" fill="#CF3700"/>
<path d="M108.92 45.47C110.44 45.47 111.63 45.69 112.49 46.14C113.35 46.59 113.78 47.4 113.78 48.57C113.78 50.64 112.17 51.68 108.95 51.68C105.73 51.68 104.12 50.64 104.12 48.57C104.12 46.5 105.72 45.46 108.92 45.46V45.47ZM113.62 54.55V71.57C113.62 71.82 112.96 72.03 111.63 72.17C110.31 72.32 108.95 72.39 107.56 72.39C106.17 72.39 105.27 72.33 104.87 72.2C104.47 72.07 104.27 71.86 104.27 71.56V55.16C104.27 54.65 104.92 54.15 106.22 53.66C107.52 53.17 108.94 52.92 110.48 52.92C112.57 52.92 113.62 53.46 113.62 54.54V54.55Z" fill="#CF3700"/>
<path d="M129.78 72.0898C129.37 72.4798 128.42 72.6798 126.95 72.6798C125.48 72.6798 124.26 72.5798 123.29 72.3898C122.32 72.1898 121.4 71.8098 120.53 71.2298C118.85 70.0998 118.01 67.7498 118.01 64.1898V58.7998H116.28C116.03 58.7998 115.81 58.5398 115.62 58.0098C115.43 57.4798 115.34 56.7598 115.34 55.8298C115.34 54.8998 115.48 54.0998 115.77 53.3998C116.06 52.6998 116.43 52.3498 116.89 52.3498H118V48.1698C118 47.4598 118.7 46.8798 120.09 46.4398C121.48 45.9998 122.85 45.7798 124.18 45.7798C126.27 45.7798 127.32 46.2998 127.32 47.3298V52.3398H129.88C130.48 52.3398 130.78 53.1998 130.78 54.9298C130.78 56.0598 130.65 56.9798 130.38 57.7098C130.11 58.4398 129.78 58.7998 129.36 58.7998H127.32V65.1198C127.32 65.7398 127.58 66.1898 128.11 66.4498C128.64 66.7098 129.11 66.8498 129.51 66.8498C129.91 66.8498 130.16 67.0498 130.25 67.4398C130.34 67.8298 130.39 68.4198 130.39 69.1998C130.39 70.7398 130.18 71.7098 129.77 72.0998L129.78 72.0898Z" fill="#CF3700"/>
<path d="M141.93 64.5998C141.93 66.0998 142.64 66.8398 144.07 66.8398C144.9 66.8398 145.98 66.5598 147.32 65.9898C148.65 65.4298 149.36 65.1398 149.43 65.1398C149.87 65.1398 150.44 65.7998 151.16 67.1098C151.87 68.4198 152.23 69.3898 152.23 70.0098C152.23 70.9098 151.31 71.5898 149.47 72.0498C147.63 72.5098 145.83 72.7398 144.07 72.7398C142.31 72.7398 140.84 72.5998 139.65 72.3298C138.46 72.0498 137.5 71.6998 136.75 71.2798C136 70.8498 135.35 70.3298 134.78 69.7098C134.22 69.0898 133.8 68.4998 133.52 67.9298C133.24 67.3698 133.02 66.7398 132.86 66.0498C132.63 65.0398 132.51 63.9898 132.51 62.9098C132.51 58.7198 133.6 55.8298 135.79 54.2398C136.87 53.4298 138.08 52.8698 139.42 52.5498C140.75 52.2298 142.33 52.0698 144.15 52.0698C149.97 52.0698 152.89 54.0998 152.89 58.1498C152.89 62.4598 149.62 64.6098 143.08 64.6098H141.94L141.93 64.5998ZM141.86 59.5498V61.8298C142.53 61.8298 143.07 61.5698 143.5 61.0398C143.93 60.5098 144.14 59.8698 144.14 59.1098C144.14 57.7298 143.78 57.0398 143.07 57.0398C142.26 57.0398 141.86 57.8798 141.86 59.5598V59.5498Z" fill="#CF3700"/>
<path d="M167.52 45.47C169.04 45.47 170.23 45.69 171.09 46.14C171.95 46.59 172.38 47.4 172.38 48.57C172.38 50.64 170.77 51.68 167.55 51.68C164.33 51.68 162.72 50.64 162.72 48.57C162.72 46.5 164.32 45.46 167.52 45.46V45.47ZM172.21 54.55V71.57C172.21 71.82 171.55 72.03 170.22 72.17C168.9 72.32 167.54 72.39 166.15 72.39C164.76 72.39 163.86 72.33 163.46 72.2C163.06 72.07 162.86 71.86 162.86 71.56V55.16C162.86 54.65 163.51 54.15 164.81 53.66C166.11 53.17 167.53 52.92 169.07 52.92C171.16 52.92 172.21 53.46 172.21 54.54V54.55Z" fill="#CF3700"/>
<path d="M184.19 72.7103C180.37 72.7103 177.57 72.3403 175.8 71.6103C174.9 71.2203 174.45 70.8403 174.45 70.4703C174.45 69.5303 174.73 68.4203 175.28 67.1603C175.83 65.8903 176.32 65.2603 176.73 65.2603C176.96 65.2603 177.74 65.5103 179.06 66.0203C180.38 66.5303 181.5 66.7803 182.41 66.7803C183.32 66.7803 183.92 66.7203 184.21 66.6103C184.5 66.5003 184.64 66.2703 184.64 65.9403C184.64 65.6103 184.41 65.3403 183.95 65.1503C183.49 64.9503 182.91 64.8203 182.22 64.7503C181.53 64.6803 180.79 64.5403 179.99 64.3403C179.19 64.1403 178.45 63.8703 177.76 63.5503C177.07 63.2303 176.49 62.6903 176.03 61.9403C175.57 61.1903 175.34 60.3903 175.34 59.5203C175.34 58.6503 175.36 58.0103 175.41 57.5903C175.46 57.1603 175.65 56.5703 175.98 55.7903C176.31 55.0103 176.79 54.3903 177.4 53.9103C178.01 53.4303 178.95 52.9903 180.23 52.6003C181.51 52.2103 182.94 52.0103 184.53 52.0103C186.12 52.0103 187.45 52.0603 188.52 52.1703C189.59 52.2703 190.43 52.4103 191.04 52.5703C191.65 52.7303 192.15 52.9203 192.54 53.1203C193.21 53.4703 193.54 53.8503 193.54 54.2603C193.54 55.1603 193.22 56.1903 192.57 57.3703C191.93 58.5403 191.41 59.1303 191.03 59.1303C190.65 59.1303 189.83 58.9303 188.56 58.5303C187.29 58.1303 186.36 57.9303 185.76 57.9303C184.79 57.9303 184.31 58.2103 184.31 58.7603C184.31 59.1103 184.64 59.3603 185.29 59.5403C185.94 59.7203 186.73 59.8903 187.66 60.0803C188.58 60.2603 189.51 60.5203 190.44 60.8603C191.37 61.1903 192.17 61.8003 192.82 62.6703C193.48 63.5503 193.8 64.6503 193.8 65.9903C193.8 70.5003 190.59 72.7603 184.17 72.7603L184.19 72.7103Z" fill="#CF3700"/>
<path d="M208.12 71.8101C207.57 71.5601 206.97 71.1801 206.34 70.6701C205.71 70.1601 205.18 69.5701 204.77 68.8701C203.8 67.2101 203.32 65.0501 203.32 62.3801C203.32 60.7201 203.58 59.2401 204.11 57.9401C204.64 56.6401 205.28 55.6301 206.04 54.9201C206.8 54.2101 207.67 53.6201 208.66 53.1601C210.25 52.4201 211.84 52.0601 213.43 52.0601C216.1 52.0601 217.96 52.2701 219.01 52.6801C220.06 53.0901 220.58 53.8001 220.58 54.7901C220.58 55.7801 220.4 56.8301 220.04 57.9501C219.68 59.0701 219.22 59.6201 218.64 59.6201C218.46 59.6201 217.9 59.4201 216.97 59.0301C216.04 58.6401 215.23 58.4401 214.55 58.4401C213.87 58.4401 213.35 58.7101 213 59.2501C212.64 59.7901 212.46 60.8401 212.46 62.3901C212.46 63.9401 212.62 65.0001 212.94 65.5701C213.26 66.1301 213.76 66.4201 214.44 66.4201C215.12 66.4201 215.96 66.1901 216.98 65.7301C217.99 65.2701 218.56 65.0401 218.67 65.0401C219.11 65.0401 219.53 65.5601 219.93 66.5901C220.33 67.6301 220.53 68.5501 220.53 69.3501C220.53 70.5901 219.89 71.4601 218.6 71.9601C217.31 72.4601 215.57 72.7001 213.37 72.7001C211.17 72.7001 209.42 72.4001 208.1 71.8001L208.12 71.8101Z" fill="#CF3700"/>
<path d="M233.3 72.7101C231.57 72.7101 230.09 72.5601 228.85 72.2601C227.61 71.9601 226.48 71.4301 225.47 70.6701C223.37 69.1501 222.33 66.3201 222.33 62.1801C222.33 58.5001 223.4 55.8601 225.54 54.2701C227.54 52.8001 230.13 52.0601 233.31 52.0601C234.67 52.0601 235.83 52.1201 236.8 52.2501C237.77 52.3801 238.75 52.6501 239.75 53.0601C240.75 53.4701 241.56 54.0401 242.17 54.7501C242.78 55.4601 243.28 56.4501 243.67 57.7001C244.06 58.9501 244.26 60.4501 244.26 62.1701C244.26 65.6701 243.27 68.3001 241.29 70.0601C239.31 71.8201 236.65 72.7001 233.31 72.7001L233.3 72.7101ZM232.09 65.9801C232.25 66.8101 232.42 67.3001 232.59 67.4601C232.76 67.6201 232.99 67.7001 233.28 67.7001C233.57 67.7001 233.8 67.6201 233.97 67.4601C234.14 67.3001 234.3 66.8001 234.45 65.9801C234.6 65.1501 234.67 64.1101 234.67 62.8601C234.67 61.6101 234.64 60.6401 234.58 59.9601C234.52 59.2801 234.45 58.7601 234.37 58.3901C234.29 58.0201 234.18 57.7301 234.04 57.5301C233.83 57.2301 233.59 57.0801 233.3 57.0801C233.01 57.0801 232.78 57.1701 232.59 57.3401C232.41 57.5101 232.23 58.0201 232.07 58.8601C231.91 59.7001 231.83 60.8901 231.83 62.4301C231.83 63.9701 231.91 65.1601 232.07 65.9901L232.09 65.9801Z" fill="#CF3700"/>
<path d="M277.77 61V71.57C277.77 71.82 277.12 72.03 275.82 72.17C274.52 72.32 273.17 72.39 271.78 72.39C270.39 72.39 269.48 72.33 269.07 72.2C268.66 72.07 268.45 71.86 268.45 71.56V62C268.45 58.71 268.12 57.06 267.45 57.06C267.29 57.06 267.13 57.13 266.97 57.27C266.81 57.41 266.73 57.65 266.73 58V71.57C266.73 71.82 266.08 72.03 264.78 72.17C263.48 72.32 262.13 72.39 260.72 72.39C259.31 72.39 258.41 72.33 258.01 72.2C257.61 72.07 257.41 71.86 257.41 71.56V62C257.41 59.44 257.25 57.91 256.93 57.41C256.77 57.18 256.56 57.06 256.31 57.06C255.87 57.06 255.65 57.37 255.65 57.99V71.56C255.65 71.81 254.99 72.02 253.68 72.16C252.37 72.31 251.01 72.38 249.62 72.38C248.23 72.38 247.33 72.32 246.93 72.19C246.53 72.06 246.33 71.85 246.33 71.55V54.53C246.33 54.05 246.99 53.56 248.32 53.08C249.64 52.6 251.04 52.35 252.52 52.35C254 52.35 254.82 52.78 255.01 53.63L255.32 55.15H255.56C256.23 53.84 257.33 52.91 258.87 52.35C259.51 52.14 260.34 52.04 261.36 52.04C263.38 52.04 264.86 53.08 265.78 55.15C266.08 54.46 266.83 53.77 268.02 53.08C269.21 52.39 270.54 52.04 271.99 52.04C274.27 52.04 275.81 52.75 276.6 54.16C277.39 55.57 277.79 57.85 277.79 60.98L277.77 61Z" fill="#CF3700"/>
<path d="M284.99 45.47C286.51 45.47 287.7 45.69 288.56 46.14C289.42 46.59 289.85 47.4 289.85 48.57C289.85 50.64 288.24 51.68 285.02 51.68C281.8 51.68 280.19 50.64 280.19 48.57C280.19 46.5 281.79 45.46 284.99 45.46V45.47ZM289.68 54.55V71.57C289.68 71.82 289.02 72.03 287.69 72.17C286.37 72.32 285.01 72.39 283.62 72.39C282.23 72.39 281.33 72.33 280.93 72.2C280.53 72.07 280.33 71.86 280.33 71.56V55.16C280.33 54.65 280.98 54.15 282.28 53.66C283.58 53.17 285 52.92 286.54 52.92C288.63 52.92 289.68 53.46 289.68 54.54V54.55Z" fill="#CF3700"/>
<path d="M313.1 60.9298V71.5698C313.1 71.8198 312.44 72.0298 311.13 72.1698C309.82 72.3198 308.46 72.3898 307.07 72.3898C305.68 72.3898 304.78 72.3298 304.38 72.1998C303.98 72.0698 303.78 71.8598 303.78 71.5598V60.5798C303.78 59.5398 303.74 58.8698 303.66 58.5398C303.58 58.2198 303.5 57.9298 303.44 57.6798C303.28 57.2398 302.99 57.0198 302.58 57.0198C301.94 57.0198 301.61 57.3298 301.61 57.9498V71.5498C301.61 71.7998 300.96 72.0098 299.66 72.1498C298.36 72.2998 297.01 72.3698 295.62 72.3698C294.23 72.3698 293.32 72.3098 292.91 72.1798C292.5 72.0498 292.29 71.8398 292.29 71.5398V54.5198C292.29 54.0398 292.95 53.5498 294.28 53.0698C295.61 52.5898 297 52.3398 298.48 52.3398C299.96 52.3398 300.78 52.7698 300.97 53.6198L301.28 55.1398H301.52C302.19 53.8098 303.34 52.8698 304.97 52.3398C305.64 52.1298 306.37 52.0298 307.18 52.0298C309.51 52.0298 311.08 52.7298 311.89 54.1198C312.71 55.5098 313.12 57.7698 313.12 60.9098L313.1 60.9298Z" fill="#CF3700"/>
<path d="M327.05 70.1198V68.1198H326.77C326.68 68.2398 326.52 68.3798 326.29 68.5498C326.06 68.7198 325.49 68.9598 324.58 69.2598C323.67 69.5598 322.65 69.7098 321.51 69.7098C320.37 69.7098 319.41 69.5398 318.63 69.1898C317.85 68.8398 317.24 68.4098 316.8 67.8998C316.36 67.3898 316.02 66.6898 315.76 65.8098C315.37 64.4498 315.17 62.6098 315.17 60.2898C315.17 57.6198 315.73 55.5698 316.86 54.1398C317.3 53.5698 317.95 53.0798 318.81 52.6698C319.67 52.2698 320.6 52.0698 321.59 52.0698C322.58 52.0698 323.4 52.1798 324.04 52.3998C324.68 52.6198 325.17 52.8798 325.49 53.1798C326.13 53.8198 326.5 54.3898 326.59 54.8698L326.62 55.1798H326.9L327.21 53.8298C327.44 52.8598 329.26 52.3798 332.67 52.3798C334.19 52.3798 335.11 52.6098 335.43 53.0698C335.61 53.3498 335.73 53.6098 335.78 53.8498C335.83 54.0898 335.85 54.4498 335.85 54.9398V69.4098C335.85 72.1298 334.96 74.1998 333.19 75.6298C331.42 77.0598 328.82 77.7698 325.39 77.7698C321.75 77.7698 319.28 77.4098 317.97 76.6998C317.39 76.3798 317.11 76.0398 317.11 75.6998C317.11 75.1498 317.33 74.2198 317.78 72.8998C318.23 71.5898 318.65 70.9298 319.04 70.9298C319.13 70.9298 319.45 71.0098 320.01 71.1698C321.76 71.6298 323.18 71.8598 324.27 71.8598C325.36 71.8598 326.1 71.7198 326.48 71.4498C326.86 71.1698 327.05 70.7398 327.05 70.1398V70.1198ZM325.66 65.7698C325.91 65.7698 326.12 65.6798 326.28 65.4898C326.44 65.3098 326.52 65.0998 326.52 64.8698V57.7598C326.43 57.2798 326.17 57.0298 325.76 57.0298C324.88 57.0298 324.45 58.4698 324.45 61.3498C324.45 62.6898 324.56 63.7598 324.78 64.5598C325 65.3698 325.29 65.7698 325.66 65.7698Z" fill="#CF3700"/>
<path d="M340.1 47.6199C341.44 47.4699 343 47.3999 344.8 47.3999C346.6 47.3999 347.49 47.6699 347.49 48.1899C347.49 48.8599 347.28 54.4099 346.87 64.8299C346.85 65.4099 346.43 65.9199 345.63 66.3799C344.82 66.8399 343.68 67.0699 342.21 67.0699C340.21 67.0699 339.16 66.5299 339.07 65.4499L338.14 48.2199C338.12 47.9699 338.77 47.7699 340.11 47.6199H340.1ZM345.99 74.5199C345.24 74.9699 344.19 75.1899 342.85 75.1899C341.51 75.1899 340.47 74.9899 339.76 74.5899C339.05 74.1899 338.69 73.3499 338.69 72.0899C338.69 70.0199 340.09 68.9799 342.9 68.9799C345.71 68.9799 347.11 70.0199 347.11 72.0899C347.11 73.2599 346.74 74.0799 345.99 74.5199Z" fill="#CF3700"/>
</g>
<path d="M61.1499 26.7102C59.7299 26.8602 58.3199 26.9302 56.8999 26.9302C55.4799 26.9302 54.5899 26.8702 54.2099 26.7402C53.8299 26.6102 53.6399 26.4002 53.6399 26.1002V11.2502H48.8399C48.5899 11.2502 48.3699 10.9302 48.1799 10.2802C47.9999 9.64016 47.8999 8.67016 47.8999 7.40016C47.8999 6.13016 48.0399 4.97016 48.3099 3.95016C48.5899 2.93016 48.9499 2.41016 49.4099 2.41016H68.0899C68.4399 2.41016 68.6699 2.73016 68.7999 3.38016C68.9299 4.02016 68.9899 4.96016 68.9899 6.18016C68.9899 7.40016 68.8599 8.55016 68.6099 9.63016C68.3599 10.7102 68.0099 11.2502 67.5699 11.2502H63.2499V26.1002C63.2499 26.3502 62.5399 26.5602 61.1299 26.7002L61.1499 26.7102Z" fill="#FBFFB3"/>
<path d="M82.1301 26.1V16.5C82.1301 14.77 82.0602 13.52 81.9202 12.74C81.7802 11.96 81.4502 11.57 80.9202 11.57C80.4602 11.57 80.2302 11.88 80.2302 12.5V26.1C80.2302 26.35 79.5602 26.56 78.2302 26.7C76.8902 26.85 75.5202 26.92 74.1202 26.92C72.7202 26.92 71.8302 26.86 71.4602 26.73C71.0902 26.6 70.9102 26.39 70.9102 26.09V2.18C70.9102 1.7 71.5802 1.21 72.9102 0.73C74.2402 0.25 75.6502 0 77.1202 0C78.5902 0 79.6402 0.29 80.0502 0.86C80.1902 1.04 80.2602 1.24 80.2602 1.45V6.53L79.8801 8.91H80.1202C80.4402 8.43 80.9502 8 81.6402 7.63C82.9302 6.94 84.3302 6.59 85.8502 6.59C88.0402 6.59 89.5202 7.29 90.2902 8.68C91.0602 10.07 91.4501 12.33 91.4501 15.47V26.11C91.4501 26.36 90.7802 26.57 89.4302 26.71C88.0802 26.86 86.7102 26.93 85.3202 26.93C83.9302 26.93 83.0502 26.87 82.6802 26.74C82.3102 26.61 82.1301 26.4 82.1301 26.1Z" fill="#FBFFB3"/>
<path d="M102.95 19.1301C102.95 20.6301 103.66 21.3701 105.09 21.3701C105.92 21.3701 107 21.0901 108.34 20.5201C109.67 19.9601 110.38 19.6701 110.45 19.6701C110.89 19.6701 111.46 20.3301 112.18 21.6401C112.89 22.9501 113.25 23.9201 113.25 24.5401C113.25 25.4401 112.33 26.1201 110.49 26.5801C108.65 27.0401 106.85 27.2701 105.09 27.2701C103.33 27.2701 101.86 27.1301 100.67 26.8601C99.4798 26.5801 98.5198 26.2301 97.7698 25.8101C97.0198 25.3801 96.3698 24.8601 95.7998 24.2401C95.2398 23.6201 94.8198 23.0301 94.5398 22.4601C94.2598 21.8901 94.0398 21.2701 93.8798 20.5801C93.6498 19.5701 93.5298 18.5201 93.5298 17.4401C93.5298 13.2501 94.6198 10.3601 96.8098 8.7701C97.8898 7.9601 99.0998 7.4001 100.44 7.0801C101.77 6.7601 103.35 6.6001 105.17 6.6001C110.99 6.6001 113.91 8.6301 113.91 12.6801C113.91 16.9901 110.64 19.1401 104.1 19.1401H102.96L102.95 19.1301ZM102.88 14.0901V16.3701C103.55 16.3701 104.09 16.1101 104.52 15.5801C104.95 15.0501 105.16 14.4101 105.16 13.6501C105.16 12.2701 104.8 11.5801 104.09 11.5801C103.28 11.5801 102.88 12.4201 102.88 14.1001V14.0901Z" fill="#FBFFB3"/>
<path d="M133.13 27.24C129.31 27.24 126.51 26.87 124.74 26.14C123.84 25.75 123.39 25.37 123.39 25C123.39 24.06 123.67 22.95 124.22 21.69C124.77 20.42 125.26 19.79 125.67 19.79C125.9 19.79 126.68 20.04 128 20.55C129.32 21.06 130.44 21.31 131.35 21.31C132.26 21.31 132.86 21.25 133.15 21.14C133.44 21.03 133.58 20.8 133.58 20.47C133.58 20.14 133.35 19.87 132.89 19.68C132.43 19.48 131.85 19.35 131.16 19.28C130.47 19.21 129.73 19.07 128.93 18.87C128.13 18.67 127.39 18.4 126.7 18.08C126.01 17.76 125.43 17.22 124.97 16.47C124.51 15.72 124.28 14.92 124.28 14.05C124.28 13.18 124.3 12.54 124.35 12.12C124.4 11.69 124.59 11.1 124.92 10.32C125.25 9.54004 125.73 8.92004 126.34 8.44004C126.95 7.96004 127.89 7.52004 129.17 7.13004C130.45 6.74004 131.88 6.54004 133.47 6.54004C135.06 6.54004 136.39 6.59004 137.46 6.70004C138.53 6.81004 139.37 6.94004 139.98 7.10004C140.59 7.26004 141.09 7.45004 141.48 7.65004C142.15 8.00004 142.48 8.38004 142.48 8.79004C142.48 9.69004 142.16 10.72 141.51 11.9C140.87 13.07 140.35 13.66 139.97 13.66C139.59 13.66 138.77 13.46 137.5 13.06C136.23 12.66 135.3 12.46 134.7 12.46C133.73 12.46 133.25 12.74 133.25 13.29C133.25 13.64 133.58 13.89 134.23 14.07C134.88 14.25 135.67 14.42 136.6 14.61C137.52 14.79 138.45 15.05 139.38 15.39C140.31 15.72 141.11 16.33 141.76 17.2C142.42 18.08 142.74 19.18 142.74 20.52C142.74 25.03 139.53 27.29 133.11 27.29L133.13 27.24Z" fill="#FBFFB3"/>
<path d="M171.04 26.0999C170.74 26.6499 169.18 26.9299 166.36 26.9299C163.54 26.9299 162.07 26.6499 161.96 26.0999L160.79 19.8199H160.31L159.21 26.0999C159.14 26.6499 157.13 26.9299 153.17 26.9299C152.07 26.9299 151.33 26.8699 150.98 26.7399C150.62 26.6099 150.38 26.3999 150.24 26.0999C145.96 15.5799 143.82 10.0399 143.82 9.4899C143.82 8.9399 144.65 8.3699 146.32 7.7799C147.99 7.1899 149.59 6.8999 151.14 6.8999C153.12 6.8999 154.14 7.4299 154.21 8.4899L155.38 17.9499H155.79L156.2 10.3199C156.22 9.7499 156.81 9.2399 157.96 8.7999C159.11 8.3599 160.27 8.1399 161.45 8.1399C162.63 8.1399 163.5 8.2799 164.09 8.5699C164.68 8.8599 164.98 9.2099 165 9.6199L165.38 17.9399H165.76L166.9 9.0699C166.97 8.5199 167.75 8.0199 169.23 7.5699C170.71 7.1199 172.02 6.8999 173.15 6.8999C174.28 6.8999 175.16 7.0599 175.81 7.3799C176.87 7.8899 177.4 8.4799 177.4 9.1799C177.4 9.2499 176.36 12.0599 174.28 17.6099C172.2 23.1599 171.12 25.9899 171.05 26.0999H171.04Z" fill="#FBFFB3"/>
<path d="M187.86 19.1301C187.86 20.6301 188.57 21.3701 190 21.3701C190.83 21.3701 191.91 21.0901 193.25 20.5201C194.58 19.9601 195.29 19.6701 195.36 19.6701C195.8 19.6701 196.37 20.3301 197.09 21.6401C197.8 22.9501 198.16 23.9201 198.16 24.5401C198.16 25.4401 197.24 26.1201 195.4 26.5801C193.56 27.0401 191.76 27.2701 190 27.2701C188.24 27.2701 186.77 27.1301 185.58 26.8601C184.39 26.5801 183.43 26.2301 182.68 25.8101C181.93 25.3801 181.28 24.8601 180.71 24.2401C180.15 23.6201 179.73 23.0301 179.45 22.4601C179.17 21.8901 178.95 21.2701 178.79 20.5801C178.56 19.5701 178.44 18.5201 178.44 17.4401C178.44 13.2501 179.53 10.3601 181.72 8.7701C182.8 7.9601 184.01 7.4001 185.35 7.0801C186.68 6.7601 188.26 6.6001 190.08 6.6001C195.9 6.6001 198.82 8.6301 198.82 12.6801C198.82 16.9901 195.55 19.1401 189.01 19.1401H187.87L187.86 19.1301ZM187.79 14.0901V16.3701C188.46 16.3701 189 16.1101 189.43 15.5801C189.86 15.0501 190.07 14.4101 190.07 13.6501C190.07 12.2701 189.71 11.5801 189 11.5801C188.19 11.5801 187.79 12.4201 187.79 14.1001V14.0901Z" fill="#FBFFB3"/>
<path d="M209.96 19.1301C209.96 20.6301 210.67 21.3701 212.1 21.3701C212.93 21.3701 214.01 21.0901 215.35 20.5201C216.68 19.9601 217.39 19.6701 217.46 19.6701C217.9 19.6701 218.47 20.3301 219.19 21.6401C219.9 22.9501 220.26 23.9201 220.26 24.5401C220.26 25.4401 219.34 26.1201 217.5 26.5801C215.66 27.0401 213.86 27.2701 212.1 27.2701C210.34 27.2701 208.87 27.1301 207.68 26.8601C206.49 26.5801 205.53 26.2301 204.78 25.8101C204.03 25.3801 203.38 24.8601 202.81 24.2401C202.25 23.6201 201.83 23.0301 201.55 22.4601C201.27 21.9001 201.05 21.2701 200.89 20.5801C200.66 19.5701 200.54 18.5201 200.54 17.4401C200.54 13.2501 201.63 10.3601 203.82 8.7701C204.9 7.9601 206.11 7.4001 207.45 7.0801C208.78 6.7601 210.36 6.6001 212.18 6.6001C218 6.6001 220.92 8.6301 220.92 12.6801C220.92 16.9901 217.65 19.1401 211.11 19.1401H209.97L209.96 19.1301ZM209.89 14.0901V16.3701C210.56 16.3701 211.1 16.1101 211.53 15.5801C211.96 15.0501 212.17 14.4101 212.17 13.6501C212.17 12.2701 211.81 11.5801 211.1 11.5801C210.29 11.5801 209.89 12.4201 209.89 14.1001V14.0901Z" fill="#FBFFB3"/>
<path d="M236.55 26.6198C236.14 27.0098 235.19 27.2098 233.72 27.2098C232.25 27.2098 231.03 27.1098 230.06 26.9198C229.09 26.7198 228.17 26.3398 227.3 25.7598C225.62 24.6298 224.78 22.2798 224.78 18.7198V13.3298H223.05C222.8 13.3298 222.58 13.0698 222.39 12.5398C222.2 12.0098 222.11 11.2898 222.11 10.3598C222.11 9.4298 222.25 8.6298 222.54 7.9298C222.83 7.2298 223.2 6.8798 223.66 6.8798H224.77V2.6898C224.77 1.9798 225.47 1.3998 226.86 0.959805C228.25 0.519805 229.62 0.299805 230.95 0.299805C233.04 0.299805 234.09 0.819805 234.09 1.8498V6.8598H236.65C237.25 6.8598 237.55 7.7198 237.55 9.4498C237.55 10.5798 237.42 11.4998 237.15 12.2298C236.88 12.9598 236.55 13.3198 236.13 13.3198H234.09V19.6398C234.09 20.2598 234.35 20.7098 234.88 20.9698C235.41 21.2298 235.88 21.3698 236.28 21.3698C236.68 21.3698 236.93 21.5698 237.02 21.9598C237.11 22.3498 237.16 22.9398 237.16 23.7198C237.16 25.2598 236.95 26.2298 236.54 26.6198H236.55Z" fill="#FBFFB3"/>
<path d="M248.7 19.1301C248.7 20.6301 249.41 21.3701 250.84 21.3701C251.67 21.3701 252.75 21.0901 254.09 20.5201C255.42 19.9601 256.13 19.6701 256.2 19.6701C256.64 19.6701 257.21 20.3301 257.93 21.6401C258.64 22.9501 259 23.9201 259 24.5401C259 25.4401 258.08 26.1201 256.24 26.5801C254.4 27.0401 252.6 27.2701 250.84 27.2701C249.08 27.2701 247.61 27.1301 246.42 26.8601C245.23 26.5801 244.27 26.2301 243.52 25.8101C242.77 25.3801 242.12 24.8601 241.55 24.2401C240.99 23.6201 240.57 23.0301 240.29 22.4601C240.01 21.9001 239.79 21.2701 239.63 20.5801C239.4 19.5701 239.28 18.5201 239.28 17.4401C239.28 13.2501 240.37 10.3601 242.56 8.7701C243.64 7.9601 244.85 7.4001 246.19 7.0801C247.52 6.7601 249.1 6.6001 250.92 6.6001C256.74 6.6001 259.66 8.6301 259.66 12.6801C259.66 16.9901 256.39 19.1401 249.85 19.1401H248.71L248.7 19.1301ZM248.63 14.0901V16.3701C249.3 16.3701 249.84 16.1101 250.27 15.5801C250.7 15.0501 250.91 14.4101 250.91 13.6501C250.91 12.2701 250.55 11.5801 249.84 11.5801C249.03 11.5801 248.63 12.4201 248.63 14.1001V14.0901Z" fill="#FBFFB3"/>
<path d="M271.11 27.24C267.29 27.24 264.49 26.87 262.72 26.14C261.82 25.75 261.37 25.37 261.37 25C261.37 24.06 261.65 22.95 262.2 21.69C262.75 20.42 263.24 19.79 263.65 19.79C263.88 19.79 264.66 20.04 265.98 20.55C267.3 21.06 268.42 21.31 269.33 21.31C270.24 21.31 270.84 21.25 271.13 21.14C271.42 21.03 271.56 20.8 271.56 20.47C271.56 20.14 271.33 19.87 270.87 19.68C270.41 19.48 269.83 19.35 269.14 19.28C268.45 19.21 267.71 19.07 266.91 18.87C266.11 18.67 265.37 18.4 264.68 18.08C263.99 17.76 263.41 17.22 262.95 16.47C262.49 15.72 262.26 14.92 262.26 14.05C262.26 13.18 262.28 12.54 262.33 12.12C262.38 11.69 262.57 11.1 262.9 10.32C263.23 9.54004 263.71 8.92004 264.32 8.44004C264.93 7.96004 265.87 7.52004 267.15 7.13004C268.43 6.74004 269.86 6.54004 271.45 6.54004C273.04 6.54004 274.37 6.59004 275.44 6.70004C276.51 6.81004 277.35 6.94004 277.96 7.10004C278.57 7.26004 279.07 7.45004 279.46 7.65004C280.13 8.00004 280.46 8.38004 280.46 8.79004C280.46 9.69004 280.14 10.72 279.49 11.9C278.85 13.07 278.33 13.66 277.95 13.66C277.57 13.66 276.75 13.46 275.48 13.06C274.21 12.66 273.28 12.46 272.68 12.46C271.71 12.46 271.23 12.74 271.23 13.29C271.23 13.64 271.56 13.89 272.21 14.07C272.86 14.25 273.65 14.42 274.58 14.61C275.5 14.79 276.43 15.05 277.36 15.39C278.29 15.72 279.09 16.33 279.74 17.2C280.4 18.08 280.72 19.18 280.72 20.52C280.72 25.03 277.51 27.29 271.09 27.29L271.11 27.24Z" fill="#FBFFB3"/>
<path d="M296.39 26.6198C295.98 27.0098 295.03 27.2098 293.56 27.2098C292.09 27.2098 290.87 27.1098 289.9 26.9198C288.93 26.7198 288.01 26.3398 287.14 25.7598C285.46 24.6298 284.62 22.2798 284.62 18.7198V13.3298H282.89C282.64 13.3298 282.42 13.0698 282.23 12.5398C282.05 12.0098 281.95 11.2898 281.95 10.3598C281.95 9.4298 282.09 8.6298 282.38 7.9298C282.67 7.2298 283.04 6.8798 283.5 6.8798H284.6V2.6898C284.6 1.9798 285.3 1.3998 286.69 0.959805C288.08 0.519805 289.45 0.299805 290.78 0.299805C292.87 0.299805 293.92 0.819805 293.92 1.8498V6.8598H296.47C297.07 6.8598 297.37 7.7198 297.37 9.4498C297.37 10.5798 297.24 11.4998 296.97 12.2298C296.71 12.9598 296.37 13.3198 295.95 13.3198H293.91V19.6398C293.91 20.2598 294.17 20.7098 294.7 20.9698C295.23 21.2298 295.7 21.3698 296.1 21.3698C296.5 21.3698 296.75 21.5698 296.84 21.9598C296.93 22.3498 296.98 22.9398 296.98 23.7198C296.98 25.2598 296.77 26.2298 296.36 26.6198H296.39Z" fill="#FBFFB3"/>
<path d="M27.24 67.5398C26.94 68.0898 25.38 68.3698 22.56 68.3698C19.74 68.3698 18.27 68.0898 18.16 67.5398L16.99 61.2598H16.51L15.41 67.5398C15.34 68.0898 13.33 68.3698 9.37 68.3698C8.27 68.3698 7.53 68.3098 7.18 68.1798C6.82 68.0498 6.58 67.8398 6.44 67.5398C2.14 57.0198 0 51.4798 0 50.9298C0 50.3798 0.83 49.8098 2.5 49.2198C4.17 48.6298 5.77 48.3398 7.32 48.3398C9.3 48.3398 10.32 48.8698 10.39 49.9298L11.56 59.3898H11.97L12.38 51.7598C12.4 51.1898 12.99 50.6798 14.14 50.2398C15.29 49.7998 16.45 49.5798 17.63 49.5798C18.81 49.5798 19.68 49.7198 20.27 50.0098C20.86 50.2998 21.16 50.6498 21.19 51.0598L21.57 59.3798H21.95L23.09 50.5098C23.16 49.9598 23.94 49.4598 25.42 49.0098C26.9 48.5598 28.21 48.3398 29.34 48.3398C30.47 48.3398 31.35 48.4998 32 48.8198C33.06 49.3298 33.59 49.9198 33.59 50.6198C33.59 50.6898 32.55 53.4998 30.46 59.0498C28.38 64.5998 27.3 67.4298 27.23 67.5398H27.24Z" fill="#FBFFB3"/>
<path d="M44.0601 60.57C44.0601 62.07 44.7701 62.81 46.2001 62.81C47.0301 62.81 48.1101 62.53 49.4501 61.96C50.7801 61.4 51.4901 61.11 51.5601 61.11C52.0001 61.11 52.5701 61.77 53.2901 63.08C54.0001 64.39 54.3601 65.36 54.3601 65.98C54.3601 66.88 53.4401 67.56 51.6001 68.02C49.7601 68.48 47.9601 68.71 46.2001 68.71C44.4401 68.71 42.9701 68.57 41.7801 68.3C40.5901 68.02 39.6301 67.67 38.8801 67.25C38.1301 66.82 37.4801 66.3 36.9101 65.68C36.3501 65.06 35.9301 64.47 35.6501 63.9C35.3701 63.34 35.1501 62.71 34.9901 62.02C34.7601 61.01 34.6401 59.96 34.6401 58.88C34.6401 54.69 35.7301 51.8 37.9201 50.21C39.0001 49.4 40.2101 48.84 41.5501 48.52C42.8801 48.2 44.4601 48.04 46.2801 48.04C52.1001 48.04 55.0201 50.07 55.0201 54.12C55.0201 58.43 51.7501 60.58 45.2101 60.58H44.0701L44.0601 60.57ZM43.9901 55.52V57.8C44.6601 57.8 45.2001 57.54 45.6301 57.01C46.0601 56.48 46.2701 55.84 46.2701 55.08C46.2701 53.7 45.9101 53.01 45.2001 53.01C44.3901 53.01 43.9901 53.85 43.9901 55.53V55.52Z" fill="#FBFFB3"/>
<path d="M58.9801 68.03C57.7101 67.71 57.0801 67.22 57.0801 66.58V44.69C57.0801 44.18 57.7601 43.69 59.1201 43.21C60.4801 42.73 61.9101 42.48 63.4001 42.48C65.4301 42.48 66.4401 43.01 66.4401 44.07V47.97L66.0601 50.35H66.3401C66.4801 50.14 66.7401 49.89 67.1201 49.59C67.5001 49.29 67.9001 49.04 68.3101 48.83C69.3201 48.3 70.4401 48.04 71.6601 48.04C72.8801 48.04 73.8401 48.2 74.5401 48.51C75.2401 48.82 75.8101 49.22 76.2301 49.72C76.6501 50.22 76.9901 50.84 77.2501 51.6C77.6901 52.91 77.9101 54.55 77.9101 56.5C77.9101 59.75 77.5401 62.23 76.8101 63.96C76.0701 65.69 74.8801 66.91 73.2201 67.62C71.5601 68.33 69.2301 68.69 66.2101 68.69C63.1901 68.69 60.7901 68.47 58.9901 68.03H58.9801ZM66.4001 63.6H67.4701C68.2101 63.6 68.5701 61.83 68.5701 58.3C68.5701 54.77 68.1901 53 67.4301 53H66.3901V63.6H66.4001Z" fill="#FBFFB3"/>
<path d="M89.5398 68.68C85.7198 68.68 82.9198 68.31 81.1498 67.58C80.2498 67.19 79.7998 66.81 79.7998 66.44C79.7998 65.5 80.0798 64.39 80.6298 63.13C81.1798 61.86 81.6698 61.23 82.0798 61.23C82.3098 61.23 83.0898 61.48 84.4098 61.99C85.7298 62.5 86.8498 62.75 87.7598 62.75C88.6698 62.75 89.2698 62.69 89.5598 62.58C89.8498 62.47 89.9898 62.24 89.9898 61.91C89.9898 61.58 89.7598 61.31 89.2998 61.12C88.8398 60.92 88.2598 60.79 87.5698 60.72C86.8798 60.65 86.1398 60.51 85.3398 60.31C84.5398 60.11 83.7998 59.84 83.1098 59.52C82.4198 59.2 81.8398 58.66 81.3798 57.91C80.9198 57.16 80.6898 56.36 80.6898 55.49C80.6898 54.62 80.7098 53.98 80.7598 53.56C80.8098 53.13 80.9998 52.54 81.3298 51.76C81.6598 50.98 82.1398 50.36 82.7498 49.88C83.3598 49.4 84.2998 48.96 85.5798 48.57C86.8598 48.18 88.2898 47.98 89.8798 47.98C91.4698 47.98 92.7998 48.03 93.8698 48.14C94.9398 48.24 95.7798 48.38 96.3898 48.54C96.9998 48.7 97.4998 48.89 97.8898 49.09C98.5598 49.44 98.8898 49.82 98.8898 50.23C98.8898 51.13 98.5698 52.16 97.9198 53.34C97.2798 54.51 96.7598 55.1 96.3798 55.1C95.9998 55.1 95.1798 54.9 93.9098 54.5C92.6398 54.1 91.7098 53.9 91.1098 53.9C90.1398 53.9 89.6598 54.18 89.6598 54.73C89.6598 55.08 89.9898 55.33 90.6398 55.51C91.2898 55.69 92.0798 55.86 93.0098 56.05C93.9298 56.23 94.8598 56.49 95.7898 56.83C96.7198 57.16 97.5198 57.77 98.1698 58.64C98.8298 59.52 99.1498 60.62 99.1498 61.96C99.1498 66.47 95.9398 68.73 89.5198 68.73L89.5398 68.68Z" fill="#FBFFB3"/>
<path d="M106.04 41.4402C107.56 41.4402 108.75 41.6602 109.61 42.1102C110.47 42.5602 110.9 43.3702 110.9 44.5402C110.9 46.6102 109.29 47.6502 106.07 47.6502C102.85 47.6502 101.24 46.6102 101.24 44.5402C101.24 42.4702 102.84 41.4302 106.04 41.4302V41.4402ZM110.74 50.5202V67.5402C110.74 67.7902 110.08 68.0002 108.75 68.1402C107.43 68.2902 106.07 68.3602 104.68 68.3602C103.29 68.3602 102.39 68.3002 101.99 68.1702C101.59 68.0402 101.39 67.8302 101.39 67.5302V51.1302C101.39 50.6202 102.04 50.1202 103.34 49.6302C104.64 49.1402 106.06 48.8902 107.6 48.8902C109.69 48.8902 110.74 49.4302 110.74 50.5102V50.5202Z" fill="#FBFFB3"/>
<path d="M126.9 68.06C126.49 68.45 125.54 68.65 124.07 68.65C122.6 68.65 121.38 68.55 120.41 68.36C119.44 68.16 118.52 67.78 117.65 67.2C115.97 66.07 115.13 63.72 115.13 60.16V54.77H113.4C113.15 54.77 112.93 54.51 112.74 53.98C112.55 53.45 112.46 52.73 112.46 51.8C112.46 50.87 112.6 50.07 112.89 49.37C113.18 48.67 113.55 48.32 114.01 48.32H115.12V44.14C115.12 43.43 115.82 42.85 117.21 42.41C118.6 41.97 119.97 41.75 121.3 41.75C123.39 41.75 124.44 42.27 124.44 43.3V48.31H127C127.6 48.31 127.9 49.17 127.9 50.9C127.9 52.03 127.77 52.95 127.5 53.68C127.23 54.41 126.9 54.77 126.48 54.77H124.44V61.09C124.44 61.71 124.7 62.16 125.23 62.42C125.76 62.68 126.23 62.82 126.63 62.82C127.03 62.82 127.28 63.02 127.37 63.41C127.46 63.8 127.51 64.39 127.51 65.17C127.51 66.71 127.3 67.68 126.89 68.07L126.9 68.06Z" fill="#FBFFB3"/>
<path d="M139.05 60.57C139.05 62.07 139.76 62.81 141.19 62.81C142.02 62.81 143.1 62.53 144.44 61.96C145.77 61.4 146.48 61.11 146.55 61.11C146.99 61.11 147.56 61.77 148.28 63.08C148.99 64.39 149.35 65.36 149.35 65.98C149.35 66.88 148.43 67.56 146.59 68.02C144.75 68.48 142.95 68.71 141.19 68.71C139.43 68.71 137.96 68.57 136.77 68.3C135.58 68.02 134.62 67.67 133.87 67.25C133.12 66.82 132.47 66.3 131.9 65.68C131.34 65.06 130.92 64.47 130.64 63.9C130.36 63.34 130.14 62.71 129.98 62.02C129.75 61.01 129.63 59.96 129.63 58.88C129.63 54.69 130.72 51.8 132.91 50.21C133.99 49.4 135.2 48.84 136.54 48.52C137.87 48.2 139.45 48.04 141.27 48.04C147.09 48.04 150.01 50.07 150.01 54.12C150.01 58.43 146.74 60.58 140.2 60.58H139.06L139.05 60.57ZM138.98 55.52V57.8C139.65 57.8 140.19 57.54 140.62 57.01C141.05 56.48 141.26 55.84 141.26 55.08C141.26 53.7 140.9 53.01 140.19 53.01C139.38 53.01 138.98 53.85 138.98 55.53V55.52Z" fill="#FBFFB3"/>
<path d="M164.64 41.4402C166.16 41.4402 167.35 41.6602 168.21 42.1102C169.07 42.5602 169.5 43.3702 169.5 44.5402C169.5 46.6102 167.89 47.6502 164.67 47.6502C161.45 47.6502 159.84 46.6102 159.84 44.5402C159.84 42.4702 161.44 41.4302 164.64 41.4302V41.4402ZM169.34 50.5202V67.5402C169.34 67.7902 168.68 68.0002 167.35 68.1402C166.03 68.2902 164.67 68.3602 163.28 68.3602C161.89 68.3602 160.99 68.3002 160.59 68.1702C160.19 68.0402 159.99 67.8302 159.99 67.5302V51.1302C159.99 50.6202 160.64 50.1202 161.94 49.6302C163.24 49.1402 164.66 48.8902 166.2 48.8902C168.29 48.8902 169.34 49.4302 169.34 50.5102V50.5202Z" fill="#FBFFB3"/>
<path d="M181.32 68.68C177.5 68.68 174.7 68.31 172.93 67.58C172.03 67.19 171.58 66.81 171.58 66.44C171.58 65.5 171.86 64.39 172.41 63.13C172.96 61.86 173.45 61.23 173.86 61.23C174.09 61.23 174.87 61.48 176.19 61.99C177.51 62.5 178.63 62.75 179.54 62.75C180.45 62.75 181.05 62.69 181.34 62.58C181.63 62.47 181.77 62.24 181.77 61.91C181.77 61.58 181.54 61.31 181.08 61.12C180.62 60.92 180.04 60.79 179.35 60.72C178.66 60.65 177.92 60.51 177.12 60.31C176.32 60.11 175.58 59.84 174.89 59.52C174.2 59.2 173.62 58.66 173.16 57.91C172.7 57.16 172.47 56.36 172.47 55.49C172.47 54.62 172.49 53.98 172.54 53.56C172.59 53.13 172.78 52.54 173.11 51.76C173.44 50.98 173.92 50.36 174.53 49.88C175.14 49.4 176.08 48.96 177.36 48.57C178.64 48.18 180.07 47.98 181.66 47.98C183.25 47.98 184.58 48.03 185.65 48.14C186.72 48.24 187.56 48.38 188.17 48.54C188.78 48.7 189.28 48.89 189.67 49.09C190.34 49.44 190.67 49.82 190.67 50.23C190.67 51.13 190.35 52.16 189.7 53.34C189.06 54.51 188.54 55.1 188.16 55.1C187.78 55.1 186.96 54.9 185.69 54.5C184.42 54.1 183.49 53.9 182.89 53.9C181.92 53.9 181.44 54.18 181.44 54.73C181.44 55.08 181.77 55.33 182.42 55.51C183.07 55.69 183.86 55.86 184.79 56.05C185.71 56.23 186.64 56.49 187.57 56.83C188.5 57.16 189.3 57.77 189.95 58.64C190.61 59.52 190.93 60.62 190.93 61.96C190.93 66.47 187.72 68.73 181.3 68.73L181.32 68.68Z" fill="#FBFFB3"/>
<path d="M205.25 67.7798C204.7 67.5298 204.1 67.1498 203.47 66.6398C202.84 66.1298 202.31 65.5398 201.9 64.8398C200.93 63.1798 200.45 61.0198 200.45 58.3498C200.45 56.6898 200.71 55.2098 201.24 53.9098C201.77 52.6098 202.41 51.5998 203.17 50.8898C203.93 50.1798 204.8 49.5898 205.79 49.1298C207.38 48.3898 208.97 48.0298 210.56 48.0298C213.23 48.0298 215.09 48.2398 216.14 48.6498C217.19 49.0598 217.71 49.7698 217.71 50.7598C217.71 51.7498 217.53 52.7998 217.17 53.9198C216.81 55.0398 216.35 55.5898 215.77 55.5898C215.59 55.5898 215.03 55.3898 214.1 54.9998C213.17 54.6098 212.36 54.4098 211.68 54.4098C211 54.4098 210.48 54.6798 210.13 55.2198C209.77 55.7598 209.59 56.8098 209.59 58.3598C209.59 59.9098 209.75 60.9698 210.07 61.5398C210.39 62.0998 210.89 62.3898 211.57 62.3898C212.25 62.3898 213.09 62.1598 214.11 61.6998C215.12 61.2398 215.69 61.0098 215.8 61.0098C216.24 61.0098 216.66 61.5298 217.06 62.5598C217.46 63.5998 217.66 64.5198 217.66 65.3198C217.66 66.5598 217.02 67.4298 215.73 67.9298C214.44 68.4298 212.7 68.6698 210.5 68.6698C208.3 68.6698 206.55 68.3698 205.23 67.7698L205.25 67.7798Z" fill="#FBFFB3"/>
<path d="M230.42 68.6798C228.69 68.6798 227.21 68.5298 225.97 68.2298C224.73 67.9298 223.6 67.3998 222.59 66.6398C220.49 65.1198 219.45 62.2898 219.45 58.1498C219.45 54.4698 220.52 51.8298 222.66 50.2398C224.66 48.7698 227.25 48.0298 230.43 48.0298C231.79 48.0298 232.95 48.0898 233.92 48.2198C234.89 48.3498 235.87 48.6198 236.87 49.0298C237.87 49.4398 238.68 50.0098 239.29 50.7198C239.9 51.4298 240.4 52.4198 240.79 53.6698C241.18 54.9198 241.38 56.4198 241.38 58.1398C241.38 61.6398 240.39 64.2698 238.41 66.0298C236.43 67.7898 233.77 68.6698 230.43 68.6698L230.42 68.6798ZM229.21 61.9498C229.37 62.7798 229.54 63.2698 229.71 63.4298C229.88 63.5898 230.11 63.6698 230.4 63.6698C230.69 63.6698 230.92 63.5898 231.09 63.4298C231.26 63.2698 231.42 62.7698 231.57 61.9498C231.72 61.1198 231.79 60.0798 231.79 58.8298C231.79 57.5798 231.76 56.6098 231.7 55.9298C231.64 55.2498 231.57 54.7298 231.49 54.3598C231.41 53.9898 231.3 53.6998 231.16 53.4998C230.95 53.1998 230.71 53.0498 230.42 53.0498C230.13 53.0498 229.9 53.1398 229.71 53.3098C229.53 53.4798 229.35 53.9898 229.19 54.8298C229.03 55.6698 228.95 56.8598 228.95 58.3998C228.95 59.9398 229.03 61.1298 229.19 61.9598L229.21 61.9498Z" fill="#FBFFB3"/>
<path d="M274.89 56.98V67.55C274.89 67.8 274.24 68.01 272.94 68.15C271.64 68.3 270.29 68.37 268.9 68.37C267.51 68.37 266.6 68.31 266.19 68.18C265.78 68.05 265.57 67.84 265.57 67.54V57.98C265.57 54.69 265.24 53.04 264.57 53.04C264.41 53.04 264.25 53.11 264.09 53.25C263.93 53.39 263.85 53.63 263.85 53.98V67.55C263.85 67.8 263.2 68.01 261.9 68.15C260.6 68.3 259.25 68.37 257.84 68.37C256.43 68.37 255.53 68.31 255.13 68.18C254.73 68.05 254.53 67.84 254.53 67.54V57.98C254.53 55.42 254.37 53.89 254.05 53.39C253.89 53.16 253.68 53.04 253.43 53.04C252.99 53.04 252.77 53.35 252.77 53.97V67.54C252.77 67.79 252.11 68 250.8 68.14C249.49 68.29 248.13 68.36 246.74 68.36C245.35 68.36 244.45 68.3 244.05 68.17C243.65 68.04 243.45 67.83 243.45 67.53V50.51C243.45 50.03 244.11 49.54 245.44 49.06C246.76 48.58 248.16 48.33 249.64 48.33C251.12 48.33 251.94 48.76 252.13 49.61L252.44 51.13H252.68C253.35 49.82 254.45 48.89 255.99 48.33C256.63 48.12 257.46 48.02 258.48 48.02C260.5 48.02 261.98 49.06 262.9 51.13C263.2 50.44 263.95 49.75 265.14 49.06C266.33 48.37 267.66 48.02 269.11 48.02C271.39 48.02 272.93 48.73 273.72 50.14C274.51 51.56 274.91 53.83 274.91 56.96L274.89 56.98Z" fill="#FBFFB3"/>
<path d="M282.11 41.4402C283.63 41.4402 284.82 41.6602 285.68 42.1102C286.54 42.5602 286.97 43.3702 286.97 44.5402C286.97 46.6102 285.36 47.6502 282.14 47.6502C278.92 47.6502 277.31 46.6102 277.31 44.5402C277.31 42.4702 278.91 41.4302 282.11 41.4302V41.4402ZM286.81 50.5202V67.5402C286.81 67.7902 286.15 68.0002 284.82 68.1402C283.5 68.2902 282.14 68.3602 280.75 68.3602C279.36 68.3602 278.46 68.3002 278.06 68.1702C277.66 68.0402 277.46 67.8302 277.46 67.5302V51.1302C277.46 50.6202 278.11 50.1202 279.41 49.6302C280.71 49.1402 282.13 48.8902 283.67 48.8902C285.76 48.8902 286.81 49.4302 286.81 50.5102V50.5202Z" fill="#FBFFB3"/>
<path d="M310.22 56.9098V67.5498C310.22 67.7998 309.56 68.0098 308.25 68.1498C306.94 68.2998 305.58 68.3698 304.19 68.3698C302.8 68.3698 301.9 68.3098 301.5 68.1798C301.1 68.0498 300.9 67.8398 300.9 67.5398V56.5598C300.9 55.5198 300.86 54.8498 300.78 54.5198C300.7 54.1998 300.62 53.9098 300.56 53.6598C300.4 53.2198 300.11 52.9998 299.7 52.9998C299.06 52.9998 298.73 53.3098 298.73 53.9298V67.5298C298.73 67.7798 298.08 67.9898 296.78 68.1298C295.48 68.2798 294.13 68.3498 292.74 68.3498C291.35 68.3498 290.44 68.2898 290.03 68.1598C289.62 68.0298 289.41 67.8198 289.41 67.5198V50.4998C289.41 50.0198 290.07 49.5298 291.4 49.0498C292.73 48.5698 294.12 48.3198 295.6 48.3198C297.08 48.3198 297.9 48.7498 298.09 49.5998L298.4 51.1198H298.64C299.31 49.7898 300.46 48.8498 302.09 48.3198C302.76 48.1098 303.49 48.0098 304.3 48.0098C306.63 48.0098 308.2 48.7098 309.01 50.0998C309.83 51.4898 310.24 53.7498 310.24 56.8898L310.22 56.9098Z" fill="#FBFFB3"/>
<path d="M324.17 66.09V64.09H323.89C323.8 64.21 323.64 64.35 323.41 64.52C323.18 64.69 322.61 64.93 321.7 65.23C320.79 65.53 319.77 65.68 318.63 65.68C317.49 65.68 316.53 65.51 315.75 65.16C314.97 64.81 314.36 64.38 313.92 63.87C313.48 63.36 313.14 62.66 312.88 61.78C312.49 60.42 312.29 58.58 312.29 56.26C312.29 53.59 312.85 51.54 313.98 50.11C314.42 49.54 315.07 49.05 315.93 48.64C316.79 48.24 317.72 48.04 318.71 48.04C319.7 48.04 320.52 48.15 321.16 48.37C321.8 48.59 322.29 48.85 322.61 49.15C323.25 49.79 323.62 50.36 323.71 50.84L323.74 51.15H324.02L324.33 49.8C324.56 48.83 326.38 48.35 329.79 48.35C331.31 48.35 332.23 48.58 332.55 49.04C332.73 49.32 332.85 49.58 332.9 49.82C332.95 50.06 332.97 50.42 332.97 50.91V65.38C332.97 68.1 332.08 70.17 330.31 71.6C328.54 73.03 325.94 73.74 322.51 73.74C318.87 73.74 316.4 73.38 315.09 72.67C314.51 72.35 314.23 72.01 314.23 71.67C314.23 71.12 314.45 70.19 314.9 68.87C315.35 67.56 315.77 66.9 316.16 66.9C316.25 66.9 316.57 66.98 317.13 67.14C318.88 67.6 320.3 67.83 321.39 67.83C322.48 67.83 323.22 67.69 323.6 67.42C323.98 67.14 324.17 66.71 324.17 66.11V66.09ZM322.79 61.74C323.04 61.74 323.25 61.65 323.41 61.46C323.57 61.28 323.65 61.07 323.65 60.84V53.73C323.56 53.25 323.3 53 322.89 53C322.01 53 321.58 54.44 321.58 57.32C321.58 58.66 321.69 59.73 321.91 60.53C322.13 61.34 322.42 61.74 322.79 61.74Z" fill="#FBFFB3"/>
<path d="M337.22 43.5901C338.56 43.4401 340.12 43.3701 341.92 43.3701C343.72 43.3701 344.61 43.6401 344.61 44.1601C344.61 44.8301 344.4 50.3801 343.99 60.8001C343.97 61.3801 343.55 61.8901 342.75 62.3501C341.94 62.8101 340.8 63.0401 339.33 63.0401C337.33 63.0401 336.28 62.5001 336.19 61.4201L335.26 44.1901C335.24 43.9401 335.89 43.7401 337.23 43.5901H337.22ZM343.11 70.4901C342.36 70.9401 341.31 71.1601 339.97 71.1601C338.63 71.1601 337.59 70.9601 336.88 70.5601C336.17 70.1601 335.81 69.3201 335.81 68.0601C335.81 65.9901 337.21 64.9501 340.02 64.9501C342.83 64.9501 344.23 65.9901 344.23 68.0601C344.23 69.2301 343.86 70.0501 343.11 70.4901Z" fill="#FBFFB3"/>
<path d="M61.1499 27.2798C59.7299 27.4298 58.3199 27.4998 56.8999 27.4998C55.4799 27.4998 54.5899 27.4398 54.2099 27.3098C53.8299 27.1798 53.6399 26.9698 53.6399 26.6698V11.8198H48.8399C48.5899 11.8198 48.3699 11.4998 48.1799 10.8498C47.9999 10.2098 47.8999 9.23982 47.8999 7.96982C47.8999 6.69982 48.0399 5.53982 48.3099 4.51982C48.5899 3.49982 48.9499 2.97982 49.4099 2.97982H68.0899C68.4399 2.97982 68.6699 3.29982 68.7999 3.94982C68.9299 4.58982 68.9899 5.52982 68.9899 6.74982C68.9899 7.96982 68.8599 9.11982 68.6099 10.1998C68.3599 11.2798 68.0099 11.8198 67.5699 11.8198H63.2499V26.6698C63.2499 26.9198 62.5399 27.1298 61.1299 27.2698L61.1499 27.2798ZM82.1299 26.6798V17.0798C82.1299 15.3498 82.0599 14.0998 81.9199 13.3198C81.7799 12.5398 81.4499 12.1498 80.9199 12.1498C80.4599 12.1498 80.2299 12.4598 80.2299 13.0798V26.6798C80.2299 26.9298 79.5599 27.1398 78.2299 27.2798C76.8899 27.4298 75.5199 27.4998 74.1199 27.4998C72.7199 27.4998 71.8299 27.4398 71.4599 27.3098C71.0899 27.1798 70.9099 26.9698 70.9099 26.6698V2.74982C70.9099 2.26982 71.5799 1.77982 72.9099 1.29982C74.2399 0.819824 75.6499 0.569824 77.1199 0.569824C78.5899 0.569824 79.6399 0.859824 80.0499 1.42982C80.1899 1.60982 80.2599 1.80982 80.2599 2.01982V7.09982L79.8799 9.47982H80.1199C80.4399 8.99982 80.9499 8.56982 81.6399 8.19982C82.9299 7.50982 84.3299 7.15982 85.8499 7.15982C88.0399 7.15982 89.5199 7.85982 90.2899 9.24982C91.0599 10.6398 91.4499 12.8998 91.4499 16.0398V26.6798C91.4499 26.9298 90.7799 27.1398 89.4299 27.2798C88.0799 27.4298 86.7099 27.4998 85.3199 27.4998C83.9299 27.4998 83.0499 27.4398 82.6799 27.3098C82.3099 27.1798 82.1299 26.9698 82.1299 26.6698V26.6798ZM102.95 19.7098C102.95 21.2098 103.66 21.9498 105.09 21.9498C105.92 21.9498 107 21.6698 108.34 21.0998C109.67 20.5398 110.38 20.2498 110.45 20.2498C110.89 20.2498 111.46 20.9098 112.18 22.2198C112.89 23.5298 113.25 24.4998 113.25 25.1198C113.25 26.0198 112.33 26.6998 110.49 27.1598C108.65 27.6198 106.85 27.8498 105.09 27.8498C103.33 27.8498 101.86 27.7098 100.67 27.4398C99.4799 27.1598 98.5199 26.8098 97.7699 26.3898C97.0199 25.9598 96.3699 25.4398 95.7999 24.8198C95.2399 24.1998 94.8199 23.6098 94.5399 23.0398C94.2599 22.4698 94.0399 21.8498 93.8799 21.1598C93.6499 20.1498 93.5299 19.0998 93.5299 18.0198C93.5299 13.8298 94.6199 10.9398 96.8099 9.34982C97.8899 8.53982 99.0999 7.97982 100.44 7.65982C101.77 7.33982 103.35 7.17982 105.17 7.17982C110.99 7.17982 113.91 9.20982 113.91 13.2598C113.91 17.5698 110.64 19.7198 104.1 19.7198H102.96L102.95 19.7098ZM102.88 14.6598V16.9398C103.55 16.9398 104.09 16.6798 104.52 16.1498C104.95 15.6198 105.16 14.9798 105.16 14.2198C105.16 12.8398 104.8 12.1498 104.09 12.1498C103.28 12.1498 102.88 12.9898 102.88 14.6698V14.6598ZM133.13 27.8198C129.31 27.8198 126.51 27.4498 124.74 26.7198C123.84 26.3298 123.39 25.9498 123.39 25.5798C123.39 24.6398 123.67 23.5298 124.22 22.2698C124.77 20.9998 125.26 20.3698 125.67 20.3698C125.9 20.3698 126.68 20.6198 128 21.1298C129.32 21.6398 130.44 21.8898 131.35 21.8898C132.26 21.8898 132.86 21.8298 133.15 21.7198C133.44 21.6098 133.58 21.3798 133.58 21.0498C133.58 20.7198 133.35 20.4498 132.89 20.2598C132.43 20.0598 131.85 19.9298 131.16 19.8598C130.47 19.7898 129.73 19.6498 128.93 19.4498C128.13 19.2498 127.39 18.9798 126.7 18.6598C126.01 18.3398 125.43 17.7998 124.97 17.0498C124.51 16.2998 124.28 15.4998 124.28 14.6298C124.28 13.7598 124.3 13.1198 124.35 12.6998C124.4 12.2698 124.59 11.6798 124.92 10.8998C125.25 10.1198 125.73 9.49982 126.34 9.01982C126.95 8.53982 127.89 8.09982 129.17 7.70982C130.45 7.31982 131.88 7.11982 133.47 7.11982C135.06 7.11982 136.39 7.16982 137.46 7.27982C138.53 7.38982 139.37 7.51982 139.98 7.67982C140.59 7.83982 141.09 8.02982 141.48 8.22982C142.15 8.57982 142.48 8.95982 142.48 9.36982C142.48 10.2698 142.16 11.2998 141.51 12.4798C140.87 13.6498 140.35 14.2398 139.97 14.2398C139.59 14.2398 138.77 14.0398 137.5 13.6398C136.23 13.2398 135.3 13.0398 134.7 13.0398C133.73 13.0398 133.25 13.3198 133.25 13.8698C133.25 14.2198 133.58 14.4698 134.23 14.6498C134.88 14.8298 135.67 14.9998 136.6 15.1898C137.52 15.3698 138.45 15.6298 139.38 15.9698C140.31 16.2998 141.11 16.9098 141.76 17.7798C142.42 18.6598 142.74 19.7598 142.74 21.0998C142.74 25.6098 139.53 27.8698 133.11 27.8698L133.13 27.8198ZM171.04 26.6798C170.74 27.2298 169.18 27.5098 166.36 27.5098C163.54 27.5098 162.07 27.2298 161.96 26.6798L160.79 20.3998H160.31L159.21 26.6798C159.14 27.2298 157.13 27.5098 153.17 27.5098C152.07 27.5098 151.33 27.4498 150.98 27.3198C150.62 27.1898 150.38 26.9798 150.24 26.6798C145.96 16.1598 143.82 10.6198 143.82 10.0698C143.82 9.51982 144.65 8.94982 146.32 8.35982C147.99 7.76982 149.59 7.47982 151.14 7.47982C153.12 7.47982 154.14 8.00982 154.21 9.06982L155.38 18.5298H155.79L156.2 10.8998C156.22 10.3298 156.81 9.81982 157.96 9.37982C159.11 8.93983 160.27 8.71982 161.45 8.71982C162.63 8.71982 163.5 8.85982 164.09 9.14982C164.68 9.43982 164.98 9.78982 165 10.1998L165.38 18.5198H165.76L166.9 9.64982C166.97 9.09982 167.75 8.59982 169.23 8.14982C170.71 7.69982 172.02 7.47982 173.15 7.47982C174.28 7.47982 175.16 7.63982 175.81 7.95982C176.87 8.46982 177.4 9.05982 177.4 9.75982C177.4 9.82982 176.36 12.6398 174.28 18.1898C172.2 23.7398 171.12 26.5698 171.05 26.6798H171.04ZM187.86 19.7098C187.86 21.2098 188.57 21.9498 190 21.9498C190.83 21.9498 191.91 21.6698 193.25 21.0998C194.58 20.5398 195.29 20.2498 195.36 20.2498C195.8 20.2498 196.37 20.9098 197.09 22.2198C197.8 23.5298 198.16 24.4998 198.16 25.1198C198.16 26.0198 197.24 26.6998 195.4 27.1598C193.56 27.6198 191.76 27.8498 190 27.8498C188.24 27.8498 186.77 27.7098 185.58 27.4398C184.39 27.1598 183.43 26.8098 182.68 26.3898C181.93 25.9598 181.28 25.4398 180.71 24.8198C180.15 24.1998 179.73 23.6098 179.45 23.0398C179.17 22.4698 178.95 21.8498 178.79 21.1598C178.56 20.1498 178.44 19.0998 178.44 18.0198C178.44 13.8298 179.53 10.9398 181.72 9.34982C182.8 8.53982 184.01 7.97982 185.35 7.65982C186.68 7.33982 188.26 7.17982 190.08 7.17982C195.9 7.17982 198.82 9.20982 198.82 13.2598C198.82 17.5698 195.55 19.7198 189.01 19.7198H187.87L187.86 19.7098ZM187.79 14.6598V16.9398C188.46 16.9398 189 16.6798 189.43 16.1498C189.86 15.6198 190.07 14.9798 190.07 14.2198C190.07 12.8398 189.71 12.1498 189 12.1498C188.19 12.1498 187.79 12.9898 187.79 14.6698V14.6598ZM209.96 19.7098C209.96 21.2098 210.67 21.9498 212.1 21.9498C212.93 21.9498 214.01 21.6698 215.35 21.0998C216.68 20.5398 217.39 20.2498 217.46 20.2498C217.9 20.2498 218.47 20.9098 219.19 22.2198C219.9 23.5298 220.26 24.4998 220.26 25.1198C220.26 26.0198 219.34 26.6998 217.5 27.1598C215.66 27.6198 213.86 27.8498 212.1 27.8498C210.34 27.8498 208.87 27.7098 207.68 27.4398C206.49 27.1598 205.53 26.8098 204.78 26.3898C204.03 25.9598 203.38 25.4398 202.81 24.8198C202.25 24.1998 201.83 23.6098 201.55 23.0398C201.27 22.4798 201.05 21.8498 200.89 21.1598C200.66 20.1498 200.54 19.0998 200.54 18.0198C200.54 13.8298 201.63 10.9398 203.82 9.34982C204.9 8.53982 206.11 7.97982 207.45 7.65982C208.78 7.33982 210.36 7.17982 212.18 7.17982C218 7.17982 220.92 9.20982 220.92 13.2598C220.92 17.5698 217.65 19.7198 211.11 19.7198H209.97L209.96 19.7098ZM209.89 14.6598V16.9398C210.56 16.9398 211.1 16.6798 211.53 16.1498C211.96 15.6198 212.17 14.9798 212.17 14.2198C212.17 12.8398 211.81 12.1498 211.1 12.1498C210.29 12.1498 209.89 12.9898 209.89 14.6698V14.6598ZM236.55 27.1998C236.14 27.5898 235.19 27.7898 233.72 27.7898C232.25 27.7898 231.03 27.6898 230.06 27.4998C229.09 27.2998 228.17 26.9198 227.3 26.3398C225.62 25.2098 224.78 22.8598 224.78 19.2998V13.9098H223.05C222.8 13.9098 222.58 13.6498 222.39 13.1198C222.2 12.5898 222.11 11.8698 222.11 10.9398C222.11 10.0098 222.25 9.20982 222.54 8.50982C222.83 7.80982 223.2 7.45982 223.66 7.45982H224.77V3.26982C224.77 2.55982 225.47 1.97982 226.86 1.53982C228.25 1.09982 229.62 0.879824 230.95 0.879824C233.04 0.879824 234.09 1.39982 234.09 2.42982V7.43982H236.65C237.25 7.43982 237.55 8.29982 237.55 10.0298C237.55 11.1598 237.42 12.0798 237.15 12.8098C236.88 13.5398 236.55 13.8998 236.13 13.8998H234.09V20.2198C234.09 20.8398 234.35 21.2898 234.88 21.5498C235.41 21.8098 235.88 21.9498 236.28 21.9498C236.68 21.9498 236.93 22.1498 237.02 22.5398C237.11 22.9298 237.16 23.5198 237.16 24.2998C237.16 25.8398 236.95 26.8098 236.54 27.1998H236.55ZM248.7 19.7098C248.7 21.2098 249.41 21.9498 250.84 21.9498C251.67 21.9498 252.75 21.6698 254.09 21.0998C255.42 20.5398 256.13 20.2498 256.2 20.2498C256.64 20.2498 257.21 20.9098 257.93 22.2198C258.64 23.5298 259 24.4998 259 25.1198C259 26.0198 258.08 26.6998 256.24 27.1598C254.4 27.6198 252.6 27.8498 250.84 27.8498C249.08 27.8498 247.61 27.7098 246.42 27.4398C245.23 27.1598 244.27 26.8098 243.52 26.3898C242.77 25.9598 242.12 25.4398 241.55 24.8198C240.99 24.1998 240.57 23.6098 240.29 23.0398C240.01 22.4798 239.79 21.8498 239.63 21.1598C239.4 20.1498 239.28 19.0998 239.28 18.0198C239.28 13.8298 240.37 10.9398 242.56 9.34982C243.64 8.53982 244.85 7.97982 246.19 7.65982C247.52 7.33982 249.1 7.17982 250.92 7.17982C256.74 7.17982 259.66 9.20982 259.66 13.2598C259.66 17.5698 256.39 19.7198 249.85 19.7198H248.71L248.7 19.7098ZM248.63 14.6598V16.9398C249.3 16.9398 249.84 16.6798 250.27 16.1498C250.7 15.6198 250.91 14.9798 250.91 14.2198C250.91 12.8398 250.55 12.1498 249.84 12.1498C249.03 12.1498 248.63 12.9898 248.63 14.6698V14.6598ZM271.11 27.8198C267.29 27.8198 264.49 27.4498 262.72 26.7198C261.82 26.3298 261.37 25.9498 261.37 25.5798C261.37 24.6398 261.65 23.5298 262.2 22.2698C262.75 20.9998 263.24 20.3698 263.65 20.3698C263.88 20.3698 264.66 20.6198 265.98 21.1298C267.3 21.6398 268.42 21.8898 269.33 21.8898C270.24 21.8898 270.84 21.8298 271.13 21.7198C271.42 21.6098 271.56 21.3798 271.56 21.0498C271.56 20.7198 271.33 20.4498 270.87 20.2598C270.41 20.0598 269.83 19.9298 269.14 19.8598C268.45 19.7898 267.71 19.6498 266.91 19.4498C266.11 19.2498 265.37 18.9798 264.68 18.6598C263.99 18.3398 263.41 17.7998 262.95 17.0498C262.49 16.2998 262.26 15.4998 262.26 14.6298C262.26 13.7598 262.28 13.1198 262.33 12.6998C262.38 12.2698 262.57 11.6798 262.9 10.8998C263.23 10.1198 263.71 9.49982 264.32 9.01982C264.93 8.53982 265.87 8.09982 267.15 7.70982C268.43 7.31982 269.86 7.11982 271.45 7.11982C273.04 7.11982 274.37 7.16982 275.44 7.27982C276.51 7.38982 277.35 7.51982 277.96 7.67982C278.57 7.83982 279.07 8.02982 279.46 8.22982C280.13 8.57982 280.46 8.95982 280.46 9.36982C280.46 10.2698 280.14 11.2998 279.49 12.4798C278.85 13.6498 278.33 14.2398 277.95 14.2398C277.57 14.2398 276.75 14.0398 275.48 13.6398C274.21 13.2398 273.28 13.0398 272.68 13.0398C271.71 13.0398 271.23 13.3198 271.23 13.8698C271.23 14.2198 271.56 14.4698 272.21 14.6498C272.86 14.8298 273.65 14.9998 274.58 15.1898C275.5 15.3698 276.43 15.6298 277.36 15.9698C278.29 16.2998 279.09 16.9098 279.74 17.7798C280.4 18.6598 280.72 19.7598 280.72 21.0998C280.72 25.6098 277.51 27.8698 271.09 27.8698L271.11 27.8198ZM296.39 27.1998C295.98 27.5898 295.03 27.7898 293.56 27.7898C292.09 27.7898 290.87 27.6898 289.9 27.4998C288.93 27.2998 288.01 26.9198 287.14 26.3398C285.46 25.2098 284.62 22.8598 284.62 19.2998V13.9098H282.89C282.64 13.9098 282.42 13.6498 282.23 13.1198C282.05 12.5898 281.95 11.8698 281.95 10.9398C281.95 10.0098 282.09 9.20982 282.38 8.50982C282.67 7.80982 283.04 7.45982 283.5 7.45982H284.6V3.26982C284.6 2.55982 285.3 1.97982 286.69 1.53982C288.08 1.09982 289.45 0.879824 290.78 0.879824C292.87 0.879824 293.92 1.39982 293.92 2.42982V7.43982H296.47C297.07 7.43982 297.37 8.29982 297.37 10.0298C297.37 11.1598 297.24 12.0798 296.97 12.8098C296.71 13.5398 296.37 13.8998 295.95 13.8998H293.91V20.2198C293.91 20.8398 294.17 21.2898 294.7 21.5498C295.23 21.8098 295.7 21.9498 296.1 21.9498C296.5 21.9498 296.75 22.1498 296.84 22.5398C296.93 22.9298 296.98 23.5198 296.98 24.2998C296.98 25.8398 296.77 26.8098 296.36 27.1998H296.39Z" fill="url(#paint0_linear_1925_67)"/>
<path d="M27.24 68.12C26.94 68.67 25.38 68.95 22.56 68.95C19.74 68.95 18.27 68.67 18.16 68.12L16.99 61.84H16.51L15.41 68.12C15.34 68.67 13.33 68.95 9.37 68.95C8.27 68.95 7.53 68.89 7.18 68.76C6.82 68.63 6.58 68.42 6.44 68.12C2.14 57.6 0 52.06 0 51.51C0 50.96 0.83 50.39 2.5 49.8C4.17 49.21 5.77 48.92 7.32 48.92C9.3 48.92 10.32 49.45 10.39 50.51L11.56 59.97H11.97L12.38 52.34C12.4 51.77 12.99 51.26 14.14 50.82C15.29 50.38 16.45 50.16 17.63 50.16C18.81 50.16 19.68 50.3 20.27 50.59C20.86 50.88 21.16 51.23 21.19 51.64L21.57 59.96H21.95L23.09 51.09C23.16 50.54 23.94 50.04 25.42 49.59C26.9 49.14 28.21 48.92 29.34 48.92C30.47 48.92 31.35 49.08 32 49.4C33.06 49.91 33.59 50.5 33.59 51.2C33.59 51.27 32.55 54.08 30.46 59.63C28.38 65.18 27.3 68.01 27.23 68.12H27.24ZM44.06 61.14C44.06 62.64 44.77 63.38 46.2 63.38C47.03 63.38 48.11 63.1 49.45 62.53C50.78 61.97 51.49 61.68 51.56 61.68C52 61.68 52.57 62.34 53.29 63.65C54 64.96 54.36 65.93 54.36 66.55C54.36 67.45 53.44 68.13 51.6 68.59C49.76 69.05 47.96 69.28 46.2 69.28C44.44 69.28 42.97 69.14 41.78 68.87C40.59 68.59 39.63 68.24 38.88 67.82C38.13 67.39 37.48 66.87 36.91 66.25C36.35 65.63 35.93 65.04 35.65 64.47C35.37 63.91 35.15 63.28 34.99 62.59C34.76 61.58 34.64 60.53 34.64 59.45C34.64 55.26 35.73 52.37 37.92 50.78C39 49.97 40.21 49.41 41.55 49.09C42.88 48.77 44.46 48.61 46.28 48.61C52.1 48.61 55.02 50.64 55.02 54.69C55.02 59 51.75 61.15 45.21 61.15H44.07L44.06 61.14ZM43.99 56.1V58.38C44.66 58.38 45.2 58.12 45.63 57.59C46.06 57.06 46.27 56.42 46.27 55.66C46.27 54.28 45.91 53.59 45.2 53.59C44.39 53.59 43.99 54.43 43.99 56.11V56.1ZM58.98 68.6C57.71 68.28 57.08 67.79 57.08 67.15V45.26C57.08 44.75 57.76 44.26 59.12 43.78C60.48 43.3 61.91 43.05 63.4 43.05C65.43 43.05 66.44 43.58 66.44 44.64V48.54L66.06 50.92H66.34C66.48 50.71 66.74 50.46 67.12 50.16C67.5 49.86 67.9 49.61 68.31 49.4C69.32 48.87 70.44 48.61 71.66 48.61C72.88 48.61 73.84 48.77 74.54 49.08C75.24 49.39 75.81 49.79 76.23 50.29C76.65 50.79 76.99 51.41 77.25 52.17C77.69 53.48 77.91 55.12 77.91 57.07C77.91 60.32 77.54 62.8 76.81 64.53C76.07 66.26 74.88 67.48 73.22 68.19C71.56 68.9 69.23 69.26 66.21 69.26C63.19 69.26 60.79 69.04 58.99 68.6H58.98ZM66.4 64.18H67.47C68.21 64.18 68.57 62.41 68.57 58.88C68.57 55.35 68.19 53.58 67.43 53.58H66.39V64.18H66.4ZM89.54 69.26C85.72 69.26 82.92 68.89 81.15 68.16C80.25 67.77 79.8 67.39 79.8 67.02C79.8 66.08 80.08 64.97 80.63 63.71C81.18 62.44 81.67 61.81 82.08 61.81C82.31 61.81 83.09 62.06 84.41 62.57C85.73 63.08 86.85 63.33 87.76 63.33C88.67 63.33 89.27 63.27 89.56 63.16C89.85 63.05 89.99 62.82 89.99 62.49C89.99 62.16 89.76 61.89 89.3 61.7C88.84 61.5 88.26 61.37 87.57 61.3C86.88 61.23 86.14 61.09 85.34 60.89C84.54 60.69 83.8 60.42 83.11 60.1C82.42 59.78 81.84 59.24 81.38 58.49C80.92 57.74 80.69 56.94 80.69 56.07C80.69 55.2 80.71 54.56 80.76 54.14C80.81 53.71 81 53.12 81.33 52.34C81.66 51.56 82.14 50.94 82.75 50.46C83.36 49.98 84.3 49.54 85.58 49.15C86.86 48.76 88.29 48.56 89.88 48.56C91.47 48.56 92.8 48.61 93.87 48.72C94.94 48.82 95.78 48.96 96.39 49.12C97 49.28 97.5 49.47 97.89 49.67C98.56 50.02 98.89 50.4 98.89 50.81C98.89 51.71 98.57 52.74 97.92 53.92C97.28 55.09 96.76 55.68 96.38 55.68C96 55.68 95.18 55.48 93.91 55.08C92.64 54.68 91.71 54.48 91.11 54.48C90.14 54.48 89.66 54.76 89.66 55.31C89.66 55.66 89.99 55.91 90.64 56.09C91.29 56.27 92.08 56.44 93.01 56.63C93.93 56.81 94.86 57.07 95.79 57.41C96.72 57.74 97.52 58.35 98.17 59.22C98.83 60.1 99.15 61.2 99.15 62.54C99.15 67.05 95.94 69.31 89.52 69.31L89.54 69.26ZM106.04 42.01C107.56 42.01 108.75 42.23 109.61 42.68C110.47 43.13 110.9 43.94 110.9 45.11C110.9 47.18 109.29 48.22 106.07 48.22C102.85 48.22 101.24 47.18 101.24 45.11C101.24 43.04 102.84 42 106.04 42V42.01ZM110.74 51.09V68.11C110.74 68.36 110.08 68.57 108.75 68.71C107.43 68.86 106.07 68.93 104.68 68.93C103.29 68.93 102.39 68.87 101.99 68.74C101.59 68.61 101.39 68.4 101.39 68.1V51.7C101.39 51.19 102.04 50.69 103.34 50.2C104.64 49.71 106.06 49.46 107.6 49.46C109.69 49.46 110.74 50 110.74 51.08V51.09ZM126.9 68.63C126.49 69.02 125.54 69.22 124.07 69.22C122.6 69.22 121.38 69.12 120.41 68.93C119.44 68.73 118.52 68.35 117.65 67.77C115.97 66.64 115.13 64.29 115.13 60.73V55.34H113.4C113.15 55.34 112.93 55.08 112.74 54.55C112.55 54.02 112.46 53.3 112.46 52.37C112.46 51.44 112.6 50.64 112.89 49.94C113.18 49.24 113.55 48.89 114.01 48.89H115.12V44.71C115.12 44 115.82 43.42 117.21 42.98C118.6 42.54 119.97 42.32 121.3 42.32C123.39 42.32 124.44 42.84 124.44 43.87V48.88H127C127.6 48.88 127.9 49.74 127.9 51.47C127.9 52.6 127.77 53.52 127.5 54.25C127.23 54.98 126.9 55.34 126.48 55.34H124.44V61.66C124.44 62.28 124.7 62.73 125.23 62.99C125.76 63.25 126.23 63.39 126.63 63.39C127.03 63.39 127.28 63.59 127.37 63.98C127.46 64.37 127.51 64.96 127.51 65.74C127.51 67.28 127.3 68.25 126.89 68.64L126.9 68.63ZM139.05 61.14C139.05 62.64 139.76 63.38 141.19 63.38C142.02 63.38 143.1 63.1 144.44 62.53C145.77 61.97 146.48 61.68 146.55 61.68C146.99 61.68 147.56 62.34 148.28 63.65C148.99 64.96 149.35 65.93 149.35 66.55C149.35 67.45 148.43 68.13 146.59 68.59C144.75 69.05 142.95 69.28 141.19 69.28C139.43 69.28 137.96 69.14 136.77 68.87C135.58 68.59 134.62 68.24 133.87 67.82C133.12 67.39 132.47 66.87 131.9 66.25C131.34 65.63 130.92 65.04 130.64 64.47C130.36 63.91 130.14 63.28 129.98 62.59C129.75 61.58 129.63 60.53 129.63 59.45C129.63 55.26 130.72 52.37 132.91 50.78C133.99 49.97 135.2 49.41 136.54 49.09C137.87 48.77 139.45 48.61 141.27 48.61C147.09 48.61 150.01 50.64 150.01 54.69C150.01 59 146.74 61.15 140.2 61.15H139.06L139.05 61.14ZM138.98 56.1V58.38C139.65 58.38 140.19 58.12 140.62 57.59C141.05 57.06 141.26 56.42 141.26 55.66C141.26 54.28 140.9 53.59 140.19 53.59C139.38 53.59 138.98 54.43 138.98 56.11V56.1ZM164.64 42.01C166.16 42.01 167.35 42.23 168.21 42.68C169.07 43.13 169.5 43.94 169.5 45.11C169.5 47.18 167.89 48.22 164.67 48.22C161.45 48.22 159.84 47.18 159.84 45.11C159.84 43.04 161.44 42 164.64 42V42.01ZM169.34 51.09V68.11C169.34 68.36 168.68 68.57 167.35 68.71C166.03 68.86 164.67 68.93 163.28 68.93C161.89 68.93 160.99 68.87 160.59 68.74C160.19 68.61 159.99 68.4 159.99 68.1V51.7C159.99 51.19 160.64 50.69 161.94 50.2C163.24 49.71 164.66 49.46 166.2 49.46C168.29 49.46 169.34 50 169.34 51.08V51.09ZM181.32 69.26C177.5 69.26 174.7 68.89 172.93 68.16C172.03 67.77 171.58 67.39 171.58 67.02C171.58 66.08 171.86 64.97 172.41 63.71C172.96 62.44 173.45 61.81 173.86 61.81C174.09 61.81 174.87 62.06 176.19 62.57C177.51 63.08 178.63 63.33 179.54 63.33C180.45 63.33 181.05 63.27 181.34 63.16C181.63 63.05 181.77 62.82 181.77 62.49C181.77 62.16 181.54 61.89 181.08 61.7C180.62 61.5 180.04 61.37 179.35 61.3C178.66 61.23 177.92 61.09 177.12 60.89C176.32 60.69 175.58 60.42 174.89 60.1C174.2 59.78 173.62 59.24 173.16 58.49C172.7 57.74 172.47 56.94 172.47 56.07C172.47 55.2 172.49 54.56 172.54 54.14C172.59 53.71 172.78 53.12 173.11 52.34C173.44 51.56 173.92 50.94 174.53 50.46C175.14 49.98 176.08 49.54 177.36 49.15C178.64 48.76 180.07 48.56 181.66 48.56C183.25 48.56 184.58 48.61 185.65 48.72C186.72 48.82 187.56 48.96 188.17 49.12C188.78 49.28 189.28 49.47 189.67 49.67C190.34 50.02 190.67 50.4 190.67 50.81C190.67 51.71 190.35 52.74 189.7 53.92C189.06 55.09 188.54 55.68 188.16 55.68C187.78 55.68 186.96 55.48 185.69 55.08C184.42 54.68 183.49 54.48 182.89 54.48C181.92 54.48 181.44 54.76 181.44 55.31C181.44 55.66 181.77 55.91 182.42 56.09C183.07 56.27 183.86 56.44 184.79 56.63C185.71 56.81 186.64 57.07 187.57 57.41C188.5 57.74 189.3 58.35 189.95 59.22C190.61 60.1 190.93 61.2 190.93 62.54C190.93 67.05 187.72 69.31 181.3 69.31L181.32 69.26ZM205.25 68.36C204.7 68.11 204.1 67.73 203.47 67.22C202.84 66.71 202.31 66.12 201.9 65.42C200.93 63.76 200.45 61.6 200.45 58.93C200.45 57.27 200.71 55.79 201.24 54.49C201.77 53.19 202.41 52.18 203.17 51.47C203.93 50.76 204.8 50.17 205.79 49.71C207.38 48.97 208.97 48.61 210.56 48.61C213.23 48.61 215.09 48.82 216.14 49.23C217.19 49.64 217.71 50.35 217.71 51.34C217.71 52.33 217.53 53.38 217.17 54.5C216.81 55.62 216.35 56.17 215.77 56.17C215.59 56.17 215.03 55.97 214.1 55.58C213.17 55.19 212.36 54.99 211.68 54.99C211 54.99 210.48 55.26 210.13 55.8C209.77 56.34 209.59 57.39 209.59 58.94C209.59 60.49 209.75 61.55 210.07 62.12C210.39 62.68 210.89 62.97 211.57 62.97C212.25 62.97 213.09 62.74 214.11 62.28C215.12 61.82 215.69 61.59 215.8 61.59C216.24 61.59 216.66 62.11 217.06 63.14C217.46 64.18 217.66 65.1 217.66 65.9C217.66 67.14 217.02 68.01 215.73 68.51C214.44 69.01 212.7 69.25 210.5 69.25C208.3 69.25 206.55 68.95 205.23 68.35L205.25 68.36ZM230.42 69.26C228.69 69.26 227.21 69.11 225.97 68.81C224.73 68.51 223.6 67.98 222.59 67.22C220.49 65.7 219.45 62.87 219.45 58.73C219.45 55.05 220.52 52.41 222.66 50.82C224.66 49.35 227.25 48.61 230.43 48.61C231.79 48.61 232.95 48.67 233.92 48.8C234.89 48.93 235.87 49.2 236.87 49.61C237.87 50.02 238.68 50.59 239.29 51.3C239.9 52.01 240.4 53 240.79 54.25C241.18 55.5 241.38 57 241.38 58.72C241.38 62.22 240.39 64.85 238.41 66.61C236.43 68.37 233.77 69.25 230.43 69.25L230.42 69.26ZM229.21 62.52C229.37 63.35 229.54 63.84 229.71 64C229.88 64.16 230.11 64.24 230.4 64.24C230.69 64.24 230.92 64.16 231.09 64C231.26 63.84 231.42 63.34 231.57 62.52C231.72 61.69 231.79 60.65 231.79 59.4C231.79 58.15 231.76 57.18 231.7 56.5C231.64 55.82 231.57 55.3 231.49 54.93C231.41 54.56 231.3 54.27 231.16 54.07C230.95 53.77 230.71 53.62 230.42 53.62C230.13 53.62 229.9 53.71 229.71 53.88C229.53 54.05 229.35 54.56 229.19 55.4C229.03 56.24 228.95 57.43 228.95 58.97C228.95 60.51 229.03 61.7 229.19 62.53L229.21 62.52ZM274.89 57.55V68.12C274.89 68.37 274.24 68.58 272.94 68.72C271.64 68.87 270.29 68.94 268.9 68.94C267.51 68.94 266.6 68.88 266.19 68.75C265.78 68.62 265.57 68.41 265.57 68.11V58.55C265.57 55.26 265.24 53.61 264.57 53.61C264.41 53.61 264.25 53.68 264.09 53.82C263.93 53.96 263.85 54.2 263.85 54.55V68.12C263.85 68.37 263.2 68.58 261.9 68.72C260.6 68.87 259.25 68.94 257.84 68.94C256.43 68.94 255.53 68.88 255.13 68.75C254.73 68.62 254.53 68.41 254.53 68.11V58.55C254.53 55.99 254.37 54.46 254.05 53.96C253.89 53.73 253.68 53.61 253.43 53.61C252.99 53.61 252.77 53.92 252.77 54.54V68.11C252.77 68.36 252.11 68.57 250.8 68.71C249.49 68.86 248.13 68.93 246.74 68.93C245.35 68.93 244.45 68.87 244.05 68.74C243.65 68.61 243.45 68.4 243.45 68.1V51.08C243.45 50.6 244.11 50.11 245.44 49.63C246.76 49.15 248.16 48.9 249.64 48.9C251.12 48.9 251.94 49.33 252.13 50.18L252.44 51.7H252.68C253.35 50.39 254.45 49.46 255.99 48.9C256.63 48.69 257.46 48.59 258.48 48.59C260.5 48.59 261.98 49.63 262.9 51.7C263.2 51.01 263.95 50.32 265.14 49.63C266.33 48.94 267.66 48.59 269.11 48.59C271.39 48.59 272.93 49.3 273.72 50.71C274.51 52.13 274.91 54.4 274.91 57.53L274.89 57.55ZM282.11 42.01C283.63 42.01 284.82 42.23 285.68 42.68C286.54 43.13 286.97 43.94 286.97 45.11C286.97 47.18 285.36 48.22 282.14 48.22C278.92 48.22 277.31 47.18 277.31 45.11C277.31 43.04 278.91 42 282.11 42V42.01ZM286.81 51.09V68.11C286.81 68.36 286.15 68.57 284.82 68.71C283.5 68.86 282.14 68.93 280.75 68.93C279.36 68.93 278.46 68.87 278.06 68.74C277.66 68.61 277.46 68.4 277.46 68.1V51.7C277.46 51.19 278.11 50.69 279.41 50.2C280.71 49.71 282.13 49.46 283.67 49.46C285.76 49.46 286.81 50 286.81 51.08V51.09ZM310.22 57.48V68.12C310.22 68.37 309.56 68.58 308.25 68.72C306.94 68.87 305.58 68.94 304.19 68.94C302.8 68.94 301.9 68.88 301.5 68.75C301.1 68.62 300.9 68.41 300.9 68.11V57.13C300.9 56.09 300.86 55.42 300.78 55.09C300.7 54.77 300.62 54.48 300.56 54.23C300.4 53.79 300.11 53.57 299.7 53.57C299.06 53.57 298.73 53.88 298.73 54.5V68.1C298.73 68.35 298.08 68.56 296.78 68.7C295.48 68.85 294.13 68.92 292.74 68.92C291.35 68.92 290.44 68.86 290.03 68.73C289.62 68.6 289.41 68.39 289.41 68.09V51.07C289.41 50.59 290.07 50.1 291.4 49.62C292.73 49.14 294.12 48.89 295.6 48.89C297.08 48.89 297.9 49.32 298.09 50.17L298.4 51.69H298.64C299.31 50.36 300.46 49.42 302.09 48.89C302.76 48.68 303.49 48.58 304.3 48.58C306.63 48.58 308.2 49.28 309.01 50.67C309.83 52.06 310.24 54.32 310.24 57.46L310.22 57.48ZM324.17 66.67V64.67H323.89C323.8 64.79 323.64 64.93 323.41 65.1C323.18 65.27 322.61 65.51 321.7 65.81C320.79 66.11 319.77 66.26 318.63 66.26C317.49 66.26 316.53 66.09 315.75 65.74C314.97 65.39 314.36 64.96 313.92 64.45C313.48 63.94 313.14 63.24 312.88 62.36C312.49 61 312.29 59.16 312.29 56.84C312.29 54.17 312.85 52.12 313.98 50.69C314.42 50.12 315.07 49.63 315.93 49.22C316.79 48.82 317.72 48.62 318.71 48.62C319.7 48.62 320.52 48.73 321.16 48.95C321.8 49.17 322.29 49.43 322.61 49.73C323.25 50.37 323.62 50.94 323.71 51.42L323.74 51.73H324.02L324.33 50.38C324.56 49.41 326.38 48.93 329.79 48.93C331.31 48.93 332.23 49.16 332.55 49.62C332.73 49.9 332.85 50.16 332.9 50.4C332.95 50.64 332.97 51 332.97 51.49V65.96C332.97 68.68 332.08 70.75 330.31 72.18C328.54 73.61 325.94 74.32 322.51 74.32C318.87 74.32 316.4 73.96 315.09 73.25C314.51 72.93 314.23 72.59 314.23 72.25C314.23 71.7 314.45 70.77 314.9 69.45C315.35 68.14 315.77 67.48 316.16 67.48C316.25 67.48 316.57 67.56 317.13 67.72C318.88 68.18 320.3 68.41 321.39 68.41C322.48 68.41 323.22 68.27 323.6 68C323.98 67.72 324.17 67.29 324.17 66.69V66.67ZM322.79 62.32C323.04 62.32 323.25 62.23 323.41 62.04C323.57 61.86 323.65 61.65 323.65 61.42V54.31C323.56 53.83 323.3 53.58 322.89 53.58C322.01 53.58 321.58 55.02 321.58 57.9C321.58 59.24 321.69 60.31 321.91 61.11C322.13 61.92 322.42 62.32 322.79 62.32ZM337.22 44.17C338.56 44.02 340.12 43.95 341.92 43.95C343.72 43.95 344.61 44.22 344.61 44.74C344.61 45.41 344.4 50.96 343.99 61.38C343.97 61.96 343.55 62.47 342.75 62.93C341.94 63.39 340.8 63.62 339.33 63.62C337.33 63.62 336.28 63.08 336.19 62L335.26 44.77C335.24 44.52 335.89 44.32 337.23 44.17H337.22ZM343.11 71.07C342.36 71.52 341.31 71.74 339.97 71.74C338.63 71.74 337.59 71.54 336.88 71.14C336.17 70.74 335.81 69.9 335.81 68.64C335.81 66.57 337.21 65.53 340.02 65.53C342.83 65.53 344.23 66.57 344.23 68.64C344.23 69.81 343.86 70.63 343.11 71.07Z" fill="url(#paint1_linear_1925_67)"/>
<defs>
<filter id="filter0_d_1925_67" x="2.8999" y="4.02002" width="347.47" height="76.63" filterUnits="userSpaceOnUse" color-interpolation-filters="sRGB">
<feFlood flood-opacity="0" result="BackgroundImageFix"/>
<feColorMatrix in="SourceAlpha" type="matrix" values="0 0 0 0 0 0 0 0 0 0 0 0 0 0 0 0 0 0 127 0" result="hardAlpha"/>
<feOffset dx="2.88" dy="2.88"/>
<feColorMatrix type="matrix" values="0 0 0 0 0 0 0 0 0 0 0 0 0 0 0 0 0 0 0.35 0"/>
<feBlend mode="normal" in2="BackgroundImageFix" result="effect1_dropShadow_1925_67"/>
<feBlend mode="normal" in="SourceGraphic" in2="effect1_dropShadow_1925_67" result="shape"/>
</filter>
<linearGradient id="paint0_linear_1925_67" x1="172.65" y1="-1.58018" x2="172.65" y2="54.6098" gradientUnits="userSpaceOnUse">
<stop offset="0.05" stop-color="#FDE800"/>
<stop offset="0.99" stop-color="#F68E1E"/>
</linearGradient>
<linearGradient id="paint1_linear_1925_67" x1="172.31" y1="40.83" x2="172.31" y2="95.05" gradientUnits="userSpaceOnUse">
<stop offset="0.05" stop-color="#FDE800"/>
<stop offset="0.99" stop-color="#F68E1E"/>
</linearGradient>
</defs>
</svg>
