<svg width="609" height="141" viewBox="0 0 609 141" fill="none" xmlns="http://www.w3.org/2000/svg">
<g filter="url(#filter0_d_1925_128)">
<path d="M111.26 53.4102C108.8 53.6702 106.34 53.8002 103.88 53.8002C101.42 53.8002 99.86 53.6902 99.2 53.4702C98.54 53.2502 98.21 52.8802 98.21 52.3602V26.5602H89.87C89.43 26.5602 89.05 26.0002 88.73 24.8802C88.41 23.7602 88.25 22.0902 88.25 19.8702C88.25 17.6502 88.49 15.6502 88.97 13.8702C89.45 12.0902 90.09 11.2002 90.89 11.2002H123.35C123.95 11.2002 124.36 11.7602 124.58 12.8802C124.8 14.0002 124.91 15.6202 124.91 17.7402C124.91 19.8602 124.69 21.8602 124.25 23.7402C123.81 25.6202 123.21 26.5602 122.45 26.5602H114.95V52.3602C114.95 52.8002 113.72 53.1502 111.26 53.4102Z" fill="#CF3700"/>
<path d="M147.71 52.36V35.68C147.71 32.68 147.59 30.5 147.35 29.14C147.11 27.78 146.53 27.1 145.61 27.1C144.81 27.1 144.41 27.64 144.41 28.72V52.36C144.41 52.8 143.25 53.15 140.93 53.41C138.61 53.67 136.23 53.8 133.79 53.8C131.35 53.8 129.81 53.69 129.17 53.47C128.53 53.25 128.21 52.88 128.21 52.36V10.78C128.21 9.94 129.37 9.1 131.69 8.26C134.01 7.42 136.45 7 139.01 7C141.57 7 143.39 7.5 144.11 8.5C144.35 8.82 144.47 9.16 144.47 9.52V18.34L143.81 22.48H144.23C144.79 21.64 145.67 20.9 146.87 20.26C149.11 19.06 151.55 18.46 154.19 18.46C157.99 18.46 160.56 19.67 161.9 22.09C163.24 24.51 163.91 28.44 163.91 33.88V52.36C163.91 52.8 162.74 53.15 160.4 53.41C158.06 53.67 155.68 53.8 153.26 53.8C150.84 53.8 149.31 53.69 148.67 53.47C148.03 53.25 147.71 52.88 147.71 52.36Z" fill="#CF3700"/>
<path d="M183.89 40.24C183.89 42.84 185.13 44.14 187.61 44.14C189.05 44.14 190.93 43.65 193.25 42.67C195.57 41.69 196.79 41.2 196.91 41.2C197.67 41.2 198.67 42.34 199.91 44.62C201.15 46.9 201.77 48.58 201.77 49.66C201.77 51.22 200.17 52.4 196.97 53.2C193.77 54 190.64 54.4 187.58 54.4C184.52 54.4 181.96 54.16 179.9 53.68C177.84 53.2 176.16 52.59 174.86 51.85C173.56 51.11 172.42 50.2 171.44 49.12C170.46 48.04 169.73 47.01 169.25 46.03C168.77 45.05 168.39 43.96 168.11 42.76C167.71 41 167.51 39.18 167.51 37.3C167.51 30.02 169.41 25 173.21 22.24C175.09 20.84 177.19 19.86 179.51 19.3C181.83 18.74 184.57 18.46 187.73 18.46C197.85 18.46 202.91 21.98 202.91 29.02C202.91 36.5 197.23 40.24 185.87 40.24H183.89ZM183.77 31.48V35.44C184.93 35.44 185.88 34.98 186.62 34.06C187.36 33.14 187.73 32.02 187.73 30.7C187.73 28.3 187.11 27.1 185.87 27.1C184.47 27.1 183.77 28.56 183.77 31.48Z" fill="#CF3700"/>
<path d="M236.33 54.3398C229.69 54.3398 224.83 53.6998 221.75 52.4198C220.19 51.7398 219.41 51.0798 219.41 50.4398C219.41 48.7998 219.89 46.8798 220.85 44.6798C221.81 42.4798 222.65 41.3798 223.37 41.3798C223.77 41.3798 225.12 41.8198 227.42 42.6998C229.72 43.5798 231.66 44.0198 233.24 44.0198C234.82 44.0198 235.86 43.9198 236.36 43.7198C236.86 43.5198 237.11 43.1298 237.11 42.5498C237.11 41.9698 236.71 41.5098 235.91 41.1698C235.11 40.8298 234.11 40.5998 232.91 40.4798C231.71 40.3598 230.42 40.1198 229.04 39.7598C227.66 39.3998 226.37 38.9398 225.17 38.3798C223.97 37.8198 222.97 36.8898 222.17 35.5898C221.37 34.2898 220.97 32.8898 220.97 31.3898C220.97 29.8898 221.01 28.7698 221.09 28.0298C221.17 27.2898 221.5 26.2498 222.08 24.9098C222.66 23.5698 223.48 22.4798 224.54 21.6398C225.6 20.7998 227.24 20.0398 229.46 19.3598C231.68 18.6798 234.17 18.3398 236.93 18.3398C239.69 18.3398 242 18.4298 243.86 18.6098C245.72 18.7898 247.18 19.0198 248.24 19.2998C249.3 19.5798 250.17 19.8998 250.85 20.2598C252.01 20.8598 252.59 21.5198 252.59 22.2398C252.59 23.7998 252.03 25.5998 250.91 27.6398C249.79 29.6798 248.9 30.6998 248.24 30.6998C247.58 30.6998 246.15 30.3498 243.95 29.6498C241.75 28.9498 240.13 28.5998 239.09 28.5998C237.41 28.5998 236.57 29.0798 236.57 30.0398C236.57 30.6398 237.14 31.0898 238.28 31.3898C239.42 31.6898 240.79 31.9998 242.39 32.3198C243.99 32.6398 245.6 33.0898 247.22 33.6698C248.84 34.2498 250.22 35.2998 251.36 36.8198C252.5 38.3398 253.07 40.2598 253.07 42.5798C253.07 50.4198 247.49 54.3398 236.33 54.3398Z" fill="#CF3700"/>
<path d="M302.21 52.36C301.69 53.32 298.98 53.8 294.08 53.8C289.18 53.8 286.63 53.32 286.43 52.36L284.39 41.44H283.55L281.63 52.36C281.51 53.32 278.01 53.8 271.13 53.8C269.21 53.8 267.94 53.69 267.32 53.47C266.7 53.25 266.27 52.88 266.03 52.36C258.59 34.08 254.87 24.46 254.87 23.5C254.87 22.54 256.32 21.55 259.22 20.53C262.12 19.51 264.91 19 267.59 19C271.03 19 272.81 19.92 272.93 21.76L274.97 38.2H275.69L276.41 24.94C276.45 23.94 277.47 23.06 279.47 22.3C281.47 21.54 283.49 21.16 285.53 21.16C287.57 21.16 289.1 21.41 290.12 21.91C291.14 22.41 291.67 23.02 291.71 23.74L292.37 38.2H293.03L295.01 22.78C295.13 21.82 296.48 20.95 299.06 20.17C301.64 19.39 303.91 19 305.87 19C307.83 19 309.37 19.28 310.49 19.84C312.33 20.72 313.25 21.76 313.25 22.96C313.25 23.08 311.44 27.96 307.82 37.6C304.2 47.24 302.33 52.16 302.21 52.36Z" fill="#CF3700"/>
<path d="M331.42 40.24C331.42 42.84 332.66 44.14 335.14 44.14C336.58 44.14 338.46 43.65 340.78 42.67C343.1 41.69 344.32 41.2 344.44 41.2C345.2 41.2 346.2 42.34 347.44 44.62C348.68 46.9 349.3 48.58 349.3 49.66C349.3 51.22 347.7 52.4 344.5 53.2C341.3 54 338.17 54.4 335.11 54.4C332.05 54.4 329.49 54.16 327.43 53.68C325.37 53.2 323.69 52.59 322.39 51.85C321.09 51.11 319.95 50.2 318.97 49.12C317.99 48.04 317.26 47.01 316.78 46.03C316.3 45.05 315.92 43.96 315.64 42.76C315.24 41 315.04 39.18 315.04 37.3C315.04 30.02 316.94 25 320.74 22.24C322.62 20.84 324.72 19.86 327.04 19.3C329.36 18.74 332.1 18.46 335.26 18.46C345.38 18.46 350.44 21.98 350.44 29.02C350.44 36.5 344.76 40.24 333.4 40.24H331.42ZM331.3 31.48V35.44C332.46 35.44 333.41 34.98 334.15 34.06C334.89 33.14 335.26 32.02 335.26 30.7C335.26 28.3 334.64 27.1 333.4 27.1C332 27.1 331.3 28.56 331.3 31.48Z" fill="#CF3700"/>
<path d="M369.82 40.24C369.82 42.84 371.06 44.14 373.54 44.14C374.98 44.14 376.86 43.65 379.18 42.67C381.5 41.69 382.72 41.2 382.84 41.2C383.6 41.2 384.6 42.34 385.84 44.62C387.08 46.9 387.7 48.58 387.7 49.66C387.7 51.22 386.1 52.4 382.9 53.2C379.7 54 376.57 54.4 373.51 54.4C370.45 54.4 367.89 54.16 365.83 53.68C363.77 53.2 362.09 52.59 360.79 51.85C359.49 51.11 358.35 50.2 357.37 49.12C356.39 48.04 355.66 47.01 355.18 46.03C354.7 45.05 354.32 43.96 354.04 42.76C353.64 41 353.44 39.18 353.44 37.3C353.44 30.02 355.34 25 359.14 22.24C361.02 20.84 363.12 19.86 365.44 19.3C367.76 18.74 370.5 18.46 373.66 18.46C383.78 18.46 388.84 21.98 388.84 29.02C388.84 36.5 383.16 40.24 371.8 40.24H369.82ZM369.7 31.48V35.44C370.86 35.44 371.81 34.98 372.55 34.06C373.29 33.14 373.66 32.02 373.66 30.7C373.66 28.3 373.04 27.1 371.8 27.1C370.4 27.1 369.7 28.56 369.7 31.48Z" fill="#CF3700"/>
<path d="M416.03 53.26C415.31 53.94 413.67 54.28 411.11 54.28C408.55 54.28 406.43 54.11 404.75 53.77C403.07 53.43 401.47 52.76 399.95 51.76C397.03 49.8 395.57 45.72 395.57 39.52V30.16H392.57C392.13 30.16 391.75 29.7 391.43 28.78C391.11 27.86 390.95 26.6 390.95 25C390.95 23.4 391.2 21.99 391.7 20.77C392.2 19.55 392.85 18.94 393.65 18.94H395.57V11.68C395.57 10.44 396.78 9.44004 399.2 8.68004C401.62 7.92004 403.99 7.54004 406.31 7.54004C409.95 7.54004 411.77 8.44004 411.77 10.24V18.94H416.21C417.25 18.94 417.77 20.44 417.77 23.44C417.77 25.4 417.54 27.01 417.08 28.27C416.62 29.53 416.03 30.16 415.31 30.16H411.77V41.14C411.77 42.22 412.23 42.99 413.15 43.45C414.07 43.91 414.88 44.14 415.58 44.14C416.28 44.14 416.71 44.48 416.87 45.16C417.03 45.84 417.11 46.86 417.11 48.22C417.11 50.9 416.75 52.58 416.03 53.26Z" fill="#CF3700"/>
<path d="M437.14 40.24C437.14 42.84 438.38 44.14 440.86 44.14C442.3 44.14 444.18 43.65 446.5 42.67C448.82 41.69 450.04 41.2 450.16 41.2C450.92 41.2 451.92 42.34 453.16 44.62C454.4 46.9 455.02 48.58 455.02 49.66C455.02 51.22 453.42 52.4 450.22 53.2C447.02 54 443.89 54.4 440.83 54.4C437.77 54.4 435.21 54.16 433.15 53.68C431.09 53.2 429.41 52.59 428.11 51.85C426.81 51.11 425.67 50.2 424.69 49.12C423.71 48.04 422.98 47.01 422.5 46.03C422.02 45.05 421.64 43.96 421.36 42.76C420.96 41 420.76 39.18 420.76 37.3C420.76 30.02 422.66 25 426.46 22.24C428.34 20.84 430.44 19.86 432.76 19.3C435.08 18.74 437.82 18.46 440.98 18.46C451.1 18.46 456.16 21.98 456.16 29.02C456.16 36.5 450.48 40.24 439.12 40.24H437.14ZM437.02 31.48V35.44C438.18 35.44 439.13 34.98 439.87 34.06C440.61 33.14 440.98 32.02 440.98 30.7C440.98 28.3 440.36 27.1 439.12 27.1C437.72 27.1 437.02 28.56 437.02 31.48Z" fill="#CF3700"/>
<path d="M476.08 54.3398C469.44 54.3398 464.58 53.6998 461.5 52.4198C459.94 51.7398 459.16 51.0798 459.16 50.4398C459.16 48.7998 459.64 46.8798 460.6 44.6798C461.56 42.4798 462.4 41.3798 463.12 41.3798C463.52 41.3798 464.87 41.8198 467.17 42.6998C469.47 43.5798 471.41 44.0198 472.99 44.0198C474.57 44.0198 475.61 43.9198 476.11 43.7198C476.61 43.5198 476.86 43.1298 476.86 42.5498C476.86 41.9698 476.46 41.5098 475.66 41.1698C474.86 40.8298 473.86 40.5998 472.66 40.4798C471.46 40.3598 470.17 40.1198 468.79 39.7598C467.41 39.3998 466.12 38.9398 464.92 38.3798C463.72 37.8198 462.72 36.8898 461.92 35.5898C461.12 34.2898 460.72 32.8898 460.72 31.3898C460.72 29.8898 460.76 28.7698 460.84 28.0298C460.92 27.2898 461.25 26.2498 461.83 24.9098C462.41 23.5698 463.23 22.4798 464.29 21.6398C465.35 20.7998 466.99 20.0398 469.21 19.3598C471.43 18.6798 473.92 18.3398 476.68 18.3398C479.44 18.3398 481.75 18.4298 483.61 18.6098C485.47 18.7898 486.93 19.0198 487.99 19.2998C489.05 19.5798 489.92 19.8998 490.6 20.2598C491.76 20.8598 492.34 21.5198 492.34 22.2398C492.34 23.7998 491.78 25.5998 490.66 27.6398C489.54 29.6798 488.65 30.6998 487.99 30.6998C487.33 30.6998 485.9 30.3498 483.7 29.6498C481.5 28.9498 479.88 28.5998 478.84 28.5998C477.16 28.5998 476.32 29.0798 476.32 30.0398C476.32 30.6398 476.89 31.0898 478.03 31.3898C479.17 31.6898 480.54 31.9998 482.14 32.3198C483.74 32.6398 485.35 33.0898 486.97 33.6698C488.59 34.2498 489.97 35.2998 491.11 36.8198C492.25 38.3398 492.82 40.2598 492.82 42.5798C492.82 50.4198 487.24 54.3398 476.08 54.3398Z" fill="#CF3700"/>
<path d="M520 53.26C519.28 53.94 517.64 54.28 515.08 54.28C512.52 54.28 510.4 54.11 508.72 53.77C507.04 53.43 505.44 52.76 503.92 51.76C501 49.8 499.54 45.72 499.54 39.52V30.16H496.54C496.1 30.16 495.72 29.7 495.4 28.78C495.08 27.86 494.92 26.6 494.92 25C494.92 23.4 495.17 21.99 495.67 20.77C496.17 19.55 496.82 18.94 497.62 18.94H499.54V11.68C499.54 10.44 500.75 9.44004 503.17 8.68004C505.59 7.92004 507.96 7.54004 510.28 7.54004C513.92 7.54004 515.74 8.44004 515.74 10.24V18.94H520.18C521.22 18.94 521.74 20.44 521.74 23.44C521.74 25.4 521.51 27.01 521.05 28.27C520.59 29.53 520 30.16 519.28 30.16H515.74V41.14C515.74 42.22 516.2 42.99 517.12 43.45C518.04 43.91 518.85 44.14 519.55 44.14C520.25 44.14 520.68 44.48 520.84 45.16C521 45.84 521.08 46.86 521.08 48.22C521.08 50.9 520.72 52.58 520 53.26Z" fill="#CF3700"/>
<path d="M52.34 124.36C51.82 125.32 49.11 125.8 44.21 125.8C39.31 125.8 36.76 125.32 36.56 124.36L34.52 113.44H33.68L31.76 124.36C31.64 125.32 28.14 125.8 21.26 125.8C19.34 125.8 18.07 125.69 17.45 125.47C16.83 125.25 16.4 124.88 16.16 124.36C8.72 106.08 5 96.46 5 95.5C5 94.54 6.45 93.55 9.35 92.53C12.25 91.51 15.04 91 17.72 91C21.16 91 22.94 91.92 23.06 93.76L25.1 110.2H25.82L26.54 96.94C26.58 95.94 27.6 95.06 29.6 94.3C31.6 93.54 33.62 93.16 35.66 93.16C37.7 93.16 39.23 93.41 40.25 93.91C41.27 94.41 41.8 95.02 41.84 95.74L42.5 110.2H43.16L45.14 94.78C45.26 93.82 46.61 92.95 49.19 92.17C51.77 91.39 54.04 91 56 91C57.96 91 59.5 91.28 60.62 91.84C62.46 92.72 63.38 93.76 63.38 94.96C63.38 95.08 61.57 99.96 57.95 109.6C54.33 119.24 52.46 124.16 52.34 124.36Z" fill="#CF3700"/>
<path d="M81.5602 112.24C81.5602 114.84 82.8002 116.14 85.2802 116.14C86.7202 116.14 88.6002 115.65 90.9202 114.67C93.2402 113.69 94.4602 113.2 94.5802 113.2C95.3402 113.2 96.3402 114.34 97.5802 116.62C98.8202 118.9 99.4402 120.58 99.4402 121.66C99.4402 123.22 97.8402 124.4 94.6402 125.2C91.4402 126 88.3102 126.4 85.2502 126.4C82.1902 126.4 79.6302 126.16 77.5702 125.68C75.5102 125.2 73.8302 124.59 72.5302 123.85C71.2302 123.11 70.0902 122.2 69.1102 121.12C68.1302 120.04 67.4002 119.01 66.9202 118.03C66.4402 117.05 66.0602 115.96 65.7802 114.76C65.3802 113 65.1802 111.18 65.1802 109.3C65.1802 102.02 67.0802 97 70.8802 94.24C72.7602 92.84 74.8602 91.86 77.1802 91.3C79.5002 90.74 82.2402 90.46 85.4002 90.46C95.5202 90.46 100.58 93.98 100.58 101.02C100.58 108.5 94.9002 112.24 83.5402 112.24H81.5602ZM81.4402 103.48V107.44C82.6002 107.44 83.5502 106.98 84.2902 106.06C85.0302 105.14 85.4002 104.02 85.4002 102.7C85.4002 100.3 84.7802 99.1 83.5402 99.1C82.1402 99.1 81.4402 100.56 81.4402 103.48Z" fill="#CF3700"/>
<path d="M107.48 125.2C105.28 124.64 104.18 123.8 104.18 122.68V84.6398C104.18 83.7598 105.36 82.8998 107.72 82.0598C110.08 81.2198 112.56 80.7998 115.16 80.7998C118.68 80.7998 120.44 81.7198 120.44 83.5598V90.3398L119.78 94.4798H120.26C120.5 94.1198 120.95 93.6798 121.61 93.1598C122.27 92.6398 122.96 92.1998 123.68 91.8398C125.44 90.9198 127.38 90.4598 129.5 90.4598C131.62 90.4598 133.29 90.7298 134.51 91.2698C135.73 91.8098 136.71 92.5098 137.45 93.3698C138.19 94.2298 138.78 95.3198 139.22 96.6398C139.98 98.9198 140.36 101.76 140.36 105.16C140.36 110.8 139.72 115.12 138.44 118.12C137.16 121.12 135.08 123.24 132.2 124.48C129.32 125.72 125.26 126.34 120.02 126.34C114.78 126.34 110.6 125.96 107.48 125.2ZM120.38 117.52H122.24C123.52 117.52 124.16 114.45 124.16 108.31C124.16 102.17 123.5 99.0998 122.18 99.0998H120.38V117.52Z" fill="#CF3700"/>
<path d="M160.58 126.34C153.94 126.34 149.08 125.7 146 124.42C144.44 123.74 143.66 123.08 143.66 122.44C143.66 120.8 144.14 118.88 145.1 116.68C146.06 114.48 146.9 113.38 147.62 113.38C148.02 113.38 149.37 113.82 151.67 114.7C153.97 115.58 155.91 116.02 157.49 116.02C159.07 116.02 160.11 115.92 160.61 115.72C161.11 115.52 161.36 115.13 161.36 114.55C161.36 113.97 160.96 113.51 160.16 113.17C159.36 112.83 158.36 112.6 157.16 112.48C155.96 112.36 154.67 112.12 153.29 111.76C151.91 111.4 150.62 110.94 149.42 110.38C148.22 109.82 147.22 108.89 146.42 107.59C145.62 106.29 145.22 104.89 145.22 103.39C145.22 101.89 145.26 100.77 145.34 100.03C145.42 99.2898 145.75 98.2499 146.33 96.9099C146.91 95.5699 147.73 94.4798 148.79 93.6398C149.85 92.7998 151.49 92.0398 153.71 91.3598C155.93 90.6798 158.42 90.3398 161.18 90.3398C163.94 90.3398 166.25 90.4298 168.11 90.6098C169.97 90.7898 171.43 91.0199 172.49 91.2999C173.55 91.5799 174.42 91.8998 175.1 92.2598C176.26 92.8598 176.84 93.5198 176.84 94.2398C176.84 95.7998 176.28 97.5998 175.16 99.6398C174.04 101.68 173.15 102.7 172.49 102.7C171.83 102.7 170.4 102.35 168.2 101.65C166 100.95 164.38 100.6 163.34 100.6C161.66 100.6 160.82 101.08 160.82 102.04C160.82 102.64 161.39 103.09 162.53 103.39C163.67 103.69 165.04 104 166.64 104.32C168.24 104.64 169.85 105.09 171.47 105.67C173.09 106.25 174.47 107.3 175.61 108.82C176.75 110.34 177.32 112.26 177.32 114.58C177.32 122.42 171.74 126.34 160.58 126.34Z" fill="#CF3700"/>
<path d="M189.26 79C191.9 79 193.97 79.39 195.47 80.17C196.97 80.95 197.72 82.36 197.72 84.4C197.72 88 194.92 89.8 189.32 89.8C183.72 89.8 180.92 88 180.92 84.4C180.92 80.8 183.7 79 189.26 79ZM197.42 94.78V124.36C197.42 124.8 196.27 125.15 193.97 125.41C191.67 125.67 189.31 125.8 186.89 125.8C184.47 125.8 182.91 125.69 182.21 125.47C181.51 125.25 181.16 124.88 181.16 124.36V95.86C181.16 94.98 182.29 94.11 184.55 93.25C186.81 92.39 189.28 91.96 191.96 91.96C195.6 91.96 197.42 92.9 197.42 94.78Z" fill="#CF3700"/>
<path d="M225.5 125.26C224.78 125.94 223.14 126.28 220.58 126.28C218.02 126.28 215.9 126.11 214.22 125.77C212.54 125.43 210.94 124.76 209.42 123.76C206.5 121.8 205.04 117.72 205.04 111.52V102.16H202.04C201.6 102.16 201.22 101.7 200.9 100.78C200.58 99.86 200.42 98.6 200.42 97C200.42 95.4 200.67 93.99 201.17 92.77C201.67 91.55 202.32 90.94 203.12 90.94H205.04V83.68C205.04 82.44 206.25 81.44 208.67 80.68C211.09 79.92 213.46 79.54 215.78 79.54C219.42 79.54 221.24 80.44 221.24 82.24V90.94H225.68C226.72 90.94 227.24 92.44 227.24 95.44C227.24 97.4 227.01 99.01 226.55 100.27C226.09 101.53 225.5 102.16 224.78 102.16H221.24V113.14C221.24 114.22 221.7 114.99 222.62 115.45C223.54 115.91 224.35 116.14 225.05 116.14C225.75 116.14 226.18 116.48 226.34 117.16C226.5 117.84 226.58 118.86 226.58 120.22C226.58 122.9 226.22 124.58 225.5 125.26Z" fill="#CF3700"/>
<path d="M246.62 112.24C246.62 114.84 247.86 116.14 250.34 116.14C251.78 116.14 253.66 115.65 255.98 114.67C258.3 113.69 259.52 113.2 259.64 113.2C260.4 113.2 261.4 114.34 262.64 116.62C263.88 118.9 264.5 120.58 264.5 121.66C264.5 123.22 262.9 124.4 259.7 125.2C256.5 126 253.37 126.4 250.31 126.4C247.25 126.4 244.69 126.16 242.63 125.68C240.57 125.2 238.89 124.59 237.59 123.85C236.29 123.11 235.15 122.2 234.17 121.12C233.19 120.04 232.46 119.01 231.98 118.03C231.5 117.05 231.12 115.96 230.84 114.76C230.44 113 230.24 111.18 230.24 109.3C230.24 102.02 232.14 97 235.94 94.24C237.82 92.84 239.92 91.86 242.24 91.3C244.56 90.74 247.3 90.46 250.46 90.46C260.58 90.46 265.64 93.98 265.64 101.02C265.64 108.5 259.96 112.24 248.6 112.24H246.62ZM246.5 103.48V107.44C247.66 107.44 248.61 106.98 249.35 106.06C250.09 105.14 250.46 104.02 250.46 102.7C250.46 100.3 249.84 99.1 248.6 99.1C247.2 99.1 246.5 100.56 246.5 103.48Z" fill="#CF3700"/>
<path d="M291.08 79C293.72 79 295.79 79.39 297.29 80.17C298.79 80.95 299.54 82.36 299.54 84.4C299.54 88 296.74 89.8 291.14 89.8C285.54 89.8 282.74 88 282.74 84.4C282.74 80.8 285.52 79 291.08 79ZM299.24 94.78V124.36C299.24 124.8 298.09 125.15 295.79 125.41C293.49 125.67 291.13 125.8 288.71 125.8C286.29 125.8 284.73 125.69 284.03 125.47C283.33 125.25 282.98 124.88 282.98 124.36V95.86C282.98 94.98 284.11 94.11 286.37 93.25C288.63 92.39 291.1 91.96 293.78 91.96C297.42 91.96 299.24 92.9 299.24 94.78Z" fill="#CF3700"/>
<path d="M320.06 126.34C313.42 126.34 308.56 125.7 305.48 124.42C303.92 123.74 303.14 123.08 303.14 122.44C303.14 120.8 303.62 118.88 304.58 116.68C305.54 114.48 306.38 113.38 307.1 113.38C307.5 113.38 308.85 113.82 311.15 114.7C313.45 115.58 315.39 116.02 316.97 116.02C318.55 116.02 319.59 115.92 320.09 115.72C320.59 115.52 320.84 115.13 320.84 114.55C320.84 113.97 320.44 113.51 319.64 113.17C318.84 112.83 317.84 112.6 316.64 112.48C315.44 112.36 314.15 112.12 312.77 111.76C311.39 111.4 310.1 110.94 308.9 110.38C307.7 109.82 306.7 108.89 305.9 107.59C305.1 106.29 304.7 104.89 304.7 103.39C304.7 101.89 304.74 100.77 304.82 100.03C304.9 99.2898 305.23 98.2499 305.81 96.9099C306.39 95.5699 307.21 94.4798 308.27 93.6398C309.33 92.7998 310.97 92.0398 313.19 91.3598C315.41 90.6798 317.9 90.3398 320.66 90.3398C323.42 90.3398 325.73 90.4298 327.59 90.6098C329.45 90.7898 330.91 91.0199 331.97 91.2999C333.03 91.5799 333.9 91.8998 334.58 92.2598C335.74 92.8598 336.32 93.5198 336.32 94.2398C336.32 95.7998 335.76 97.5998 334.64 99.6398C333.52 101.68 332.63 102.7 331.97 102.7C331.31 102.7 329.88 102.35 327.68 101.65C325.48 100.95 323.86 100.6 322.82 100.6C321.14 100.6 320.3 101.08 320.3 102.04C320.3 102.64 320.87 103.09 322.01 103.39C323.15 103.69 324.52 104 326.12 104.32C327.72 104.64 329.33 105.09 330.95 105.67C332.57 106.25 333.95 107.3 335.09 108.82C336.23 110.34 336.8 112.26 336.8 114.58C336.8 122.42 331.22 126.34 320.06 126.34Z" fill="#CF3700"/>
<path d="M361.64 124.78C360.68 124.34 359.65 123.68 358.55 122.8C357.45 121.92 356.54 120.88 355.82 119.68C354.14 116.8 353.3 113.04 353.3 108.4C353.3 105.52 353.76 102.95 354.68 100.69C355.6 98.43 356.72 96.68 358.04 95.44C359.36 94.2 360.88 93.18 362.6 92.38C365.36 91.1 368.12 90.46 370.88 90.46C375.52 90.46 378.75 90.82 380.57 91.54C382.39 92.26 383.3 93.48 383.3 95.2C383.3 96.92 382.99 98.75 382.37 100.69C381.75 102.63 380.94 103.6 379.94 103.6C379.62 103.6 378.65 103.26 377.03 102.58C375.41 101.9 374.01 101.56 372.83 101.56C371.65 101.56 370.75 102.03 370.13 102.97C369.51 103.91 369.2 105.73 369.2 108.43C369.2 111.13 369.48 112.97 370.04 113.95C370.6 114.93 371.47 115.42 372.65 115.42C373.83 115.42 375.3 115.02 377.06 114.22C378.82 113.42 379.8 113.02 380 113.02C380.76 113.02 381.49 113.92 382.19 115.72C382.89 117.52 383.24 119.12 383.24 120.52C383.24 122.68 382.12 124.19 379.88 125.05C377.64 125.91 374.61 126.34 370.79 126.34C366.97 126.34 363.92 125.82 361.64 124.78Z" fill="#CF3700"/>
<path d="M405.38 126.34C402.38 126.34 399.8 126.08 397.64 125.56C395.48 125.04 393.52 124.12 391.76 122.8C388.12 120.16 386.3 115.24 386.3 108.04C386.3 101.64 388.16 97.06 391.88 94.3C395.36 91.74 399.86 90.46 405.38 90.46C407.74 90.46 409.76 90.57 411.44 90.79C413.12 91.01 414.83 91.48 416.57 92.2C418.31 92.92 419.71 93.9 420.77 95.14C421.83 96.38 422.7 98.09 423.38 100.27C424.06 102.45 424.4 105.04 424.4 108.04C424.4 114.12 422.68 118.69 419.24 121.75C415.8 124.81 411.18 126.34 405.38 126.34ZM403.28 114.64C403.56 116.08 403.85 116.94 404.15 117.22C404.45 117.5 404.85 117.64 405.35 117.64C405.85 117.64 406.25 117.5 406.55 117.22C406.85 116.94 407.13 116.08 407.39 114.64C407.65 113.2 407.78 111.39 407.78 109.21C407.78 107.03 407.73 105.35 407.63 104.17C407.53 102.99 407.41 102.08 407.27 101.44C407.13 100.8 406.94 100.3 406.7 99.94C406.34 99.42 405.91 99.16 405.41 99.16C404.91 99.16 404.5 99.31 404.18 99.61C403.86 99.91 403.56 100.79 403.28 102.25C403 103.71 402.86 105.78 402.86 108.46C402.86 111.14 403 113.2 403.28 114.64Z" fill="#CF3700"/>
<path d="M482.66 106V124.36C482.66 124.8 481.53 125.15 479.27 125.41C477.01 125.67 474.67 125.8 472.25 125.8C469.83 125.8 468.26 125.69 467.54 125.47C466.82 125.25 466.46 124.88 466.46 124.36V107.74C466.46 102.02 465.88 99.16 464.72 99.16C464.44 99.16 464.16 99.28 463.88 99.52C463.6 99.76 463.46 100.18 463.46 100.78V124.36C463.46 124.8 462.33 125.15 460.07 125.41C457.81 125.67 455.46 125.8 453.02 125.8C450.58 125.8 449.01 125.69 448.31 125.47C447.61 125.25 447.26 124.88 447.26 124.36V107.74C447.26 103.3 446.98 100.64 446.42 99.76C446.14 99.36 445.78 99.16 445.34 99.16C444.58 99.16 444.2 99.7 444.2 100.78V124.36C444.2 124.8 443.06 125.15 440.78 125.41C438.5 125.67 436.15 125.8 433.73 125.8C431.31 125.8 429.75 125.69 429.05 125.47C428.35 125.25 428 124.88 428 124.36V94.78C428 93.94 429.15 93.1 431.45 92.26C433.75 91.42 436.18 91 438.74 91C441.3 91 442.74 91.74 443.06 93.22L443.6 95.86H444.02C445.18 93.58 447.1 91.96 449.78 91C450.9 90.64 452.34 90.46 454.1 90.46C457.62 90.46 460.18 92.26 461.78 95.86C462.3 94.66 463.6 93.46 465.68 92.26C467.76 91.06 470.06 90.46 472.58 90.46C476.54 90.46 479.21 91.69 480.59 94.15C481.97 96.61 482.66 100.56 482.66 106Z" fill="#CF3700"/>
<path d="M495.19 79C497.83 79 499.9 79.39 501.4 80.17C502.9 80.95 503.65 82.36 503.65 84.4C503.65 88 500.85 89.8 495.25 89.8C489.65 89.8 486.85 88 486.85 84.4C486.85 80.8 489.63 79 495.19 79ZM503.35 94.78V124.36C503.35 124.8 502.2 125.15 499.9 125.41C497.6 125.67 495.24 125.8 492.82 125.8C490.4 125.8 488.84 125.69 488.14 125.47C487.44 125.25 487.09 124.88 487.09 124.36V95.86C487.09 94.98 488.22 94.11 490.48 93.25C492.74 92.39 495.21 91.96 497.89 91.96C501.53 91.96 503.35 92.9 503.35 94.78Z" fill="#CF3700"/>
<path d="M544.03 105.88V124.36C544.03 124.8 542.89 125.15 540.61 125.41C538.33 125.67 535.98 125.8 533.56 125.8C531.14 125.8 529.58 125.69 528.88 125.47C528.18 125.25 527.83 124.88 527.83 124.36V105.28C527.83 103.48 527.76 102.3 527.62 101.74C527.48 101.18 527.35 100.68 527.23 100.24C526.95 99.48 526.45 99.1 525.73 99.1C524.61 99.1 524.05 99.64 524.05 100.72V124.36C524.05 124.8 522.92 125.15 520.66 125.41C518.4 125.67 516.06 125.8 513.64 125.8C511.22 125.8 509.65 125.69 508.93 125.47C508.21 125.25 507.85 124.88 507.85 124.36V94.78C507.85 93.94 509 93.1 511.3 92.26C513.6 91.42 516.03 91 518.59 91C521.15 91 522.59 91.74 522.91 93.22L523.45 95.86H523.87C525.03 93.54 527.03 91.92 529.87 91C531.03 90.64 532.31 90.46 533.71 90.46C537.75 90.46 540.48 91.67 541.9 94.09C543.32 96.51 544.03 100.44 544.03 105.88Z" fill="#CF3700"/>
<path d="M568.27 121.84V118.36H567.79C567.63 118.56 567.35 118.81 566.95 119.11C566.55 119.41 565.56 119.82 563.98 120.34C562.4 120.86 560.62 121.12 558.64 121.12C556.66 121.12 554.99 120.82 553.63 120.22C552.27 119.62 551.21 118.87 550.45 117.97C549.69 117.07 549.09 115.86 548.65 114.34C547.97 111.98 547.63 108.78 547.63 104.74C547.63 100.1 548.61 96.54 550.57 94.06C551.33 93.06 552.46 92.21 553.96 91.51C555.46 90.81 557.07 90.46 558.79 90.46C560.51 90.46 561.93 90.65 563.05 91.03C564.17 91.41 565.01 91.86 565.57 92.38C566.69 93.5 567.33 94.48 567.49 95.32L567.55 95.86H568.03L568.57 93.52C568.97 91.84 572.13 91 578.05 91C580.69 91 582.29 91.4 582.85 92.2C583.17 92.68 583.37 93.13 583.45 93.55C583.53 93.97 583.57 94.6 583.57 95.44V120.58C583.57 125.3 582.03 128.9 578.95 131.38C575.87 133.86 571.35 135.1 565.39 135.1C559.07 135.1 554.77 134.48 552.49 133.24C551.49 132.68 550.99 132.1 550.99 131.5C550.99 130.54 551.38 128.92 552.16 126.64C552.94 124.36 553.67 123.22 554.35 123.22C554.51 123.22 555.07 123.36 556.03 123.64C559.07 124.44 561.54 124.84 563.44 124.84C565.34 124.84 566.62 124.6 567.28 124.12C567.94 123.64 568.27 122.88 568.27 121.84ZM565.87 114.28C566.31 114.28 566.67 114.12 566.95 113.8C567.23 113.48 567.37 113.12 567.37 112.72V100.36C567.21 99.52 566.77 99.1 566.05 99.1C564.53 99.1 563.77 101.6 563.77 106.6C563.77 108.92 563.96 110.78 564.34 112.18C564.72 113.58 565.23 114.28 565.87 114.28Z" fill="#CF3700"/>
<path d="M590.95 82.7499C593.27 82.4899 595.99 82.3599 599.11 82.3599C602.23 82.3599 603.79 82.8199 603.79 83.7399C603.79 84.8999 603.43 94.5399 602.71 112.66C602.67 113.66 601.95 114.56 600.55 115.36C599.15 116.16 597.17 116.56 594.61 116.56C591.13 116.56 589.31 115.62 589.15 113.74L587.53 83.7999C587.49 83.3599 588.63 83.0099 590.95 82.7499ZM601.18 129.49C599.88 130.27 598.06 130.66 595.72 130.66C593.38 130.66 591.59 130.31 590.35 129.61C589.11 128.91 588.49 127.46 588.49 125.26C588.49 121.66 590.93 119.86 595.81 119.86C600.69 119.86 603.13 121.66 603.13 125.26C603.13 127.3 602.48 128.71 601.18 129.49Z" fill="#CF3700"/>
</g>
<path d="M106.26 46.4102C103.8 46.6702 101.34 46.8002 98.88 46.8002C96.42 46.8002 94.86 46.6902 94.2 46.4702C93.54 46.2502 93.21 45.8802 93.21 45.3602V19.5602H84.87C84.43 19.5602 84.05 19.0002 83.73 17.8802C83.41 16.7602 83.25 15.0902 83.25 12.8702C83.25 10.6502 83.49 8.6502 83.97 6.8702C84.45 5.0902 85.09 4.2002 85.89 4.2002H118.35C118.95 4.2002 119.36 4.7602 119.58 5.8802C119.8 7.0002 119.91 8.6202 119.91 10.7402C119.91 12.8602 119.69 14.8602 119.25 16.7402C118.81 18.6202 118.21 19.5602 117.45 19.5602H109.95V45.3602C109.95 45.8002 108.72 46.1502 106.26 46.4102Z" fill="#FBFFB3"/>
<path d="M142.71 45.36V28.68C142.71 25.68 142.59 23.5 142.35 22.14C142.11 20.78 141.53 20.1 140.61 20.1C139.81 20.1 139.41 20.64 139.41 21.72V45.36C139.41 45.8 138.25 46.15 135.93 46.41C133.61 46.67 131.23 46.8 128.79 46.8C126.35 46.8 124.81 46.69 124.17 46.47C123.53 46.25 123.21 45.88 123.21 45.36V3.78C123.21 2.94 124.37 2.1 126.69 1.26C129.01 0.42 131.45 0 134.01 0C136.57 0 138.39 0.5 139.11 1.5C139.35 1.82 139.47 2.16 139.47 2.52V11.34L138.81 15.48H139.23C139.79 14.64 140.67 13.9 141.87 13.26C144.11 12.06 146.55 11.46 149.19 11.46C152.99 11.46 155.56 12.67 156.9 15.09C158.24 17.51 158.91 21.44 158.91 26.88V45.36C158.91 45.8 157.74 46.15 155.4 46.41C153.06 46.67 150.68 46.8 148.26 46.8C145.84 46.8 144.31 46.69 143.67 46.47C143.03 46.25 142.71 45.88 142.71 45.36Z" fill="#FBFFB3"/>
<path d="M178.89 33.24C178.89 35.84 180.13 37.14 182.61 37.14C184.05 37.14 185.93 36.65 188.25 35.67C190.57 34.69 191.79 34.2 191.91 34.2C192.67 34.2 193.67 35.34 194.91 37.62C196.15 39.9 196.77 41.58 196.77 42.66C196.77 44.22 195.17 45.4 191.97 46.2C188.77 47 185.64 47.4 182.58 47.4C179.52 47.4 176.96 47.16 174.9 46.68C172.84 46.2 171.16 45.59 169.86 44.85C168.56 44.11 167.42 43.2 166.44 42.12C165.46 41.04 164.73 40.01 164.25 39.03C163.77 38.05 163.39 36.96 163.11 35.76C162.71 34 162.51 32.18 162.51 30.3C162.51 23.02 164.41 18 168.21 15.24C170.09 13.84 172.19 12.86 174.51 12.3C176.83 11.74 179.57 11.46 182.73 11.46C192.85 11.46 197.91 14.98 197.91 22.02C197.91 29.5 192.23 33.24 180.87 33.24H178.89ZM178.77 24.48V28.44C179.93 28.44 180.88 27.98 181.62 27.06C182.36 26.14 182.73 25.02 182.73 23.7C182.73 21.3 182.11 20.1 180.87 20.1C179.47 20.1 178.77 21.56 178.77 24.48Z" fill="#FBFFB3"/>
<path d="M231.33 47.3398C224.69 47.3398 219.83 46.6998 216.75 45.4198C215.19 44.7398 214.41 44.0798 214.41 43.4398C214.41 41.7998 214.89 39.8798 215.85 37.6798C216.81 35.4798 217.65 34.3798 218.37 34.3798C218.77 34.3798 220.12 34.8198 222.42 35.6998C224.72 36.5798 226.66 37.0198 228.24 37.0198C229.82 37.0198 230.86 36.9198 231.36 36.7198C231.86 36.5198 232.11 36.1298 232.11 35.5498C232.11 34.9698 231.71 34.5098 230.91 34.1698C230.11 33.8298 229.11 33.5998 227.91 33.4798C226.71 33.3598 225.42 33.1198 224.04 32.7598C222.66 32.3998 221.37 31.9398 220.17 31.3798C218.97 30.8198 217.97 29.8898 217.17 28.5898C216.37 27.2898 215.97 25.8898 215.97 24.3898C215.97 22.8898 216.01 21.7698 216.09 21.0298C216.17 20.2898 216.5 19.2498 217.08 17.9098C217.66 16.5698 218.48 15.4798 219.54 14.6398C220.6 13.7998 222.24 13.0398 224.46 12.3598C226.68 11.6798 229.17 11.3398 231.93 11.3398C234.69 11.3398 237 11.4298 238.86 11.6098C240.72 11.7898 242.18 12.0198 243.24 12.2998C244.3 12.5798 245.17 12.8998 245.85 13.2598C247.01 13.8598 247.59 14.5198 247.59 15.2398C247.59 16.7998 247.03 18.5998 245.91 20.6398C244.79 22.6798 243.9 23.6998 243.24 23.6998C242.58 23.6998 241.15 23.3498 238.95 22.6498C236.75 21.9498 235.13 21.5998 234.09 21.5998C232.41 21.5998 231.57 22.0798 231.57 23.0398C231.57 23.6398 232.14 24.0898 233.28 24.3898C234.42 24.6898 235.79 24.9998 237.39 25.3198C238.99 25.6398 240.6 26.0898 242.22 26.6698C243.84 27.2498 245.22 28.2998 246.36 29.8198C247.5 31.3398 248.07 33.2598 248.07 35.5798C248.07 43.4198 242.49 47.3398 231.33 47.3398Z" fill="#FBFFB3"/>
<path d="M297.21 45.36C296.69 46.32 293.98 46.8 289.08 46.8C284.18 46.8 281.63 46.32 281.43 45.36L279.39 34.44H278.55L276.63 45.36C276.51 46.32 273.01 46.8 266.13 46.8C264.21 46.8 262.94 46.69 262.32 46.47C261.7 46.25 261.27 45.88 261.03 45.36C253.59 27.08 249.87 17.46 249.87 16.5C249.87 15.54 251.32 14.55 254.22 13.53C257.12 12.51 259.91 12 262.59 12C266.03 12 267.81 12.92 267.93 14.76L269.97 31.2H270.69L271.41 17.94C271.45 16.94 272.47 16.06 274.47 15.3C276.47 14.54 278.49 14.16 280.53 14.16C282.57 14.16 284.1 14.41 285.12 14.91C286.14 15.41 286.67 16.02 286.71 16.74L287.37 31.2H288.03L290.01 15.78C290.13 14.82 291.48 13.95 294.06 13.17C296.64 12.39 298.91 12 300.87 12C302.83 12 304.37 12.28 305.49 12.84C307.33 13.72 308.25 14.76 308.25 15.96C308.25 16.08 306.44 20.96 302.82 30.6C299.2 40.24 297.33 45.16 297.21 45.36Z" fill="#FBFFB3"/>
<path d="M326.42 33.24C326.42 35.84 327.66 37.14 330.14 37.14C331.58 37.14 333.46 36.65 335.78 35.67C338.1 34.69 339.32 34.2 339.44 34.2C340.2 34.2 341.2 35.34 342.44 37.62C343.68 39.9 344.3 41.58 344.3 42.66C344.3 44.22 342.7 45.4 339.5 46.2C336.3 47 333.17 47.4 330.11 47.4C327.05 47.4 324.49 47.16 322.43 46.68C320.37 46.2 318.69 45.59 317.39 44.85C316.09 44.11 314.95 43.2 313.97 42.12C312.99 41.04 312.26 40.01 311.78 39.03C311.3 38.05 310.92 36.96 310.64 35.76C310.24 34 310.04 32.18 310.04 30.3C310.04 23.02 311.94 18 315.74 15.24C317.62 13.84 319.72 12.86 322.04 12.3C324.36 11.74 327.1 11.46 330.26 11.46C340.38 11.46 345.44 14.98 345.44 22.02C345.44 29.5 339.76 33.24 328.4 33.24H326.42ZM326.3 24.48V28.44C327.46 28.44 328.41 27.98 329.15 27.06C329.89 26.14 330.26 25.02 330.26 23.7C330.26 21.3 329.64 20.1 328.4 20.1C327 20.1 326.3 21.56 326.3 24.48Z" fill="#FBFFB3"/>
<path d="M364.82 33.24C364.82 35.84 366.06 37.14 368.54 37.14C369.98 37.14 371.86 36.65 374.18 35.67C376.5 34.69 377.72 34.2 377.84 34.2C378.6 34.2 379.6 35.34 380.84 37.62C382.08 39.9 382.7 41.58 382.7 42.66C382.7 44.22 381.1 45.4 377.9 46.2C374.7 47 371.57 47.4 368.51 47.4C365.45 47.4 362.89 47.16 360.83 46.68C358.77 46.2 357.09 45.59 355.79 44.85C354.49 44.11 353.35 43.2 352.37 42.12C351.39 41.04 350.66 40.01 350.18 39.03C349.7 38.05 349.32 36.96 349.04 35.76C348.64 34 348.44 32.18 348.44 30.3C348.44 23.02 350.34 18 354.14 15.24C356.02 13.84 358.12 12.86 360.44 12.3C362.76 11.74 365.5 11.46 368.66 11.46C378.78 11.46 383.84 14.98 383.84 22.02C383.84 29.5 378.16 33.24 366.8 33.24H364.82ZM364.7 24.48V28.44C365.86 28.44 366.81 27.98 367.55 27.06C368.29 26.14 368.66 25.02 368.66 23.7C368.66 21.3 368.04 20.1 366.8 20.1C365.4 20.1 364.7 21.56 364.7 24.48Z" fill="#FBFFB3"/>
<path d="M411.03 46.26C410.31 46.94 408.67 47.28 406.11 47.28C403.55 47.28 401.43 47.11 399.75 46.77C398.07 46.43 396.47 45.76 394.95 44.76C392.03 42.8 390.57 38.72 390.57 32.52V23.16H387.57C387.13 23.16 386.75 22.7 386.43 21.78C386.11 20.86 385.95 19.6 385.95 18C385.95 16.4 386.2 14.99 386.7 13.77C387.2 12.55 387.85 11.94 388.65 11.94H390.57V4.68004C390.57 3.44004 391.78 2.44004 394.2 1.68004C396.62 0.920039 398.99 0.540039 401.31 0.540039C404.95 0.540039 406.77 1.44004 406.77 3.24004V11.94H411.21C412.25 11.94 412.77 13.44 412.77 16.44C412.77 18.4 412.54 20.01 412.08 21.27C411.62 22.53 411.03 23.16 410.31 23.16H406.77V34.14C406.77 35.22 407.23 35.99 408.15 36.45C409.07 36.91 409.88 37.14 410.58 37.14C411.28 37.14 411.71 37.48 411.87 38.16C412.03 38.84 412.11 39.86 412.11 41.22C412.11 43.9 411.75 45.58 411.03 46.26Z" fill="#FBFFB3"/>
<path d="M432.14 33.24C432.14 35.84 433.38 37.14 435.86 37.14C437.3 37.14 439.18 36.65 441.5 35.67C443.82 34.69 445.04 34.2 445.16 34.2C445.92 34.2 446.92 35.34 448.16 37.62C449.4 39.9 450.02 41.58 450.02 42.66C450.02 44.22 448.42 45.4 445.22 46.2C442.02 47 438.89 47.4 435.83 47.4C432.77 47.4 430.21 47.16 428.15 46.68C426.09 46.2 424.41 45.59 423.11 44.85C421.81 44.11 420.67 43.2 419.69 42.12C418.71 41.04 417.98 40.01 417.5 39.03C417.02 38.05 416.64 36.96 416.36 35.76C415.96 34 415.76 32.18 415.76 30.3C415.76 23.02 417.66 18 421.46 15.24C423.34 13.84 425.44 12.86 427.76 12.3C430.08 11.74 432.82 11.46 435.98 11.46C446.1 11.46 451.16 14.98 451.16 22.02C451.16 29.5 445.48 33.24 434.12 33.24H432.14ZM432.02 24.48V28.44C433.18 28.44 434.13 27.98 434.87 27.06C435.61 26.14 435.98 25.02 435.98 23.7C435.98 21.3 435.36 20.1 434.12 20.1C432.72 20.1 432.02 21.56 432.02 24.48Z" fill="#FBFFB3"/>
<path d="M471.08 47.3398C464.44 47.3398 459.58 46.6998 456.5 45.4198C454.94 44.7398 454.16 44.0798 454.16 43.4398C454.16 41.7998 454.64 39.8798 455.6 37.6798C456.56 35.4798 457.4 34.3798 458.12 34.3798C458.52 34.3798 459.87 34.8198 462.17 35.6998C464.47 36.5798 466.41 37.0198 467.99 37.0198C469.57 37.0198 470.61 36.9198 471.11 36.7198C471.61 36.5198 471.86 36.1298 471.86 35.5498C471.86 34.9698 471.46 34.5098 470.66 34.1698C469.86 33.8298 468.86 33.5998 467.66 33.4798C466.46 33.3598 465.17 33.1198 463.79 32.7598C462.41 32.3998 461.12 31.9398 459.92 31.3798C458.72 30.8198 457.72 29.8898 456.92 28.5898C456.12 27.2898 455.72 25.8898 455.72 24.3898C455.72 22.8898 455.76 21.7698 455.84 21.0298C455.92 20.2898 456.25 19.2498 456.83 17.9098C457.41 16.5698 458.23 15.4798 459.29 14.6398C460.35 13.7998 461.99 13.0398 464.21 12.3598C466.43 11.6798 468.92 11.3398 471.68 11.3398C474.44 11.3398 476.75 11.4298 478.61 11.6098C480.47 11.7898 481.93 12.0198 482.99 12.2998C484.05 12.5798 484.92 12.8998 485.6 13.2598C486.76 13.8598 487.34 14.5198 487.34 15.2398C487.34 16.7998 486.78 18.5998 485.66 20.6398C484.54 22.6798 483.65 23.6998 482.99 23.6998C482.33 23.6998 480.9 23.3498 478.7 22.6498C476.5 21.9498 474.88 21.5998 473.84 21.5998C472.16 21.5998 471.32 22.0798 471.32 23.0398C471.32 23.6398 471.89 24.0898 473.03 24.3898C474.17 24.6898 475.54 24.9998 477.14 25.3198C478.74 25.6398 480.35 26.0898 481.97 26.6698C483.59 27.2498 484.97 28.2998 486.11 29.8198C487.25 31.3398 487.82 33.2598 487.82 35.5798C487.82 43.4198 482.24 47.3398 471.08 47.3398Z" fill="#FBFFB3"/>
<path d="M515 46.26C514.28 46.94 512.64 47.28 510.08 47.28C507.52 47.28 505.4 47.11 503.72 46.77C502.04 46.43 500.44 45.76 498.92 44.76C496 42.8 494.54 38.72 494.54 32.52V23.16H491.54C491.1 23.16 490.72 22.7 490.4 21.78C490.08 20.86 489.92 19.6 489.92 18C489.92 16.4 490.17 14.99 490.67 13.77C491.17 12.55 491.82 11.94 492.62 11.94H494.54V4.68004C494.54 3.44004 495.75 2.44004 498.17 1.68004C500.59 0.920039 502.96 0.540039 505.28 0.540039C508.92 0.540039 510.74 1.44004 510.74 3.24004V11.94H515.18C516.22 11.94 516.74 13.44 516.74 16.44C516.74 18.4 516.51 20.01 516.05 21.27C515.59 22.53 515 23.16 514.28 23.16H510.74V34.14C510.74 35.22 511.2 35.99 512.12 36.45C513.04 36.91 513.85 37.14 514.55 37.14C515.25 37.14 515.68 37.48 515.84 38.16C516 38.84 516.08 39.86 516.08 41.22C516.08 43.9 515.72 45.58 515 46.26Z" fill="#FBFFB3"/>
<path d="M47.34 117.36C46.82 118.32 44.11 118.8 39.21 118.8C34.31 118.8 31.76 118.32 31.56 117.36L29.52 106.44H28.68L26.76 117.36C26.64 118.32 23.14 118.8 16.26 118.8C14.34 118.8 13.07 118.69 12.45 118.47C11.83 118.25 11.4 117.88 11.16 117.36C3.72 99.08 0 89.46 0 88.5C0 87.54 1.45 86.55 4.35 85.53C7.25 84.51 10.04 84 12.72 84C16.16 84 17.94 84.92 18.06 86.76L20.1 103.2H20.82L21.54 89.94C21.58 88.94 22.6 88.06 24.6 87.3C26.6 86.54 28.62 86.16 30.66 86.16C32.7 86.16 34.23 86.41 35.25 86.91C36.27 87.41 36.8 88.02 36.84 88.74L37.5 103.2H38.16L40.14 87.78C40.26 86.82 41.61 85.95 44.19 85.17C46.77 84.39 49.04 84 51 84C52.96 84 54.5 84.28 55.62 84.84C57.46 85.72 58.38 86.76 58.38 87.96C58.38 88.08 56.57 92.96 52.95 102.6C49.33 112.24 47.46 117.16 47.34 117.36Z" fill="#FBFFB3"/>
<path d="M76.5602 105.24C76.5602 107.84 77.8002 109.14 80.2802 109.14C81.7202 109.14 83.6002 108.65 85.9202 107.67C88.2402 106.69 89.4602 106.2 89.5802 106.2C90.3402 106.2 91.3402 107.34 92.5802 109.62C93.8202 111.9 94.4402 113.58 94.4402 114.66C94.4402 116.22 92.8402 117.4 89.6402 118.2C86.4402 119 83.3102 119.4 80.2502 119.4C77.1902 119.4 74.6302 119.16 72.5702 118.68C70.5102 118.2 68.8302 117.59 67.5302 116.85C66.2302 116.11 65.0902 115.2 64.1102 114.12C63.1302 113.04 62.4002 112.01 61.9202 111.03C61.4402 110.05 61.0602 108.96 60.7802 107.76C60.3802 106 60.1802 104.18 60.1802 102.3C60.1802 95.02 62.0802 90 65.8802 87.24C67.7602 85.84 69.8602 84.86 72.1802 84.3C74.5002 83.74 77.2402 83.46 80.4002 83.46C90.5202 83.46 95.5802 86.98 95.5802 94.02C95.5802 101.5 89.9002 105.24 78.5402 105.24H76.5602ZM76.4402 96.48V100.44C77.6002 100.44 78.5502 99.98 79.2902 99.06C80.0302 98.14 80.4002 97.02 80.4002 95.7C80.4002 93.3 79.7802 92.1 78.5402 92.1C77.1402 92.1 76.4402 93.56 76.4402 96.48Z" fill="#FBFFB3"/>
<path d="M102.48 118.2C100.28 117.64 99.1802 116.8 99.1802 115.68V77.6398C99.1802 76.7598 100.36 75.8998 102.72 75.0598C105.08 74.2198 107.56 73.7998 110.16 73.7998C113.68 73.7998 115.44 74.7198 115.44 76.5598V83.3398L114.78 87.4798H115.26C115.5 87.1198 115.95 86.6798 116.61 86.1598C117.27 85.6398 117.96 85.1998 118.68 84.8398C120.44 83.9198 122.38 83.4598 124.5 83.4598C126.62 83.4598 128.29 83.7298 129.51 84.2698C130.73 84.8098 131.71 85.5098 132.45 86.3698C133.19 87.2298 133.78 88.3198 134.22 89.6398C134.98 91.9198 135.36 94.7598 135.36 98.1598C135.36 103.8 134.72 108.12 133.44 111.12C132.16 114.12 130.08 116.24 127.2 117.48C124.32 118.72 120.26 119.34 115.02 119.34C109.78 119.34 105.6 118.96 102.48 118.2ZM115.38 110.52H117.24C118.52 110.52 119.16 107.45 119.16 101.31C119.16 95.1698 118.5 92.0998 117.18 92.0998H115.38V110.52Z" fill="#FBFFB3"/>
<path d="M155.58 119.34C148.94 119.34 144.08 118.7 141 117.42C139.44 116.74 138.66 116.08 138.66 115.44C138.66 113.8 139.14 111.88 140.1 109.68C141.06 107.48 141.9 106.38 142.62 106.38C143.02 106.38 144.37 106.82 146.67 107.7C148.97 108.58 150.91 109.02 152.49 109.02C154.07 109.02 155.11 108.92 155.61 108.72C156.11 108.52 156.36 108.13 156.36 107.55C156.36 106.97 155.96 106.51 155.16 106.17C154.36 105.83 153.36 105.6 152.16 105.48C150.96 105.36 149.67 105.12 148.29 104.76C146.91 104.4 145.62 103.94 144.42 103.38C143.22 102.82 142.22 101.89 141.42 100.59C140.62 99.2898 140.22 97.8898 140.22 96.3898C140.22 94.8898 140.26 93.7698 140.34 93.0298C140.42 92.2898 140.75 91.2499 141.33 89.9099C141.91 88.5699 142.73 87.4798 143.79 86.6398C144.85 85.7998 146.49 85.0398 148.71 84.3598C150.93 83.6798 153.42 83.3398 156.18 83.3398C158.94 83.3398 161.25 83.4298 163.11 83.6098C164.97 83.7898 166.43 84.0199 167.49 84.2999C168.55 84.5799 169.42 84.8998 170.1 85.2598C171.26 85.8598 171.84 86.5198 171.84 87.2398C171.84 88.7998 171.28 90.5998 170.16 92.6398C169.04 94.6798 168.15 95.6998 167.49 95.6998C166.83 95.6998 165.4 95.3498 163.2 94.6498C161 93.9498 159.38 93.5998 158.34 93.5998C156.66 93.5998 155.82 94.0798 155.82 95.0398C155.82 95.6398 156.39 96.0898 157.53 96.3898C158.67 96.6898 160.04 96.9998 161.64 97.3198C163.24 97.6398 164.85 98.0898 166.47 98.6698C168.09 99.2498 169.47 100.3 170.61 101.82C171.75 103.34 172.32 105.26 172.32 107.58C172.32 115.42 166.74 119.34 155.58 119.34Z" fill="#FBFFB3"/>
<path d="M184.26 72C186.9 72 188.97 72.39 190.47 73.17C191.97 73.95 192.72 75.36 192.72 77.4C192.72 81 189.92 82.8 184.32 82.8C178.72 82.8 175.92 81 175.92 77.4C175.92 73.8 178.7 72 184.26 72ZM192.42 87.78V117.36C192.42 117.8 191.27 118.15 188.97 118.41C186.67 118.67 184.31 118.8 181.89 118.8C179.47 118.8 177.91 118.69 177.21 118.47C176.51 118.25 176.16 117.88 176.16 117.36V88.86C176.16 87.98 177.29 87.11 179.55 86.25C181.81 85.39 184.28 84.96 186.96 84.96C190.6 84.96 192.42 85.9 192.42 87.78Z" fill="#FBFFB3"/>
<path d="M220.5 118.26C219.78 118.94 218.14 119.28 215.58 119.28C213.02 119.28 210.9 119.11 209.22 118.77C207.54 118.43 205.94 117.76 204.42 116.76C201.5 114.8 200.04 110.72 200.04 104.52V95.16H197.04C196.6 95.16 196.22 94.7 195.9 93.78C195.58 92.86 195.42 91.6 195.42 90C195.42 88.4 195.67 86.99 196.17 85.77C196.67 84.55 197.32 83.94 198.12 83.94H200.04V76.68C200.04 75.44 201.25 74.44 203.67 73.68C206.09 72.92 208.46 72.54 210.78 72.54C214.42 72.54 216.24 73.44 216.24 75.24V83.94H220.68C221.72 83.94 222.24 85.44 222.24 88.44C222.24 90.4 222.01 92.01 221.55 93.27C221.09 94.53 220.5 95.16 219.78 95.16H216.24V106.14C216.24 107.22 216.7 107.99 217.62 108.45C218.54 108.91 219.35 109.14 220.05 109.14C220.75 109.14 221.18 109.48 221.34 110.16C221.5 110.84 221.58 111.86 221.58 113.22C221.58 115.9 221.22 117.58 220.5 118.26Z" fill="#FBFFB3"/>
<path d="M241.62 105.24C241.62 107.84 242.86 109.14 245.34 109.14C246.78 109.14 248.66 108.65 250.98 107.67C253.3 106.69 254.52 106.2 254.64 106.2C255.4 106.2 256.4 107.34 257.64 109.62C258.88 111.9 259.5 113.58 259.5 114.66C259.5 116.22 257.9 117.4 254.7 118.2C251.5 119 248.37 119.4 245.31 119.4C242.25 119.4 239.69 119.16 237.63 118.68C235.57 118.2 233.89 117.59 232.59 116.85C231.29 116.11 230.15 115.2 229.17 114.12C228.19 113.04 227.46 112.01 226.98 111.03C226.5 110.05 226.12 108.96 225.84 107.76C225.44 106 225.24 104.18 225.24 102.3C225.24 95.02 227.14 90 230.94 87.24C232.82 85.84 234.92 84.86 237.24 84.3C239.56 83.74 242.3 83.46 245.46 83.46C255.58 83.46 260.64 86.98 260.64 94.02C260.64 101.5 254.96 105.24 243.6 105.24H241.62ZM241.5 96.48V100.44C242.66 100.44 243.61 99.98 244.35 99.06C245.09 98.14 245.46 97.02 245.46 95.7C245.46 93.3 244.84 92.1 243.6 92.1C242.2 92.1 241.5 93.56 241.5 96.48Z" fill="#FBFFB3"/>
<path d="M286.08 72C288.72 72 290.79 72.39 292.29 73.17C293.79 73.95 294.54 75.36 294.54 77.4C294.54 81 291.74 82.8 286.14 82.8C280.54 82.8 277.74 81 277.74 77.4C277.74 73.8 280.52 72 286.08 72ZM294.24 87.78V117.36C294.24 117.8 293.09 118.15 290.79 118.41C288.49 118.67 286.13 118.8 283.71 118.8C281.29 118.8 279.73 118.69 279.03 118.47C278.33 118.25 277.98 117.88 277.98 117.36V88.86C277.98 87.98 279.11 87.11 281.37 86.25C283.63 85.39 286.1 84.96 288.78 84.96C292.42 84.96 294.24 85.9 294.24 87.78Z" fill="#FBFFB3"/>
<path d="M315.06 119.34C308.42 119.34 303.56 118.7 300.48 117.42C298.92 116.74 298.14 116.08 298.14 115.44C298.14 113.8 298.62 111.88 299.58 109.68C300.54 107.48 301.38 106.38 302.1 106.38C302.5 106.38 303.85 106.82 306.15 107.7C308.45 108.58 310.39 109.02 311.97 109.02C313.55 109.02 314.59 108.92 315.09 108.72C315.59 108.52 315.84 108.13 315.84 107.55C315.84 106.97 315.44 106.51 314.64 106.17C313.84 105.83 312.84 105.6 311.64 105.48C310.44 105.36 309.15 105.12 307.77 104.76C306.39 104.4 305.1 103.94 303.9 103.38C302.7 102.82 301.7 101.89 300.9 100.59C300.1 99.2898 299.7 97.8898 299.7 96.3898C299.7 94.8898 299.74 93.7698 299.82 93.0298C299.9 92.2898 300.23 91.2499 300.81 89.9099C301.39 88.5699 302.21 87.4798 303.27 86.6398C304.33 85.7998 305.97 85.0398 308.19 84.3598C310.41 83.6798 312.9 83.3398 315.66 83.3398C318.42 83.3398 320.73 83.4298 322.59 83.6098C324.45 83.7898 325.91 84.0199 326.97 84.2999C328.03 84.5799 328.9 84.8998 329.58 85.2598C330.74 85.8598 331.32 86.5198 331.32 87.2398C331.32 88.7998 330.76 90.5998 329.64 92.6398C328.52 94.6798 327.63 95.6998 326.97 95.6998C326.31 95.6998 324.88 95.3498 322.68 94.6498C320.48 93.9498 318.86 93.5998 317.82 93.5998C316.14 93.5998 315.3 94.0798 315.3 95.0398C315.3 95.6398 315.87 96.0898 317.01 96.3898C318.15 96.6898 319.52 96.9998 321.12 97.3198C322.72 97.6398 324.33 98.0898 325.95 98.6698C327.57 99.2498 328.95 100.3 330.09 101.82C331.23 103.34 331.8 105.26 331.8 107.58C331.8 115.42 326.22 119.34 315.06 119.34Z" fill="#FBFFB3"/>
<path d="M356.64 117.78C355.68 117.34 354.65 116.68 353.55 115.8C352.45 114.92 351.54 113.88 350.82 112.68C349.14 109.8 348.3 106.04 348.3 101.4C348.3 98.52 348.76 95.95 349.68 93.69C350.6 91.43 351.72 89.68 353.04 88.44C354.36 87.2 355.88 86.18 357.6 85.38C360.36 84.1 363.12 83.46 365.88 83.46C370.52 83.46 373.75 83.82 375.57 84.54C377.39 85.26 378.3 86.48 378.3 88.2C378.3 89.92 377.99 91.75 377.37 93.69C376.75 95.63 375.94 96.6 374.94 96.6C374.62 96.6 373.65 96.26 372.03 95.58C370.41 94.9 369.01 94.56 367.83 94.56C366.65 94.56 365.75 95.03 365.13 95.97C364.51 96.91 364.2 98.73 364.2 101.43C364.2 104.13 364.48 105.97 365.04 106.95C365.6 107.93 366.47 108.42 367.65 108.42C368.83 108.42 370.3 108.02 372.06 107.22C373.82 106.42 374.8 106.02 375 106.02C375.76 106.02 376.49 106.92 377.19 108.72C377.89 110.52 378.24 112.12 378.24 113.52C378.24 115.68 377.12 117.19 374.88 118.05C372.64 118.91 369.61 119.34 365.79 119.34C361.97 119.34 358.92 118.82 356.64 117.78Z" fill="#FBFFB3"/>
<path d="M400.38 119.34C397.38 119.34 394.8 119.08 392.64 118.56C390.48 118.04 388.52 117.12 386.76 115.8C383.12 113.16 381.3 108.24 381.3 101.04C381.3 94.64 383.16 90.06 386.88 87.3C390.36 84.74 394.86 83.46 400.38 83.46C402.74 83.46 404.76 83.57 406.44 83.79C408.12 84.01 409.83 84.48 411.57 85.2C413.31 85.92 414.71 86.9 415.77 88.14C416.83 89.38 417.7 91.09 418.38 93.27C419.06 95.45 419.4 98.04 419.4 101.04C419.4 107.12 417.68 111.69 414.24 114.75C410.8 117.81 406.18 119.34 400.38 119.34ZM398.28 107.64C398.56 109.08 398.85 109.94 399.15 110.22C399.45 110.5 399.85 110.64 400.35 110.64C400.85 110.64 401.25 110.5 401.55 110.22C401.85 109.94 402.13 109.08 402.39 107.64C402.65 106.2 402.78 104.39 402.78 102.21C402.78 100.03 402.73 98.35 402.63 97.17C402.53 95.99 402.41 95.08 402.27 94.44C402.13 93.8 401.94 93.3 401.7 92.94C401.34 92.42 400.91 92.16 400.41 92.16C399.91 92.16 399.5 92.31 399.18 92.61C398.86 92.91 398.56 93.79 398.28 95.25C398 96.71 397.86 98.78 397.86 101.46C397.86 104.14 398 106.2 398.28 107.64Z" fill="#FBFFB3"/>
<path d="M477.66 99V117.36C477.66 117.8 476.53 118.15 474.27 118.41C472.01 118.67 469.67 118.8 467.25 118.8C464.83 118.8 463.26 118.69 462.54 118.47C461.82 118.25 461.46 117.88 461.46 117.36V100.74C461.46 95.02 460.88 92.16 459.72 92.16C459.44 92.16 459.16 92.28 458.88 92.52C458.6 92.76 458.46 93.18 458.46 93.78V117.36C458.46 117.8 457.33 118.15 455.07 118.41C452.81 118.67 450.46 118.8 448.02 118.8C445.58 118.8 444.01 118.69 443.31 118.47C442.61 118.25 442.26 117.88 442.26 117.36V100.74C442.26 96.3 441.98 93.64 441.42 92.76C441.14 92.36 440.78 92.16 440.34 92.16C439.58 92.16 439.2 92.7 439.2 93.78V117.36C439.2 117.8 438.06 118.15 435.78 118.41C433.5 118.67 431.15 118.8 428.73 118.8C426.31 118.8 424.75 118.69 424.05 118.47C423.35 118.25 423 117.88 423 117.36V87.78C423 86.94 424.15 86.1 426.45 85.26C428.75 84.42 431.18 84 433.74 84C436.3 84 437.74 84.74 438.06 86.22L438.6 88.86H439.02C440.18 86.58 442.1 84.96 444.78 84C445.9 83.64 447.34 83.46 449.1 83.46C452.62 83.46 455.18 85.26 456.78 88.86C457.3 87.66 458.6 86.46 460.68 85.26C462.76 84.06 465.06 83.46 467.58 83.46C471.54 83.46 474.21 84.69 475.59 87.15C476.97 89.61 477.66 93.56 477.66 99Z" fill="#FBFFB3"/>
<path d="M490.19 72C492.83 72 494.9 72.39 496.4 73.17C497.9 73.95 498.65 75.36 498.65 77.4C498.65 81 495.85 82.8 490.25 82.8C484.65 82.8 481.85 81 481.85 77.4C481.85 73.8 484.63 72 490.19 72ZM498.35 87.78V117.36C498.35 117.8 497.2 118.15 494.9 118.41C492.6 118.67 490.24 118.8 487.82 118.8C485.4 118.8 483.84 118.69 483.14 118.47C482.44 118.25 482.09 117.88 482.09 117.36V88.86C482.09 87.98 483.22 87.11 485.48 86.25C487.74 85.39 490.21 84.96 492.89 84.96C496.53 84.96 498.35 85.9 498.35 87.78Z" fill="#FBFFB3"/>
<path d="M539.03 98.88V117.36C539.03 117.8 537.89 118.15 535.61 118.41C533.33 118.67 530.98 118.8 528.56 118.8C526.14 118.8 524.58 118.69 523.88 118.47C523.18 118.25 522.83 117.88 522.83 117.36V98.28C522.83 96.48 522.76 95.3 522.62 94.74C522.48 94.18 522.35 93.68 522.23 93.24C521.95 92.48 521.45 92.1 520.73 92.1C519.61 92.1 519.05 92.64 519.05 93.72V117.36C519.05 117.8 517.92 118.15 515.66 118.41C513.4 118.67 511.06 118.8 508.64 118.8C506.22 118.8 504.65 118.69 503.93 118.47C503.21 118.25 502.85 117.88 502.85 117.36V87.78C502.85 86.94 504 86.1 506.3 85.26C508.6 84.42 511.03 84 513.59 84C516.15 84 517.59 84.74 517.91 86.22L518.45 88.86H518.87C520.03 86.54 522.03 84.92 524.87 84C526.03 83.64 527.31 83.46 528.71 83.46C532.75 83.46 535.48 84.67 536.9 87.09C538.32 89.51 539.03 93.44 539.03 98.88Z" fill="#FBFFB3"/>
<path d="M563.27 114.84V111.36H562.79C562.63 111.56 562.35 111.81 561.95 112.11C561.55 112.41 560.56 112.82 558.98 113.34C557.4 113.86 555.62 114.12 553.64 114.12C551.66 114.12 549.99 113.82 548.63 113.22C547.27 112.62 546.21 111.87 545.45 110.97C544.69 110.07 544.09 108.86 543.65 107.34C542.97 104.98 542.63 101.78 542.63 97.74C542.63 93.1 543.61 89.54 545.57 87.06C546.33 86.06 547.46 85.21 548.96 84.51C550.46 83.81 552.07 83.46 553.79 83.46C555.51 83.46 556.93 83.65 558.05 84.03C559.17 84.41 560.01 84.86 560.57 85.38C561.69 86.5 562.33 87.48 562.49 88.32L562.55 88.86H563.03L563.57 86.52C563.97 84.84 567.13 84 573.05 84C575.69 84 577.29 84.4 577.85 85.2C578.17 85.68 578.37 86.13 578.45 86.55C578.53 86.97 578.57 87.6 578.57 88.44V113.58C578.57 118.3 577.03 121.9 573.95 124.38C570.87 126.86 566.35 128.1 560.39 128.1C554.07 128.1 549.77 127.48 547.49 126.24C546.49 125.68 545.99 125.1 545.99 124.5C545.99 123.54 546.38 121.92 547.16 119.64C547.94 117.36 548.67 116.22 549.35 116.22C549.51 116.22 550.07 116.36 551.03 116.64C554.07 117.44 556.54 117.84 558.44 117.84C560.34 117.84 561.62 117.6 562.28 117.12C562.94 116.64 563.27 115.88 563.27 114.84ZM560.87 107.28C561.31 107.28 561.67 107.12 561.95 106.8C562.23 106.48 562.37 106.12 562.37 105.72V93.36C562.21 92.52 561.77 92.1 561.05 92.1C559.53 92.1 558.77 94.6 558.77 99.6C558.77 101.92 558.96 103.78 559.34 105.18C559.72 106.58 560.23 107.28 560.87 107.28Z" fill="#FBFFB3"/>
<path d="M585.95 75.7499C588.27 75.4899 590.99 75.3599 594.11 75.3599C597.23 75.3599 598.79 75.8199 598.79 76.7399C598.79 77.8999 598.43 87.5399 597.71 105.66C597.67 106.66 596.95 107.56 595.55 108.36C594.15 109.16 592.17 109.56 589.61 109.56C586.13 109.56 584.31 108.62 584.15 106.74L582.53 76.7999C582.49 76.3599 583.63 76.0099 585.95 75.7499ZM596.18 122.49C594.88 123.27 593.06 123.66 590.72 123.66C588.38 123.66 586.59 123.31 585.35 122.61C584.11 121.91 583.49 120.46 583.49 118.26C583.49 114.66 585.93 112.86 590.81 112.86C595.69 112.86 598.13 114.66 598.13 118.26C598.13 120.3 597.48 121.71 596.18 122.49Z" fill="#FBFFB3"/>
<path d="M106.26 47.41C103.8 47.67 101.34 47.8 98.88 47.8C96.42 47.8 94.86 47.69 94.2 47.47C93.54 47.25 93.21 46.88 93.21 46.36V20.56H84.87C84.43 20.56 84.05 20 83.73 18.88C83.41 17.76 83.25 16.09 83.25 13.87C83.25 11.65 83.49 9.65 83.97 7.87C84.45 6.09 85.09 5.2 85.89 5.2H118.35C118.95 5.2 119.36 5.76 119.58 6.88C119.8 8 119.91 9.62 119.91 11.74C119.91 13.86 119.69 15.86 119.25 17.74C118.81 19.62 118.21 20.56 117.45 20.56H109.95V46.36C109.95 46.8 108.72 47.15 106.26 47.41ZM142.71 46.36V29.68C142.71 26.68 142.59 24.5 142.35 23.14C142.11 21.78 141.53 21.1 140.61 21.1C139.81 21.1 139.41 21.64 139.41 22.72V46.36C139.41 46.8 138.25 47.15 135.93 47.41C133.61 47.67 131.23 47.8 128.79 47.8C126.35 47.8 124.81 47.69 124.17 47.47C123.53 47.25 123.21 46.88 123.21 46.36V4.78C123.21 3.94 124.37 3.1 126.69 2.26C129.01 1.42 131.45 1 134.01 1C136.57 1 138.39 1.5 139.11 2.5C139.35 2.82 139.47 3.16 139.47 3.52V12.34L138.81 16.48H139.23C139.79 15.64 140.67 14.9 141.87 14.26C144.11 13.06 146.55 12.46 149.19 12.46C152.99 12.46 155.56 13.67 156.9 16.09C158.24 18.51 158.91 22.44 158.91 27.88V46.36C158.91 46.8 157.74 47.15 155.4 47.41C153.06 47.67 150.68 47.8 148.26 47.8C145.84 47.8 144.31 47.69 143.67 47.47C143.03 47.25 142.71 46.88 142.71 46.36ZM178.89 34.24C178.89 36.84 180.13 38.14 182.61 38.14C184.05 38.14 185.93 37.65 188.25 36.67C190.57 35.69 191.79 35.2 191.91 35.2C192.67 35.2 193.67 36.34 194.91 38.62C196.15 40.9 196.77 42.58 196.77 43.66C196.77 45.22 195.17 46.4 191.97 47.2C188.77 48 185.64 48.4 182.58 48.4C179.52 48.4 176.96 48.16 174.9 47.68C172.84 47.2 171.16 46.59 169.86 45.85C168.56 45.11 167.42 44.2 166.44 43.12C165.46 42.04 164.73 41.01 164.25 40.03C163.77 39.05 163.39 37.96 163.11 36.76C162.71 35 162.51 33.18 162.51 31.3C162.51 24.02 164.41 19 168.21 16.24C170.09 14.84 172.19 13.86 174.51 13.3C176.83 12.74 179.57 12.46 182.73 12.46C192.85 12.46 197.91 15.98 197.91 23.02C197.91 30.5 192.23 34.24 180.87 34.24H178.89ZM178.77 25.48V29.44C179.93 29.44 180.88 28.98 181.62 28.06C182.36 27.14 182.73 26.02 182.73 24.7C182.73 22.3 182.11 21.1 180.87 21.1C179.47 21.1 178.77 22.56 178.77 25.48ZM231.33 48.34C224.69 48.34 219.83 47.7 216.75 46.42C215.19 45.74 214.41 45.08 214.41 44.44C214.41 42.8 214.89 40.88 215.85 38.68C216.81 36.48 217.65 35.38 218.37 35.38C218.77 35.38 220.12 35.82 222.42 36.7C224.72 37.58 226.66 38.02 228.24 38.02C229.82 38.02 230.86 37.92 231.36 37.72C231.86 37.52 232.11 37.13 232.11 36.55C232.11 35.97 231.71 35.51 230.91 35.17C230.11 34.83 229.11 34.6 227.91 34.48C226.71 34.36 225.42 34.12 224.04 33.76C222.66 33.4 221.37 32.94 220.17 32.38C218.97 31.82 217.97 30.89 217.17 29.59C216.37 28.29 215.97 26.89 215.97 25.39C215.97 23.89 216.01 22.77 216.09 22.03C216.17 21.29 216.5 20.25 217.08 18.91C217.66 17.57 218.48 16.48 219.54 15.64C220.6 14.8 222.24 14.04 224.46 13.36C226.68 12.68 229.17 12.34 231.93 12.34C234.69 12.34 237 12.43 238.86 12.61C240.72 12.79 242.18 13.02 243.24 13.3C244.3 13.58 245.17 13.9 245.85 14.26C247.01 14.86 247.59 15.52 247.59 16.24C247.59 17.8 247.03 19.6 245.91 21.64C244.79 23.68 243.9 24.7 243.24 24.7C242.58 24.7 241.15 24.35 238.95 23.65C236.75 22.95 235.13 22.6 234.09 22.6C232.41 22.6 231.57 23.08 231.57 24.04C231.57 24.64 232.14 25.09 233.28 25.39C234.42 25.69 235.79 26 237.39 26.32C238.99 26.64 240.6 27.09 242.22 27.67C243.84 28.25 245.22 29.3 246.36 30.82C247.5 32.34 248.07 34.26 248.07 36.58C248.07 44.42 242.49 48.34 231.33 48.34ZM297.21 46.36C296.69 47.32 293.98 47.8 289.08 47.8C284.18 47.8 281.63 47.32 281.43 46.36L279.39 35.44H278.55L276.63 46.36C276.51 47.32 273.01 47.8 266.13 47.8C264.21 47.8 262.94 47.69 262.32 47.47C261.7 47.25 261.27 46.88 261.03 46.36C253.59 28.08 249.87 18.46 249.87 17.5C249.87 16.54 251.32 15.55 254.22 14.53C257.12 13.51 259.91 13 262.59 13C266.03 13 267.81 13.92 267.93 15.76L269.97 32.2H270.69L271.41 18.94C271.45 17.94 272.47 17.06 274.47 16.3C276.47 15.54 278.49 15.16 280.53 15.16C282.57 15.16 284.1 15.41 285.12 15.91C286.14 16.41 286.67 17.02 286.71 17.74L287.37 32.2H288.03L290.01 16.78C290.13 15.82 291.48 14.95 294.06 14.17C296.64 13.39 298.91 13 300.87 13C302.83 13 304.37 13.28 305.49 13.84C307.33 14.72 308.25 15.76 308.25 16.96C308.25 17.08 306.44 21.96 302.82 31.6C299.2 41.24 297.33 46.16 297.21 46.36ZM326.42 34.24C326.42 36.84 327.66 38.14 330.14 38.14C331.58 38.14 333.46 37.65 335.78 36.67C338.1 35.69 339.32 35.2 339.44 35.2C340.2 35.2 341.2 36.34 342.44 38.62C343.68 40.9 344.3 42.58 344.3 43.66C344.3 45.22 342.7 46.4 339.5 47.2C336.3 48 333.17 48.4 330.11 48.4C327.05 48.4 324.49 48.16 322.43 47.68C320.37 47.2 318.69 46.59 317.39 45.85C316.09 45.11 314.95 44.2 313.97 43.12C312.99 42.04 312.26 41.01 311.78 40.03C311.3 39.05 310.92 37.96 310.64 36.76C310.24 35 310.04 33.18 310.04 31.3C310.04 24.02 311.94 19 315.74 16.24C317.62 14.84 319.72 13.86 322.04 13.3C324.36 12.74 327.1 12.46 330.26 12.46C340.38 12.46 345.44 15.98 345.44 23.02C345.44 30.5 339.76 34.24 328.4 34.24H326.42ZM326.3 25.48V29.44C327.46 29.44 328.41 28.98 329.15 28.06C329.89 27.14 330.26 26.02 330.26 24.7C330.26 22.3 329.64 21.1 328.4 21.1C327 21.1 326.3 22.56 326.3 25.48ZM364.82 34.24C364.82 36.84 366.06 38.14 368.54 38.14C369.98 38.14 371.86 37.65 374.18 36.67C376.5 35.69 377.72 35.2 377.84 35.2C378.6 35.2 379.6 36.34 380.84 38.62C382.08 40.9 382.7 42.58 382.7 43.66C382.7 45.22 381.1 46.4 377.9 47.2C374.7 48 371.57 48.4 368.51 48.4C365.45 48.4 362.89 48.16 360.83 47.68C358.77 47.2 357.09 46.59 355.79 45.85C354.49 45.11 353.35 44.2 352.37 43.12C351.39 42.04 350.66 41.01 350.18 40.03C349.7 39.05 349.32 37.96 349.04 36.76C348.64 35 348.44 33.18 348.44 31.3C348.44 24.02 350.34 19 354.14 16.24C356.02 14.84 358.12 13.86 360.44 13.3C362.76 12.74 365.5 12.46 368.66 12.46C378.78 12.46 383.84 15.98 383.84 23.02C383.84 30.5 378.16 34.24 366.8 34.24H364.82ZM364.7 25.48V29.44C365.86 29.44 366.81 28.98 367.55 28.06C368.29 27.14 368.66 26.02 368.66 24.7C368.66 22.3 368.04 21.1 366.8 21.1C365.4 21.1 364.7 22.56 364.7 25.48ZM411.03 47.26C410.31 47.94 408.67 48.28 406.11 48.28C403.55 48.28 401.43 48.11 399.75 47.77C398.07 47.43 396.47 46.76 394.95 45.76C392.03 43.8 390.57 39.72 390.57 33.52V24.16H387.57C387.13 24.16 386.75 23.7 386.43 22.78C386.11 21.86 385.95 20.6 385.95 19C385.95 17.4 386.2 15.99 386.7 14.77C387.2 13.55 387.85 12.94 388.65 12.94H390.57V5.68C390.57 4.44 391.78 3.44 394.2 2.68C396.62 1.92 398.99 1.54 401.31 1.54C404.95 1.54 406.77 2.44 406.77 4.24V12.94H411.21C412.25 12.94 412.77 14.44 412.77 17.44C412.77 19.4 412.54 21.01 412.08 22.27C411.62 23.53 411.03 24.16 410.31 24.16H406.77V35.14C406.77 36.22 407.23 36.99 408.15 37.45C409.07 37.91 409.88 38.14 410.58 38.14C411.28 38.14 411.71 38.48 411.87 39.16C412.03 39.84 412.11 40.86 412.11 42.22C412.11 44.9 411.75 46.58 411.03 47.26ZM432.14 34.24C432.14 36.84 433.38 38.14 435.86 38.14C437.3 38.14 439.18 37.65 441.5 36.67C443.82 35.69 445.04 35.2 445.16 35.2C445.92 35.2 446.92 36.34 448.16 38.62C449.4 40.9 450.02 42.58 450.02 43.66C450.02 45.22 448.42 46.4 445.22 47.2C442.02 48 438.89 48.4 435.83 48.4C432.77 48.4 430.21 48.16 428.15 47.68C426.09 47.2 424.41 46.59 423.11 45.85C421.81 45.11 420.67 44.2 419.69 43.12C418.71 42.04 417.98 41.01 417.5 40.03C417.02 39.05 416.64 37.96 416.36 36.76C415.96 35 415.76 33.18 415.76 31.3C415.76 24.02 417.66 19 421.46 16.24C423.34 14.84 425.44 13.86 427.76 13.3C430.08 12.74 432.82 12.46 435.98 12.46C446.1 12.46 451.16 15.98 451.16 23.02C451.16 30.5 445.48 34.24 434.12 34.24H432.14ZM432.02 25.48V29.44C433.18 29.44 434.13 28.98 434.87 28.06C435.61 27.14 435.98 26.02 435.98 24.7C435.98 22.3 435.36 21.1 434.12 21.1C432.72 21.1 432.02 22.56 432.02 25.48ZM471.08 48.34C464.44 48.34 459.58 47.7 456.5 46.42C454.94 45.74 454.16 45.08 454.16 44.44C454.16 42.8 454.64 40.88 455.6 38.68C456.56 36.48 457.4 35.38 458.12 35.38C458.52 35.38 459.87 35.82 462.17 36.7C464.47 37.58 466.41 38.02 467.99 38.02C469.57 38.02 470.61 37.92 471.11 37.72C471.61 37.52 471.86 37.13 471.86 36.55C471.86 35.97 471.46 35.51 470.66 35.17C469.86 34.83 468.86 34.6 467.66 34.48C466.46 34.36 465.17 34.12 463.79 33.76C462.41 33.4 461.12 32.94 459.92 32.38C458.72 31.82 457.72 30.89 456.92 29.59C456.12 28.29 455.72 26.89 455.72 25.39C455.72 23.89 455.76 22.77 455.84 22.03C455.92 21.29 456.25 20.25 456.83 18.91C457.41 17.57 458.23 16.48 459.29 15.64C460.35 14.8 461.99 14.04 464.21 13.36C466.43 12.68 468.92 12.34 471.68 12.34C474.44 12.34 476.75 12.43 478.61 12.61C480.47 12.79 481.93 13.02 482.99 13.3C484.05 13.58 484.92 13.9 485.6 14.26C486.76 14.86 487.34 15.52 487.34 16.24C487.34 17.8 486.78 19.6 485.66 21.64C484.54 23.68 483.65 24.7 482.99 24.7C482.33 24.7 480.9 24.35 478.7 23.65C476.5 22.95 474.88 22.6 473.84 22.6C472.16 22.6 471.32 23.08 471.32 24.04C471.32 24.64 471.89 25.09 473.03 25.39C474.17 25.69 475.54 26 477.14 26.32C478.74 26.64 480.35 27.09 481.97 27.67C483.59 28.25 484.97 29.3 486.11 30.82C487.25 32.34 487.82 34.26 487.82 36.58C487.82 44.42 482.24 48.34 471.08 48.34ZM515 47.26C514.28 47.94 512.64 48.28 510.08 48.28C507.52 48.28 505.4 48.11 503.72 47.77C502.04 47.43 500.44 46.76 498.92 45.76C496 43.8 494.54 39.72 494.54 33.52V24.16H491.54C491.1 24.16 490.72 23.7 490.4 22.78C490.08 21.86 489.92 20.6 489.92 19C489.92 17.4 490.17 15.99 490.67 14.77C491.17 13.55 491.82 12.94 492.62 12.94H494.54V5.68C494.54 4.44 495.75 3.44 498.17 2.68C500.59 1.92 502.96 1.54 505.28 1.54C508.92 1.54 510.74 2.44 510.74 4.24V12.94H515.18C516.22 12.94 516.74 14.44 516.74 17.44C516.74 19.4 516.51 21.01 516.05 22.27C515.59 23.53 515 24.16 514.28 24.16H510.74V35.14C510.74 36.22 511.2 36.99 512.12 37.45C513.04 37.91 513.85 38.14 514.55 38.14C515.25 38.14 515.68 38.48 515.84 39.16C516 39.84 516.08 40.86 516.08 42.22C516.08 44.9 515.72 46.58 515 47.26Z" fill="url(#paint0_linear_1925_128)"/>
<path d="M47.34 118.36C46.82 119.32 44.11 119.8 39.21 119.8C34.31 119.8 31.76 119.32 31.56 118.36L29.52 107.44H28.68L26.76 118.36C26.64 119.32 23.14 119.8 16.26 119.8C14.34 119.8 13.07 119.69 12.45 119.47C11.83 119.25 11.4 118.88 11.16 118.36C3.72 100.08 0 90.46 0 89.5C0 88.54 1.45 87.55 4.35 86.53C7.25 85.51 10.04 85 12.72 85C16.16 85 17.94 85.92 18.06 87.76L20.1 104.2H20.82L21.54 90.94C21.58 89.94 22.6 89.06 24.6 88.3C26.6 87.54 28.62 87.16 30.66 87.16C32.7 87.16 34.23 87.41 35.25 87.91C36.27 88.41 36.8 89.02 36.84 89.74L37.5 104.2H38.16L40.14 88.78C40.26 87.82 41.61 86.95 44.19 86.17C46.77 85.39 49.04 85 51 85C52.96 85 54.5 85.28 55.62 85.84C57.46 86.72 58.38 87.76 58.38 88.96C58.38 89.08 56.57 93.96 52.95 103.6C49.33 113.24 47.46 118.16 47.34 118.36ZM76.56 106.24C76.56 108.84 77.8 110.14 80.28 110.14C81.72 110.14 83.6 109.65 85.92 108.67C88.24 107.69 89.46 107.2 89.58 107.2C90.34 107.2 91.34 108.34 92.58 110.62C93.82 112.9 94.44 114.58 94.44 115.66C94.44 117.22 92.84 118.4 89.64 119.2C86.44 120 83.31 120.4 80.25 120.4C77.19 120.4 74.63 120.16 72.57 119.68C70.51 119.2 68.83 118.59 67.53 117.85C66.23 117.11 65.09 116.2 64.11 115.12C63.13 114.04 62.4 113.01 61.92 112.03C61.44 111.05 61.06 109.96 60.78 108.76C60.38 107 60.18 105.18 60.18 103.3C60.18 96.02 62.08 91 65.88 88.24C67.76 86.84 69.86 85.86 72.18 85.3C74.5 84.74 77.24 84.46 80.4 84.46C90.52 84.46 95.58 87.98 95.58 95.02C95.58 102.5 89.9 106.24 78.54 106.24H76.56ZM76.44 97.48V101.44C77.6 101.44 78.55 100.98 79.29 100.06C80.03 99.14 80.4 98.02 80.4 96.7C80.4 94.3 79.78 93.1 78.54 93.1C77.14 93.1 76.44 94.56 76.44 97.48ZM102.48 119.2C100.28 118.64 99.18 117.8 99.18 116.68V78.64C99.18 77.76 100.36 76.9 102.72 76.06C105.08 75.22 107.56 74.8 110.16 74.8C113.68 74.8 115.44 75.72 115.44 77.56V84.34L114.78 88.48H115.26C115.5 88.12 115.95 87.68 116.61 87.16C117.27 86.64 117.96 86.2 118.68 85.84C120.44 84.92 122.38 84.46 124.5 84.46C126.62 84.46 128.29 84.73 129.51 85.27C130.73 85.81 131.71 86.51 132.45 87.37C133.19 88.23 133.78 89.32 134.22 90.64C134.98 92.92 135.36 95.76 135.36 99.16C135.36 104.8 134.72 109.12 133.44 112.12C132.16 115.12 130.08 117.24 127.2 118.48C124.32 119.72 120.26 120.34 115.02 120.34C109.78 120.34 105.6 119.96 102.48 119.2ZM115.38 111.52H117.24C118.52 111.52 119.16 108.45 119.16 102.31C119.16 96.17 118.5 93.1 117.18 93.1H115.38V111.52ZM155.58 120.34C148.94 120.34 144.08 119.7 141 118.42C139.44 117.74 138.66 117.08 138.66 116.44C138.66 114.8 139.14 112.88 140.1 110.68C141.06 108.48 141.9 107.38 142.62 107.38C143.02 107.38 144.37 107.82 146.67 108.7C148.97 109.58 150.91 110.02 152.49 110.02C154.07 110.02 155.11 109.92 155.61 109.72C156.11 109.52 156.36 109.13 156.36 108.55C156.36 107.97 155.96 107.51 155.16 107.17C154.36 106.83 153.36 106.6 152.16 106.48C150.96 106.36 149.67 106.12 148.29 105.76C146.91 105.4 145.62 104.94 144.42 104.38C143.22 103.82 142.22 102.89 141.42 101.59C140.62 100.29 140.22 98.89 140.22 97.39C140.22 95.89 140.26 94.77 140.34 94.03C140.42 93.29 140.75 92.25 141.33 90.91C141.91 89.57 142.73 88.48 143.79 87.64C144.85 86.8 146.49 86.04 148.71 85.36C150.93 84.68 153.42 84.34 156.18 84.34C158.94 84.34 161.25 84.43 163.11 84.61C164.97 84.79 166.43 85.02 167.49 85.3C168.55 85.58 169.42 85.9 170.1 86.26C171.26 86.86 171.84 87.52 171.84 88.24C171.84 89.8 171.28 91.6 170.16 93.64C169.04 95.68 168.15 96.7 167.49 96.7C166.83 96.7 165.4 96.35 163.2 95.65C161 94.95 159.38 94.6 158.34 94.6C156.66 94.6 155.82 95.08 155.82 96.04C155.82 96.64 156.39 97.09 157.53 97.39C158.67 97.69 160.04 98 161.64 98.32C163.24 98.64 164.85 99.09 166.47 99.67C168.09 100.25 169.47 101.3 170.61 102.82C171.75 104.34 172.32 106.26 172.32 108.58C172.32 116.42 166.74 120.34 155.58 120.34ZM184.26 73C186.9 73 188.97 73.39 190.47 74.17C191.97 74.95 192.72 76.36 192.72 78.4C192.72 82 189.92 83.8 184.32 83.8C178.72 83.8 175.92 82 175.92 78.4C175.92 74.8 178.7 73 184.26 73ZM192.42 88.78V118.36C192.42 118.8 191.27 119.15 188.97 119.41C186.67 119.67 184.31 119.8 181.89 119.8C179.47 119.8 177.91 119.69 177.21 119.47C176.51 119.25 176.16 118.88 176.16 118.36V89.86C176.16 88.98 177.29 88.11 179.55 87.25C181.81 86.39 184.28 85.96 186.96 85.96C190.6 85.96 192.42 86.9 192.42 88.78ZM220.5 119.26C219.78 119.94 218.14 120.28 215.58 120.28C213.02 120.28 210.9 120.11 209.22 119.77C207.54 119.43 205.94 118.76 204.42 117.76C201.5 115.8 200.04 111.72 200.04 105.52V96.16H197.04C196.6 96.16 196.22 95.7 195.9 94.78C195.58 93.86 195.42 92.6 195.42 91C195.42 89.4 195.67 87.99 196.17 86.77C196.67 85.55 197.32 84.94 198.12 84.94H200.04V77.68C200.04 76.44 201.25 75.44 203.67 74.68C206.09 73.92 208.46 73.54 210.78 73.54C214.42 73.54 216.24 74.44 216.24 76.24V84.94H220.68C221.72 84.94 222.24 86.44 222.24 89.44C222.24 91.4 222.01 93.01 221.55 94.27C221.09 95.53 220.5 96.16 219.78 96.16H216.24V107.14C216.24 108.22 216.7 108.99 217.62 109.45C218.54 109.91 219.35 110.14 220.05 110.14C220.75 110.14 221.18 110.48 221.34 111.16C221.5 111.84 221.58 112.86 221.58 114.22C221.58 116.9 221.22 118.58 220.5 119.26ZM241.62 106.24C241.62 108.84 242.86 110.14 245.34 110.14C246.78 110.14 248.66 109.65 250.98 108.67C253.3 107.69 254.52 107.2 254.64 107.2C255.4 107.2 256.4 108.34 257.64 110.62C258.88 112.9 259.5 114.58 259.5 115.66C259.5 117.22 257.9 118.4 254.7 119.2C251.5 120 248.37 120.4 245.31 120.4C242.25 120.4 239.69 120.16 237.63 119.68C235.57 119.2 233.89 118.59 232.59 117.85C231.29 117.11 230.15 116.2 229.17 115.12C228.19 114.04 227.46 113.01 226.98 112.03C226.5 111.05 226.12 109.96 225.84 108.76C225.44 107 225.24 105.18 225.24 103.3C225.24 96.02 227.14 91 230.94 88.24C232.82 86.84 234.92 85.86 237.24 85.3C239.56 84.74 242.3 84.46 245.46 84.46C255.58 84.46 260.64 87.98 260.64 95.02C260.64 102.5 254.96 106.24 243.6 106.24H241.62ZM241.5 97.48V101.44C242.66 101.44 243.61 100.98 244.35 100.06C245.09 99.14 245.46 98.02 245.46 96.7C245.46 94.3 244.84 93.1 243.6 93.1C242.2 93.1 241.5 94.56 241.5 97.48ZM286.08 73C288.72 73 290.79 73.39 292.29 74.17C293.79 74.95 294.54 76.36 294.54 78.4C294.54 82 291.74 83.8 286.14 83.8C280.54 83.8 277.74 82 277.74 78.4C277.74 74.8 280.52 73 286.08 73ZM294.24 88.78V118.36C294.24 118.8 293.09 119.15 290.79 119.41C288.49 119.67 286.13 119.8 283.71 119.8C281.29 119.8 279.73 119.69 279.03 119.47C278.33 119.25 277.98 118.88 277.98 118.36V89.86C277.98 88.98 279.11 88.11 281.37 87.25C283.63 86.39 286.1 85.96 288.78 85.96C292.42 85.96 294.24 86.9 294.24 88.78ZM315.06 120.34C308.42 120.34 303.56 119.7 300.48 118.42C298.92 117.74 298.14 117.08 298.14 116.44C298.14 114.8 298.62 112.88 299.58 110.68C300.54 108.48 301.38 107.38 302.1 107.38C302.5 107.38 303.85 107.82 306.15 108.7C308.45 109.58 310.39 110.02 311.97 110.02C313.55 110.02 314.59 109.92 315.09 109.72C315.59 109.52 315.84 109.13 315.84 108.55C315.84 107.97 315.44 107.51 314.64 107.17C313.84 106.83 312.84 106.6 311.64 106.48C310.44 106.36 309.15 106.12 307.77 105.76C306.39 105.4 305.1 104.94 303.9 104.38C302.7 103.82 301.7 102.89 300.9 101.59C300.1 100.29 299.7 98.89 299.7 97.39C299.7 95.89 299.74 94.77 299.82 94.03C299.9 93.29 300.23 92.25 300.81 90.91C301.39 89.57 302.21 88.48 303.27 87.64C304.33 86.8 305.97 86.04 308.19 85.36C310.41 84.68 312.9 84.34 315.66 84.34C318.42 84.34 320.73 84.43 322.59 84.61C324.45 84.79 325.91 85.02 326.97 85.3C328.03 85.58 328.9 85.9 329.58 86.26C330.74 86.86 331.32 87.52 331.32 88.24C331.32 89.8 330.76 91.6 329.64 93.64C328.52 95.68 327.63 96.7 326.97 96.7C326.31 96.7 324.88 96.35 322.68 95.65C320.48 94.95 318.86 94.6 317.82 94.6C316.14 94.6 315.3 95.08 315.3 96.04C315.3 96.64 315.87 97.09 317.01 97.39C318.15 97.69 319.52 98 321.12 98.32C322.72 98.64 324.33 99.09 325.95 99.67C327.57 100.25 328.95 101.3 330.09 102.82C331.23 104.34 331.8 106.26 331.8 108.58C331.8 116.42 326.22 120.34 315.06 120.34ZM356.64 118.78C355.68 118.34 354.65 117.68 353.55 116.8C352.45 115.92 351.54 114.88 350.82 113.68C349.14 110.8 348.3 107.04 348.3 102.4C348.3 99.52 348.76 96.95 349.68 94.69C350.6 92.43 351.72 90.68 353.04 89.44C354.36 88.2 355.88 87.18 357.6 86.38C360.36 85.1 363.12 84.46 365.88 84.46C370.52 84.46 373.75 84.82 375.57 85.54C377.39 86.26 378.3 87.48 378.3 89.2C378.3 90.92 377.99 92.75 377.37 94.69C376.75 96.63 375.94 97.6 374.94 97.6C374.62 97.6 373.65 97.26 372.03 96.58C370.41 95.9 369.01 95.56 367.83 95.56C366.65 95.56 365.75 96.03 365.13 96.97C364.51 97.91 364.2 99.73 364.2 102.43C364.2 105.13 364.48 106.97 365.04 107.95C365.6 108.93 366.47 109.42 367.65 109.42C368.83 109.42 370.3 109.02 372.06 108.22C373.82 107.42 374.8 107.02 375 107.02C375.76 107.02 376.49 107.92 377.19 109.72C377.89 111.52 378.24 113.12 378.24 114.52C378.24 116.68 377.12 118.19 374.88 119.05C372.64 119.91 369.61 120.34 365.79 120.34C361.97 120.34 358.92 119.82 356.64 118.78ZM400.38 120.34C397.38 120.34 394.8 120.08 392.64 119.56C390.48 119.04 388.52 118.12 386.76 116.8C383.12 114.16 381.3 109.24 381.3 102.04C381.3 95.64 383.16 91.06 386.88 88.3C390.36 85.74 394.86 84.46 400.38 84.46C402.74 84.46 404.76 84.57 406.44 84.79C408.12 85.01 409.83 85.48 411.57 86.2C413.31 86.92 414.71 87.9 415.77 89.14C416.83 90.38 417.7 92.09 418.38 94.27C419.06 96.45 419.4 99.04 419.4 102.04C419.4 108.12 417.68 112.69 414.24 115.75C410.8 118.81 406.18 120.34 400.38 120.34ZM398.28 108.64C398.56 110.08 398.85 110.94 399.15 111.22C399.45 111.5 399.85 111.64 400.35 111.64C400.85 111.64 401.25 111.5 401.55 111.22C401.85 110.94 402.13 110.08 402.39 108.64C402.65 107.2 402.78 105.39 402.78 103.21C402.78 101.03 402.73 99.35 402.63 98.17C402.53 96.99 402.41 96.08 402.27 95.44C402.13 94.8 401.94 94.3 401.7 93.94C401.34 93.42 400.91 93.16 400.41 93.16C399.91 93.16 399.5 93.31 399.18 93.61C398.86 93.91 398.56 94.79 398.28 96.25C398 97.71 397.86 99.78 397.86 102.46C397.86 105.14 398 107.2 398.28 108.64ZM477.66 100V118.36C477.66 118.8 476.53 119.15 474.27 119.41C472.01 119.67 469.67 119.8 467.25 119.8C464.83 119.8 463.26 119.69 462.54 119.47C461.82 119.25 461.46 118.88 461.46 118.36V101.74C461.46 96.02 460.88 93.16 459.72 93.16C459.44 93.16 459.16 93.28 458.88 93.52C458.6 93.76 458.46 94.18 458.46 94.78V118.36C458.46 118.8 457.33 119.15 455.07 119.41C452.81 119.67 450.46 119.8 448.02 119.8C445.58 119.8 444.01 119.69 443.31 119.47C442.61 119.25 442.26 118.88 442.26 118.36V101.74C442.26 97.3 441.98 94.64 441.42 93.76C441.14 93.36 440.78 93.16 440.34 93.16C439.58 93.16 439.2 93.7 439.2 94.78V118.36C439.2 118.8 438.06 119.15 435.78 119.41C433.5 119.67 431.15 119.8 428.73 119.8C426.31 119.8 424.75 119.69 424.05 119.47C423.35 119.25 423 118.88 423 118.36V88.78C423 87.94 424.15 87.1 426.45 86.26C428.75 85.42 431.18 85 433.74 85C436.3 85 437.74 85.74 438.06 87.22L438.6 89.86H439.02C440.18 87.58 442.1 85.96 444.78 85C445.9 84.64 447.34 84.46 449.1 84.46C452.62 84.46 455.18 86.26 456.78 89.86C457.3 88.66 458.6 87.46 460.68 86.26C462.76 85.06 465.06 84.46 467.58 84.46C471.54 84.46 474.21 85.69 475.59 88.15C476.97 90.61 477.66 94.56 477.66 100ZM490.19 73C492.83 73 494.9 73.39 496.4 74.17C497.9 74.95 498.65 76.36 498.65 78.4C498.65 82 495.85 83.8 490.25 83.8C484.65 83.8 481.85 82 481.85 78.4C481.85 74.8 484.63 73 490.19 73ZM498.35 88.78V118.36C498.35 118.8 497.2 119.15 494.9 119.41C492.6 119.67 490.24 119.8 487.82 119.8C485.4 119.8 483.84 119.69 483.14 119.47C482.44 119.25 482.09 118.88 482.09 118.36V89.86C482.09 88.98 483.22 88.11 485.48 87.25C487.74 86.39 490.21 85.96 492.89 85.96C496.53 85.96 498.35 86.9 498.35 88.78ZM539.03 99.88V118.36C539.03 118.8 537.89 119.15 535.61 119.41C533.33 119.67 530.98 119.8 528.56 119.8C526.14 119.8 524.58 119.69 523.88 119.47C523.18 119.25 522.83 118.88 522.83 118.36V99.28C522.83 97.48 522.76 96.3 522.62 95.74C522.48 95.18 522.35 94.68 522.23 94.24C521.95 93.48 521.45 93.1 520.73 93.1C519.61 93.1 519.05 93.64 519.05 94.72V118.36C519.05 118.8 517.92 119.15 515.66 119.41C513.4 119.67 511.06 119.8 508.64 119.8C506.22 119.8 504.65 119.69 503.93 119.47C503.21 119.25 502.85 118.88 502.85 118.36V88.78C502.85 87.94 504 87.1 506.3 86.26C508.6 85.42 511.03 85 513.59 85C516.15 85 517.59 85.74 517.91 87.22L518.45 89.86H518.87C520.03 87.54 522.03 85.92 524.87 85C526.03 84.64 527.31 84.46 528.71 84.46C532.75 84.46 535.48 85.67 536.9 88.09C538.32 90.51 539.03 94.44 539.03 99.88ZM563.27 115.84V112.36H562.79C562.63 112.56 562.35 112.81 561.95 113.11C561.55 113.41 560.56 113.82 558.98 114.34C557.4 114.86 555.62 115.12 553.64 115.12C551.66 115.12 549.99 114.82 548.63 114.22C547.27 113.62 546.21 112.87 545.45 111.97C544.69 111.07 544.09 109.86 543.65 108.34C542.97 105.98 542.63 102.78 542.63 98.74C542.63 94.1 543.61 90.54 545.57 88.06C546.33 87.06 547.46 86.21 548.96 85.51C550.46 84.81 552.07 84.46 553.79 84.46C555.51 84.46 556.93 84.65 558.05 85.03C559.17 85.41 560.01 85.86 560.57 86.38C561.69 87.5 562.33 88.48 562.49 89.32L562.55 89.86H563.03L563.57 87.52C563.97 85.84 567.13 85 573.05 85C575.69 85 577.29 85.4 577.85 86.2C578.17 86.68 578.37 87.13 578.45 87.55C578.53 87.97 578.57 88.6 578.57 89.44V114.58C578.57 119.3 577.03 122.9 573.95 125.38C570.87 127.86 566.35 129.1 560.39 129.1C554.07 129.1 549.77 128.48 547.49 127.24C546.49 126.68 545.99 126.1 545.99 125.5C545.99 124.54 546.38 122.92 547.16 120.64C547.94 118.36 548.67 117.22 549.35 117.22C549.51 117.22 550.07 117.36 551.03 117.64C554.07 118.44 556.54 118.84 558.44 118.84C560.34 118.84 561.62 118.6 562.28 118.12C562.94 117.64 563.27 116.88 563.27 115.84ZM560.87 108.28C561.31 108.28 561.67 108.12 561.95 107.8C562.23 107.48 562.37 107.12 562.37 106.72V94.36C562.21 93.52 561.77 93.1 561.05 93.1C559.53 93.1 558.77 95.6 558.77 100.6C558.77 102.92 558.96 104.78 559.34 106.18C559.72 107.58 560.23 108.28 560.87 108.28ZM585.95 76.75C588.27 76.49 590.99 76.36 594.11 76.36C597.23 76.36 598.79 76.82 598.79 77.74C598.79 78.9 598.43 88.54 597.71 106.66C597.67 107.66 596.95 108.56 595.55 109.36C594.15 110.16 592.17 110.56 589.61 110.56C586.13 110.56 584.31 109.62 584.15 107.74L582.53 77.8C582.49 77.36 583.63 77.01 585.95 76.75ZM596.18 123.49C594.88 124.27 593.06 124.66 590.72 124.66C588.38 124.66 586.59 124.31 585.35 123.61C584.11 122.91 583.49 121.46 583.49 119.26C583.49 115.66 585.93 113.86 590.81 113.86C595.69 113.86 598.13 115.66 598.13 119.26C598.13 121.3 597.48 122.71 596.18 123.49Z" fill="url(#paint1_linear_1925_128)"/>
<defs>
<filter id="filter0_d_1925_128" x="5" y="7" width="603.79" height="133.1" filterUnits="userSpaceOnUse" color-interpolation-filters="sRGB">
<feFlood flood-opacity="0" result="BackgroundImageFix"/>
<feColorMatrix in="SourceAlpha" type="matrix" values="0 0 0 0 0 0 0 0 0 0 0 0 0 0 0 0 0 0 127 0" result="hardAlpha"/>
<feOffset dx="5" dy="5"/>
<feColorMatrix type="matrix" values="0 0 0 0 0 0 0 0 0 0 0 0 0 0 0 0 0 0 0.35 0"/>
<feBlend mode="normal" in2="BackgroundImageFix" result="effect1_dropShadow_1925_128"/>
<feBlend mode="normal" in="SourceGraphic" in2="effect1_dropShadow_1925_128" result="shape"/>
</filter>
<linearGradient id="paint0_linear_1925_128" x1="300" y1="-2.75" x2="300" y2="94.9" gradientUnits="userSpaceOnUse">
<stop offset="0.05" stop-color="#FDE800"/>
<stop offset="0.99" stop-color="#F68E1E"/>
</linearGradient>
<linearGradient id="paint1_linear_1925_128" x1="299.4" y1="70.94" x2="299.4" y2="165.15" gradientUnits="userSpaceOnUse">
<stop offset="0.05" stop-color="#FDE800"/>
<stop offset="0.99" stop-color="#F68E1E"/>
</linearGradient>
</defs>
</svg>
